<svg xmlns="http://www.w3.org/2000/svg" xmlns:xlink="http://www.w3.org/1999/xlink" width="274" height="150" viewBox="0 0 274 150">
  <defs>
    <clipPath id="clip-path">
      <rect id="Rectángulo_1567" data-name="Rectángulo 1567" width="274" height="150" transform="translate(-7103 8934)" fill="#fff"/>
    </clipPath>
    <filter id="Rectángulo_1568" x="-501" y="-117" width="1275" height="413.829" filterUnits="userSpaceOnUse">
      <feOffset dy="3" input="SourceAlpha"/>
      <feGaussianBlur stdDeviation="3" result="blur"/>
      <feFlood flood-opacity="0.161"/>
      <feComposite operator="in" in2="blur"/>
      <feComposite in="SourceGraphic"/>
    </filter>
    <clipPath id="clip-path-2">
      <rect width="168" height="43" fill="none"/>
    </clipPath>
    <clipPath id="clip-path-3">
      <rect width="263.076" height="27" fill="none"/>
    </clipPath>
  </defs>
  <g id="Enmascarar_grupo_62" data-name="Enmascarar grupo 62" transform="translate(7103 -8934)" clip-path="url(#clip-path)">
    <g transform="matrix(1, 0, 0, 1, -7103, 8934)" filter="url(#Rectángulo_1568)">
      <rect id="Rectángulo_1568-2" data-name="Rectángulo 1568" width="1257" height="395.829" rx="4" transform="translate(-492 -111)" fill="#fff"/>
    </g>
    <g id="Grupo_2165" data-name="Grupo 2165" transform="translate(-7688 8435.712)">
      <g id="Button_Basic" data-name="Button Basic" transform="translate(638 679)" clip-path="url(#clip-path-2)">
        <g id="Buttons_Text_Enabled" data-name="Buttons / Text / Enabled">
          <rect id="Box" width="168" height="43" rx="4" fill="#ffed00"/>
        </g>
        <text id="_Text_Button_Selected_On_Surface_High_Emphasis_Left" data-name="✱ / Text / Button / Selected / On Surface / High Emphasis / Left" transform="translate(30 27)" font-size="14" font-family="OpenSans-Regular, Open Sans" letter-spacing="0.089em"><tspan x="0" y="0">choose files</tspan></text>
      </g>
      <text id="_Text_Body_1_Selected_On_Surface_Medium_Emphasis_Left_" data-name="✱ / Text / Body 1 / Selected / On Surface / Medium Emphasis / Left " transform="translate(476 614)" fill="#666" font-size="16" font-family="OpenSans-Italic, Open Sans" font-style="italic" letter-spacing="0.031em"><tspan x="0" y="17">Drag and drop your files here or choose one from your computer</tspan></text>
      <g id="H6_Open_Sans_Regular" data-name="H6 / Open Sans / Regular" transform="translate(590 577)" clip-path="url(#clip-path-3)">
        <text id="_Text_H6_Selected_On_Surface_High_Emphasis_Left" data-name="✱ / Text / H6 / Selected / On Surface / High Emphasis / Left" transform="translate(0 21)" fill="rgba(0,0,0,0.87)" font-size="20" font-family="OpenSans-Regular, Open Sans" letter-spacing="0.013em"><tspan x="0" y="0">There are no files to upload</tspan></text>
      </g>
      <g id="baseline-insert_drive_file-24px" transform="translate(700 516.289)">
        <path id="Trazado_2431" data-name="Trazado 2431" d="M7.619,2a3.614,3.614,0,0,0-3.6,3.619L4,34.567a3.614,3.614,0,0,0,3.6,3.619H29.33a3.629,3.629,0,0,0,3.619-3.619V12.856L22.093,2ZM20.284,14.665V4.714l9.951,9.951Z" transform="translate(3.237 1.619)"/>
        <path id="Trazado_2432" data-name="Trazado 2432" d="M0,0H43.423V43.423H0Z" fill="none"/>
      </g>
    </g>
  </g>
</svg>
