<svg xmlns="http://www.w3.org/2000/svg" xmlns:xlink="http://www.w3.org/1999/xlink" width="1146" height="305" viewBox="0 0 1146 305">
  <defs>
    <filter id="Rectangle_2031" x="381" y="26" width="378" height="276" filterUnits="userSpaceOnUse">
      <feOffset dy="-3" input="SourceAlpha"/>
      <feGaussianBlur stdDeviation="3" result="blur"/>
      <feFlood flood-opacity="0.161"/>
      <feComposite operator="in" in2="blur"/>
      <feComposite in="SourceGraphic"/>
    </filter>
    <filter id="Rectangle_2032" x="397" y="95" width="346" height="210" filterUnits="userSpaceOnUse">
      <feOffset dy="-1" input="SourceAlpha"/>
      <feGaussianBlur stdDeviation="3" result="blur-2"/>
      <feFlood flood-opacity="0.161"/>
      <feComposite operator="in" in2="blur-2"/>
      <feComposite in="SourceGraphic"/>
    </filter>
    <filter id="Rectangle_1850" x="382" y="32" width="378" height="66" filterUnits="userSpaceOnUse">
      <feOffset dy="3" input="SourceAlpha"/>
      <feGaussianBlur stdDeviation="3" result="blur-3"/>
      <feFlood flood-opacity="0.161"/>
      <feComposite operator="in" in2="blur-3"/>
      <feComposite in="SourceGraphic"/>
    </filter>
  </defs>
  <g id="Group_4097" data-name="Group 4097" transform="translate(-389 -5116)">
    <g id="Group_3993" data-name="Group 3993">
      <g id="Group_3773" data-name="Group 3773" transform="translate(389 5116)">
        <path id="Path_2923" data-name="Path 2923" d="M0,0H1146V297H0Z" fill="#fafafa" opacity="0.521"/>
      </g>
      <rect id="Rectangle_2030" data-name="Rectangle 2030" width="1146" height="6" transform="translate(389 5116)" fill="#97be35"/>
      <g id="check_circle-24px" transform="translate(397 5130)">
        <path id="Path_983" data-name="Path 983" d="M0,0H24V24H0Z" fill="none"/>
        <path id="Path_984" data-name="Path 984" d="M12,2A10,10,0,1,0,22,12,10,10,0,0,0,12,2ZM10,17,5,12l1.41-1.41L10,14.17l7.59-7.59L19,8Z" fill="#97be35"/>
      </g>
      <g transform="matrix(1, 0, 0, 1, 389, 5116)" filter="url(#Rectangle_2031)">
        <rect id="Rectangle_2031-2" data-name="Rectangle 2031" width="360" height="258" transform="translate(390 38)" fill="#ccc"/>
      </g>
      <g transform="matrix(1, 0, 0, 1, 389, 5116)" filter="url(#Rectangle_2032)">
        <rect id="Rectangle_2032-2" data-name="Rectangle 2032" width="328" height="192" transform="translate(406 105)" fill="#fff"/>
      </g>
      <g id="Group_3830" data-name="Group 3830" transform="translate(0 141)">
        <g id="Group_3774" data-name="Group 3774" transform="translate(795.238 5080)">
          <text id="Tab_1" data-name="Tab 1" transform="translate(61 30.49)" fill="#6f2c91" font-size="16" font-family="OpenSans-Semibold, Open Sans" font-weight="600" letter-spacing="0.089em"><tspan x="-23.007" y="0">Tab 1</tspan></text>
          <text id="Tab_2" data-name="Tab 2" transform="translate(164 30.49)" fill="#666" font-size="16" font-family="OpenSans-Semibold, Open Sans" font-weight="600" letter-spacing="0.089em"><tspan x="-23.007" y="0">Tab 2</tspan></text>
          <text id="Tab_3" data-name="Tab 3" transform="translate(267 30.49)" fill="#666" font-size="16" font-family="OpenSans-Semibold, Open Sans" font-weight="600" letter-spacing="0.089em"><tspan x="-23.007" y="0">Tab 3</tspan></text>
          <path id="Path_2893" data-name="Path 2893" d="M0,0H116V2H0Z" transform="translate(-0.238 46)" fill="#6f2c91"/>
        </g>
        <line id="Line_1473" data-name="Line 1473" x2="328" transform="translate(795 5128)" fill="none" stroke="#f2f2f2" stroke-width="1"/>
        <rect id="Rectangle_2066" data-name="Rectangle 2066" width="328" height="48" transform="translate(795 5080)" fill="none"/>
      </g>
      <g id="Group_3888" data-name="Group 3888" transform="translate(780.27 5154)">
        <g id="Group_3585" data-name="Group 3585">
          <g transform="matrix(1, 0, 0, 1, -391.27, -38)" filter="url(#Rectangle_1850)">
            <rect id="Rectangle_1850-2" data-name="Rectangle 1850" width="360" height="48" transform="translate(391 38)" fill="#fff"/>
          </g>
        </g>
        <rect id="dxc_logo_hz_wht_rgb_300" width="27" height="26.267" transform="translate(15.73 11.116)" fill="#f2f2f2"/>
        <g id="Group_3586" data-name="Group 3586" transform="translate(262.998 12.116)">
          <g id="Icon_Circle_Filled" data-name="Icon / Circle / Filled">
            <path id="shape" d="M61.583-38A11.588,11.588,0,0,0,50-26.417,11.588,11.588,0,0,0,61.583-14.833,11.588,11.588,0,0,0,73.167-26.417,11.588,11.588,0,0,0,61.583-38Zm0,3.475a3.47,3.47,0,0,1,3.475,3.475,3.47,3.47,0,0,1-3.475,3.475,3.47,3.47,0,0,1-3.475-3.475A3.47,3.47,0,0,1,61.583-34.525Zm0,16.448a8.341,8.341,0,0,1-6.95-3.73c.035-2.305,4.633-3.568,6.95-3.568s6.915,1.263,6.95,3.568A8.341,8.341,0,0,1,61.583-18.077Z" transform="translate(-50 38)" fill="#f2f2f2"/>
          </g>
        </g>
        <g id="Group_3587" data-name="Group 3587" transform="translate(322 17.116)">
          <line id="Line_530" data-name="Line 530" x1="22" transform="translate(0 6.5)" fill="none" stroke="#f2f2f2" stroke-width="2"/>
          <line id="Line_531" data-name="Line 531" x1="15" transform="translate(7)" fill="none" stroke="#f2f2f2" stroke-width="2"/>
          <line id="Line_532" data-name="Line 532" x1="12" transform="translate(10 13.25)" fill="none" stroke="#f2f2f2" stroke-width="2"/>
        </g>
      </g>
      <rect id="Rectangle_2135" data-name="Rectangle 2135" width="296" height="16" transform="translate(811 5341)" fill="#f2f2f2"/>
      <rect id="Rectangle_2136" data-name="Rectangle 2136" width="258" height="16" transform="translate(811 5366)" fill="#f2f2f2"/>
      <rect id="Rectangle_2137" data-name="Rectangle 2137" width="145" height="24" transform="translate(811 5293)" fill="#ccc"/>
    </g>
  </g>
</svg>
