<svg xmlns="http://www.w3.org/2000/svg" xmlns:xlink="http://www.w3.org/1999/xlink" width="1146" height="306" viewBox="0 0 1146 306">
  <defs>
    <filter id="Rectangle_1931" x="385" y="27" width="378" height="276" filterUnits="userSpaceOnUse">
      <feOffset dy="-3" input="SourceAlpha"/>
      <feGaussianBlur stdDeviation="3" result="blur"/>
      <feFlood flood-opacity="0.161"/>
      <feComposite operator="in" in2="blur"/>
      <feComposite in="SourceGraphic"/>
    </filter>
    <filter id="Rectangle_1932" x="401" y="96" width="346" height="210" filterUnits="userSpaceOnUse">
      <feOffset dy="-1" input="SourceAlpha"/>
      <feGaussianBlur stdDeviation="3" result="blur-2"/>
      <feFlood flood-opacity="0.161"/>
      <feComposite operator="in" in2="blur-2"/>
      <feComposite in="SourceGraphic"/>
    </filter>
    <filter id="Rectangle_1850" x="385" y="33" width="378" height="66" filterUnits="userSpaceOnUse">
      <feOffset dy="3" input="SourceAlpha"/>
      <feGaussianBlur stdDeviation="3" result="blur-3"/>
      <feFlood flood-opacity="0.161"/>
      <feComposite operator="in" in2="blur-3"/>
      <feComposite in="SourceGraphic"/>
    </filter>
    <clipPath id="clip-path">
      <rect id="Rectangle_2208" data-name="Rectangle 2208" width="328" height="48" transform="translate(798 7646)" fill="#fff" stroke="#707070" stroke-width="1"/>
    </clipPath>
  </defs>
  <g id="Group_4105" data-name="Group 4105" transform="translate(-386 -7509)">
    <g id="Group_3998" data-name="Group 3998" transform="translate(-2)">
      <g id="Group_3581" data-name="Group 3581" transform="translate(388 7509)">
        <rect id="Rectangle_1842" data-name="Rectangle 1842" width="1146" height="297" fill="#fafafa" opacity="0.521"/>
      </g>
      <g id="Group_3583" data-name="Group 3583" transform="translate(389 7509.5)">
        <circle id="Ellipse_10" data-name="Ellipse 10" cx="9" cy="9" r="9" transform="translate(11 17)" fill="#fff"/>
        <rect id="Rectangle_1837" data-name="Rectangle 1837" width="1145" height="6" transform="translate(0)" fill="#f38f20"/>
        <g id="error-24px" transform="translate(7 14)">
          <path id="Path_2870" data-name="Path 2870" d="M0,0H24V24H0Z" fill="none"/>
          <path id="Path_2871" data-name="Path 2871" d="M12,2A10,10,0,1,0,22,12,10,10,0,0,0,12,2Zm1,15H11V15h2Zm0-4H11V7h2Z" fill="#f38f20"/>
        </g>
      </g>
      <g transform="matrix(1, 0, 0, 1, 388, 7509)" filter="url(#Rectangle_1931)">
        <rect id="Rectangle_1931-2" data-name="Rectangle 1931" width="360" height="258" transform="translate(394 39)" fill="#ccc"/>
      </g>
      <g transform="matrix(1, 0, 0, 1, 388, 7509)" filter="url(#Rectangle_1932)">
        <rect id="Rectangle_1932-2" data-name="Rectangle 1932" width="328" height="192" transform="translate(410 106)" fill="#fff"/>
      </g>
      <g id="Group_3888" data-name="Group 3888" transform="translate(782.27 7548)">
        <g id="Group_3585" data-name="Group 3585">
          <g transform="matrix(1, 0, 0, 1, -394.27, -39)" filter="url(#Rectangle_1850)">
            <rect id="Rectangle_1850-2" data-name="Rectangle 1850" width="360" height="48" transform="translate(394 39)" fill="#fff"/>
          </g>
        </g>
        <rect id="dxc_logo_hz_wht_rgb_300" width="27" height="26.267" transform="translate(15.73 11.116)" fill="#f2f2f2"/>
        <g id="Group_3586" data-name="Group 3586" transform="translate(262.998 12.116)">
          <g id="Icon_Circle_Filled" data-name="Icon / Circle / Filled">
            <path id="shape" d="M61.583-38A11.588,11.588,0,0,0,50-26.417,11.588,11.588,0,0,0,61.583-14.833,11.588,11.588,0,0,0,73.167-26.417,11.588,11.588,0,0,0,61.583-38Zm0,3.475a3.47,3.47,0,0,1,3.475,3.475,3.47,3.47,0,0,1-3.475,3.475,3.47,3.47,0,0,1-3.475-3.475A3.47,3.47,0,0,1,61.583-34.525Zm0,16.448a8.341,8.341,0,0,1-6.95-3.73c.035-2.305,4.633-3.568,6.95-3.568s6.915,1.263,6.95,3.568A8.341,8.341,0,0,1,61.583-18.077Z" transform="translate(-50 38)" fill="#f2f2f2"/>
          </g>
        </g>
        <g id="Group_3587" data-name="Group 3587" transform="translate(322 17.116)">
          <line id="Line_530" data-name="Line 530" x1="22" transform="translate(0 6.5)" fill="none" stroke="#f2f2f2" stroke-width="2"/>
          <line id="Line_531" data-name="Line 531" x1="15" transform="translate(7)" fill="none" stroke="#f2f2f2" stroke-width="2"/>
          <line id="Line_532" data-name="Line 532" x1="12" transform="translate(10 13.25)" fill="none" stroke="#f2f2f2" stroke-width="2"/>
        </g>
      </g>
      <g id="Mask_Group_1" data-name="Mask Group 1" transform="translate(0 -31)" clip-path="url(#clip-path)">
        <g id="Tabs-scrollable-mobile-48" transform="translate(798 7646)">
          <rect id="Tabs-container" width="360" height="48" fill="#fff"/>
          <line id="Divider" x1="360" transform="translate(0 48)" fill="none" stroke="#bfbfbf" stroke-width="1"/>
          <g id="Tab3">
            <rect id="Rectangle_1991" data-name="Rectangle 1991" width="91" height="48" transform="translate(269)" fill="none"/>
            <text id="Tab_3" data-name="Tab 3" transform="translate(324.666 30.49)" fill="#666" font-size="16" font-family="OpenSans-Semibold, Open Sans" font-weight="600" letter-spacing="0.089em"><tspan x="-23.007" y="0">Tab 3</tspan></text>
          </g>
          <g id="Tab2">
            <rect id="Rectangle_1990" data-name="Rectangle 1990" width="111" height="48" transform="translate(159)" fill="none"/>
            <text id="Tab_2" data-name="Tab 2" transform="translate(214 30.49)" fill="#666" font-size="16" font-family="OpenSans-Semibold, Open Sans" font-weight="600" letter-spacing="0.089em"><tspan x="-23.007" y="0">Tab 2</tspan></text>
          </g>
          <g id="Tab1">
            <rect id="Rectangle_1989" data-name="Rectangle 1989" width="111" height="48" transform="translate(48)" fill="none"/>
            <rect id="Active-indicator" width="110.667" height="2" transform="translate(48 46)" fill="#6f2c91"/>
            <text id="Tab_1" data-name="Tab 1" transform="translate(103.334 30.49)" fill="#6f2c91" font-size="16" font-family="OpenSans-Semibold, Open Sans" font-weight="600" letter-spacing="0.089em"><tspan x="-23.007" y="0">Tab 1</tspan></text>
          </g>
        </g>
      </g>
      <rect id="Rectangle_2237" data-name="Rectangle 2237" width="146" height="24" transform="translate(814 7695)" fill="#ccc"/>
      <rect id="Rectangle_2238" data-name="Rectangle 2238" width="296" height="16" transform="translate(814 7743)" fill="#f2f2f2"/>
      <rect id="Rectangle_2239" data-name="Rectangle 2239" width="258" height="16" transform="translate(814 7768)" fill="#f2f2f2"/>
    </g>
  </g>
</svg>
