<svg xmlns="http://www.w3.org/2000/svg" width="1148" height="220" viewBox="0 0 1148 220">
  <g id="Group_4107" data-name="Group 4107" transform="translate(-386 -9078)">
    <g id="Group_4000" data-name="Group 4000">
      <rect id="Rectangle_2074" data-name="Rectangle 2074" width="1148" height="220" transform="translate(386 9078)" fill="#fafafa" opacity="0.521"/>
      <g id="Tabs-Fixed-iconTop-72" transform="translate(696 9152)">
        <path id="Tabs-container" d="M0,0H528V72H0Z" fill="#fff"/>
        <line id="Divider" x1="528" transform="translate(0 71.5)" fill="none" stroke="#bfbfbf" stroke-width="1"/>
        <g id="Tab3">
          <rect id="Rectangle_1983" data-name="Rectangle 1983" width="176" height="72" transform="translate(352)" fill="none"/>
          <text id="Label-3" transform="translate(440 57)" fill="#666" font-size="16" font-family="OpenSans-Semibold, Open Sans" font-weight="600" letter-spacing="0.089em"><tspan x="-23.007" y="0">Tab 3</tspan></text>
          <g id="queue_music-24px" transform="translate(428 8)">
            <path id="Path_2883" data-name="Path 2883" d="M0,0H24V24H0Z" fill="none"/>
            <path id="Path_2884" data-name="Path 2884" d="M15,6H3V8H15Zm0,4H3v2H15ZM3,16h8V14H3ZM17,6v8.18A3,3,0,1,0,19,17V8h3V6Z" fill="#666"/>
          </g>
          <g id="queue_music-24px-2" data-name="queue_music-24px" transform="translate(428 8)">
            <path id="Path_2883-2" data-name="Path 2883" d="M0,0H24V24H0Z" fill="none"/>
            <path id="Path_2884-2" data-name="Path 2884" d="M15,6H3V8H15Zm0,4H3v2H15ZM3,16h8V14H3ZM17,6v8.18A3,3,0,1,0,19,17V8h3V6Z" fill="#666"/>
          </g>
        </g>
        <g id="Tab2">
          <rect id="Rectangle_1982" data-name="Rectangle 1982" width="176" height="72" transform="translate(176)" fill="none"/>
          <text id="Label-2" transform="translate(264 57)" fill="#666" font-size="16" font-family="OpenSans-Semibold, Open Sans" font-weight="600" letter-spacing="0.089em"><tspan x="-23.007" y="0">Tab 2</tspan></text>
          <g id="turned_in-24px" transform="translate(252 8)">
            <path id="Path_2881" data-name="Path 2881" d="M0,0H24V24H0Z" fill="none"/>
            <path id="Path_2882" data-name="Path 2882" d="M17,3H7A2,2,0,0,0,5.01,5L5,21l7-3,7,3V5A2.006,2.006,0,0,0,17,3Z" fill="#666"/>
          </g>
        </g>
        <g id="Tab1">
          <rect id="Tab-container" width="176" height="72" fill="none"/>
          <rect id="Active-indicator" width="176" height="2" transform="translate(0 70)" fill="#6f2c91"/>
          <text id="Label-1" transform="translate(88 57)" fill="#6f2c91" font-size="16" font-family="OpenSans-Semibold, Open Sans" font-weight="600" letter-spacing="0.089em"><tspan x="-23.007" y="0">Tab 1</tspan></text>
          <g id="favorite-24px" transform="translate(76 8)">
            <path id="Path_2854" data-name="Path 2854" d="M0,0H24V24H0Z" fill="none"/>
            <path id="Path_2855" data-name="Path 2855" d="M12,21.35l-1.45-1.32C5.4,15.36,2,12.28,2,8.5A5.447,5.447,0,0,1,7.5,3,5.988,5.988,0,0,1,12,5.09,5.988,5.988,0,0,1,16.5,3,5.447,5.447,0,0,1,22,8.5c0,3.78-3.4,6.86-8.55,11.54Z" fill="#6f2c91"/>
          </g>
        </g>
      </g>
      <rect id="Rectangle_2230" data-name="Rectangle 2230" width="33" height="21" rx="4" transform="translate(1214 9212)" fill="#d0011b"/>
      <text id="_1px" data-name="1px" transform="translate(1221 9227)" fill="#fff" font-size="12" font-family="OpenSans, Open Sans"><tspan x="0" y="0">1px</tspan></text>
      <rect id="Rectangle_2231" data-name="Rectangle 2231" width="33" height="21" rx="4" transform="translate(865 9212)" fill="#d0011b"/>
      <text id="_2px" data-name="2px" transform="translate(872 9227)" fill="#fff" font-size="12" font-family="OpenSans, Open Sans"><tspan x="0" y="0">2px</tspan></text>
      <line id="Line_1495" data-name="Line 1495" x1="272" transform="translate(539 9191.75)" fill="none" stroke="red" stroke-width="0.3" stroke-dasharray="4"/>
      <line id="Line_1496" data-name="Line 1496" x1="272" transform="translate(539 9183.75)" fill="none" stroke="red" stroke-width="0.3" stroke-dasharray="4"/>
      <line id="Line_1497" data-name="Line 1497" x1="271" transform="translate(540 9159.75)" fill="none" stroke="red" stroke-width="0.3" stroke-dasharray="4"/>
      <line id="Line_1498" data-name="Line 1498" x1="271" transform="translate(540 9213.75)" fill="none" stroke="red" stroke-width="0.3" stroke-dasharray="4"/>
      <line id="Line_1499" data-name="Line 1499" x1="271" transform="translate(540 9221.75)" fill="none" stroke="red" stroke-width="0.3" stroke-dasharray="4"/>
      <line id="Line_1500" data-name="Line 1500" x1="838" transform="translate(539.5 9151.75)" fill="none" stroke="red" stroke-width="0.3" stroke-dasharray="4"/>
      <line id="Line_1501" data-name="Line 1501" x1="153" transform="translate(1224.5 9223.75)" fill="none" stroke="red" stroke-width="0.3" stroke-dasharray="4"/>
      <g id="Group_3850" data-name="Group 3850" transform="translate(10596 23127.102)">
        <line id="Line_1260" data-name="Line 1260" y1="9" x2="9" transform="translate(-9222.5 -13980.5)" fill="none" stroke="#d0011b" stroke-width="0.5"/>
        <line id="Line_1261" data-name="Line 1261" y1="9" x2="9" transform="translate(-9222.5 -13908.09)" fill="none" stroke="#d0011b" stroke-width="0.5"/>
        <line id="Line_1262" data-name="Line 1262" y2="73.41" transform="translate(-9217.5 -13976.5)" fill="none" stroke="#d0011b" stroke-width="0.5"/>
      </g>
      <text id="_72px" data-name="72px" transform="translate(1418 9189.25)" fill="#d0011b" font-size="14" font-family="OpenSans-Regular, Open Sans" letter-spacing="0.089em"><tspan x="-17.833" y="0">72px</tspan></text>
      <g id="Group_3851" data-name="Group 3851" transform="translate(267.5 6488.828)">
        <line id="Line_1260-2" data-name="Line 1260" y1="4.5" x2="4.5" transform="translate(272.5 2660.5)" fill="none" stroke="#d0011b" stroke-width="0.5"/>
        <line id="Line_1261-2" data-name="Line 1261" y1="4.5" x2="4.5" transform="translate(272.5 2669.306)" fill="none" stroke="#d0011b" stroke-width="0.5"/>
        <line id="Line_1262-2" data-name="Line 1262" y2="9.306" transform="translate(275 2662.5)" fill="none" stroke="#d0011b" stroke-width="0.5"/>
      </g>
      <g id="Group_3852" data-name="Group 3852" transform="translate(267.5 6520.598)">
        <line id="Line_1260-3" data-name="Line 1260" y1="4.5" x2="4.5" transform="translate(272.5 2660.5)" fill="none" stroke="#d0011b" stroke-width="0.5"/>
        <line id="Line_1261-3" data-name="Line 1261" y1="4.5" x2="4.5" transform="translate(272.5 2669.306)" fill="none" stroke="#d0011b" stroke-width="0.5"/>
        <line id="Line_1262-3" data-name="Line 1262" y2="9.306" transform="translate(275 2662.5)" fill="none" stroke="#d0011b" stroke-width="0.5"/>
      </g>
      <g id="Group_3853" data-name="Group 3853" transform="translate(267.5 6551.598)">
        <line id="Line_1260-4" data-name="Line 1260" y1="4.5" x2="4.5" transform="translate(272.5 2660.5)" fill="none" stroke="#d0011b" stroke-width="0.5"/>
        <line id="Line_1261-4" data-name="Line 1261" y1="4.5" x2="4.5" transform="translate(272.5 2669.306)" fill="none" stroke="#d0011b" stroke-width="0.5"/>
        <line id="Line_1262-4" data-name="Line 1262" y2="9.306" transform="translate(275 2662.5)" fill="none" stroke="#d0011b" stroke-width="0.5"/>
      </g>
      <text id="_8px" data-name="8px" transform="translate(497 9158.75)" fill="#d0011b" font-size="14" font-family="OpenSans-Regular, Open Sans" letter-spacing="0.089em"><tspan x="-13.207" y="0">8px</tspan></text>
      <text id="_8px-2" data-name="8px" transform="translate(497 9190.75)" fill="#d0011b" font-size="14" font-family="OpenSans-Regular, Open Sans" letter-spacing="0.089em"><tspan x="-13.207" y="0">8px</tspan></text>
      <text id="_8px-3" data-name="8px" transform="translate(497 9222.75)" fill="#d0011b" font-size="14" font-family="OpenSans-Regular, Open Sans" letter-spacing="0.089em"><tspan x="-13.207" y="0">8px</tspan></text>
      <g id="Group_3985" data-name="Group 3985" transform="translate(0 63)">
        <rect id="Rectangle_2168" data-name="Rectangle 2168" width="33" height="21" rx="4" transform="translate(864 9149)" fill="#d0011b"/>
        <text id="_2px-2" data-name="2px" transform="translate(871 9164)" fill="#fff" font-size="12" font-family="OpenSans, Open Sans"><tspan x="0" y="0">2px</tspan></text>
      </g>
      <g id="Group_3981" data-name="Group 3981" transform="translate(0 63)">
        <rect id="Rectangle_2169" data-name="Rectangle 2169" width="33" height="21" rx="4" transform="translate(1214 9149)" fill="#d0011b"/>
        <text id="_1px-2" data-name="1px" transform="translate(1221 9164)" fill="#fff" font-size="12" font-family="OpenSans, Open Sans"><tspan x="0" y="0">1px</tspan></text>
      </g>
    </g>
  </g>
</svg>
