<svg xmlns="http://www.w3.org/2000/svg" xmlns:xlink="http://www.w3.org/1999/xlink" width="274" height="150" viewBox="0 0 274 150">
  <defs>
    <clipPath id="clip-path">
      <rect id="Rectángulo_1708" data-name="Rectángulo 1708" width="274" height="150" transform="translate(2328 -9109)" fill="#fff"/>
    </clipPath>
  </defs>
  <g id="Enmascarar_grupo_65" data-name="Enmascarar grupo 65" transform="translate(-2328 9109)" clip-path="url(#clip-path)">
    <g id="Grupo_2586" data-name="Grupo 2586" transform="translate(18845 -15492)">
      <rect id="Rectángulo_1640" data-name="Rectángulo 1640" width="1397" height="563" transform="translate(-16569 6101)" fill="none"/>
      <g id="Grupo_2407" data-name="Grupo 2407" transform="translate(-16584 5669)">
        <line id="Línea_1083" data-name="Línea 1083" x2="240" transform="translate(154.1 598.5)" fill="none" stroke="#d9d9d9" stroke-linecap="round" stroke-width="2"/>
        <line id="Línea_1085" data-name="Línea 1085" x2="240" transform="translate(481.1 598.5)" fill="none" stroke="#d9d9d9" stroke-linecap="round" stroke-width="2"/>
        <g id="Grupo_2283" data-name="Grupo 2283" transform="translate(-3.591 -2618.591)">
          <ellipse id="Elipse_302" data-name="Elipse 302" cx="18.064" cy="18.064" rx="18.064" ry="18.064" transform="translate(95.568 3198.568)" fill="#ffed00"/>
          <g id="baseline-edit-24px" transform="translate(103.591 3206.591)">
            <path id="Trazado_1013" data-name="Trazado 1013" d="M3,14.631v3.061H6.061l9.027-9.027L12.027,5.6ZM17.455,6.3a.813.813,0,0,0,0-1.151l-1.91-1.91a.813.813,0,0,0-1.151,0L12.9,4.73l3.061,3.061Z" transform="translate(-0.677 -0.676)"/>
            <path id="Trazado_1014" data-name="Trazado 1014" d="M0,0H19.338V19.338H0Z" fill="none"/>
          </g>
        </g>
        <g id="Grupo_2284" data-name="Grupo 2284" transform="translate(328.1 -228)">
          <circle id="Elipse_410" data-name="Elipse 410" cx="17.632" cy="17.632" r="17.632" transform="translate(92 809)" fill="#d9d9d9"/>
          <g id="baseline-delete-24px" transform="translate(99.9 817)">
            <path id="Trazado_1015" data-name="Trazado 1015" d="M5.78,15.932a1.593,1.593,0,0,0,1.559,1.616h6.237a1.593,1.593,0,0,0,1.559-1.616v-9.7H5.78ZM15.914,3.808H13.186L12.406,3h-3.9l-.78.808H5V5.425H15.914Z" transform="translate(-0.457 -0.274)" fill="#666"/>
            <path id="Trazado_1016" data-name="Trazado 1016" d="M0,0H20V20H0Z" fill="none"/>
          </g>
        </g>
        <g id="Grupo_2285" data-name="Grupo 2285" transform="translate(655.1 -228)">
          <circle id="Elipse_410-2" data-name="Elipse 410" cx="17.632" cy="17.632" r="17.632" transform="translate(92 809)" fill="#d9d9d9"/>
          <g id="Grupo_2287" data-name="Grupo 2287" transform="translate(101.74 818.74)">
            <g id="Icon_Circle_Filled" data-name="Icon / Circle / Filled">
              <path id="shape" d="M58.226-38A8.229,8.229,0,0,0,50-29.774a8.229,8.229,0,0,0,8.226,8.226,8.229,8.229,0,0,0,8.226-8.226A8.229,8.229,0,0,0,58.226-38Zm0,2.468a2.465,2.465,0,0,1,2.468,2.468A2.465,2.465,0,0,1,58.226-30.6a2.465,2.465,0,0,1-2.468-2.468A2.465,2.465,0,0,1,58.226-35.532Zm0,11.681A5.923,5.923,0,0,1,53.29-26.5c.025-1.637,3.29-2.534,4.936-2.534s4.911.9,4.936,2.534A5.923,5.923,0,0,1,58.226-23.851Z" transform="translate(-50 38)" fill="#666"/>
            </g>
          </g>
        </g>
      </g>
      <g id="Grupo_2408" data-name="Grupo 2408" transform="translate(-16584 5904)">
        <line id="Línea_1083-2" data-name="Línea 1083" x2="240" transform="translate(154.1 598.5)" fill="none" stroke="#d9d9d9" stroke-linecap="round" stroke-width="2"/>
        <line id="Línea_1085-2" data-name="Línea 1085" x2="240" transform="translate(481.1 598.5)" fill="none" stroke="#d9d9d9" stroke-linecap="round" stroke-width="2"/>
        <g id="Grupo_2283-2" data-name="Grupo 2283" transform="translate(-3.591 -2618.591)">
          <g id="Elipse_302-2" data-name="Elipse 302" transform="translate(95.568 3198.568)" fill="none" stroke="#000" stroke-width="2">
            <ellipse cx="18.064" cy="18.064" rx="18.064" ry="18.064" stroke="none"/>
            <ellipse cx="18.064" cy="18.064" rx="17.064" ry="17.064" fill="none"/>
          </g>
          <g id="baseline-edit-24px-2" data-name="baseline-edit-24px" transform="translate(103.591 3206.591)">
            <path id="Trazado_1013-2" data-name="Trazado 1013" d="M3,14.631v3.061H6.061l9.027-9.027L12.027,5.6ZM17.455,6.3a.813.813,0,0,0,0-1.151l-1.91-1.91a.813.813,0,0,0-1.151,0L12.9,4.73l3.061,3.061Z" transform="translate(-0.677 -0.676)"/>
            <path id="Trazado_1014-2" data-name="Trazado 1014" d="M0,0H19.338V19.338H0Z" fill="none"/>
          </g>
        </g>
        <g id="Grupo_2284-2" data-name="Grupo 2284" transform="translate(328.1 -228)">
          <g id="Elipse_410-3" data-name="Elipse 410" transform="translate(92 809)" fill="none" stroke="#000" stroke-width="2">
            <circle cx="17.632" cy="17.632" r="17.632" stroke="none"/>
            <circle cx="17.632" cy="17.632" r="16.632" fill="none"/>
          </g>
          <g id="baseline-delete-24px-2" data-name="baseline-delete-24px" transform="translate(99.9 817)">
            <path id="Trazado_1015-2" data-name="Trazado 1015" d="M5.78,15.932a1.593,1.593,0,0,0,1.559,1.616h6.237a1.593,1.593,0,0,0,1.559-1.616v-9.7H5.78ZM15.914,3.808H13.186L12.406,3h-3.9l-.78.808H5V5.425H15.914Z" transform="translate(-0.457 -0.274)"/>
            <path id="Trazado_1016-2" data-name="Trazado 1016" d="M0,0H20V20H0Z" fill="none"/>
          </g>
        </g>
        <g id="Grupo_2285-2" data-name="Grupo 2285" transform="translate(655.1 -228)">
          <circle id="Elipse_410-4" data-name="Elipse 410" cx="17.632" cy="17.632" r="17.632" transform="translate(92 809)" fill="#ffed00"/>
          <g id="Grupo_2287-2" data-name="Grupo 2287" transform="translate(101.74 818.74)">
            <g id="Icon_Circle_Filled-2" data-name="Icon / Circle / Filled">
              <path id="shape-2" data-name="shape" d="M58.226-38A8.229,8.229,0,0,0,50-29.774a8.229,8.229,0,0,0,8.226,8.226,8.229,8.229,0,0,0,8.226-8.226A8.229,8.229,0,0,0,58.226-38Zm0,2.468a2.465,2.465,0,0,1,2.468,2.468A2.465,2.465,0,0,1,58.226-30.6a2.465,2.465,0,0,1-2.468-2.468A2.465,2.465,0,0,1,58.226-35.532Zm0,11.681A5.923,5.923,0,0,1,53.29-26.5c.025-1.637,3.29-2.534,4.936-2.534s4.911.9,4.936,2.534A5.923,5.923,0,0,1,58.226-23.851Z" transform="translate(-50 38)"/>
            </g>
          </g>
        </g>
      </g>
      <g id="Grupo_2409" data-name="Grupo 2409" transform="translate(-16584 5435)">
        <line id="Línea_1086" data-name="Línea 1086" x2="240" transform="translate(369.1 751.5)" fill="none" stroke="#d9d9d9" stroke-linecap="round" stroke-width="2"/>
        <line id="Línea_1087" data-name="Línea 1087" x2="240" transform="translate(911.1 751.5)" fill="none" stroke="#d9d9d9" stroke-linecap="round" stroke-width="2"/>
        <g id="Grupo_2294" data-name="Grupo 2294" transform="translate(-3.568 -2465.568)">
          <ellipse id="Elipse_302-3" data-name="Elipse 302" cx="18.064" cy="18.064" rx="18.064" ry="18.064" transform="translate(95.568 3198.568)" fill="#ffed00"/>
        </g>
        <text id="_1" data-name="1" transform="translate(106 757)" font-size="16" font-family="OpenSans-Regular, Open Sans" letter-spacing="0.048em"><tspan x="0" y="0">1</tspan></text>
        <g id="Grupo_2296" data-name="Grupo 2296" transform="translate(543.1 -75)">
          <circle id="Elipse_410-5" data-name="Elipse 410" cx="17.632" cy="17.632" r="17.632" transform="translate(91.9 809)" fill="#d9d9d9"/>
          <text id="_2" data-name="2" transform="translate(104.9 833)" fill="#666" font-size="16" font-family="OpenSans-Regular, Open Sans" letter-spacing="0.048em"><tspan x="0" y="0">2</tspan></text>
        </g>
        <g id="Grupo_2298" data-name="Grupo 2298" transform="translate(1085.1 -75)">
          <circle id="Elipse_410-6" data-name="Elipse 410" cx="17.632" cy="17.632" r="17.632" transform="translate(91.9 809)" fill="#d9d9d9"/>
          <text id="_3" data-name="3" transform="translate(104.9 833)" fill="#666" font-size="16" font-family="OpenSans-Regular, Open Sans" letter-spacing="0.048em"><tspan x="0" y="0">3</tspan></text>
        </g>
        <g id="Grupo_2295" data-name="Grupo 2295" transform="translate(0 72)">
          <text id="A_small_description_for_this_section" data-name="A small description for this section" transform="translate(138 703)" font-size="12" font-family="OpenSans-Light, Open Sans" font-weight="300" letter-spacing="0.048em"><tspan x="0" y="0">A small description for this section</tspan></text>
          <text id="First_step" data-name="First step" transform="translate(138 685)" font-size="16" font-family="OpenSans-Regular, Open Sans" letter-spacing="0.048em"><tspan x="0" y="0">First step</tspan></text>
        </g>
        <g id="Grupo_2297" data-name="Grupo 2297" transform="translate(542.3 72)">
          <text id="A_small_description_for_this_section-2" data-name="A small description for this section" transform="translate(138 703)" fill="#666" font-size="12" font-family="OpenSans-Light, Open Sans" font-weight="300" letter-spacing="0.048em"><tspan x="0" y="0">A small description for this section</tspan></text>
          <text id="Second_step" data-name="Second step" transform="translate(138 685)" fill="#666" font-size="16" font-family="OpenSans-Regular, Open Sans" letter-spacing="0.048em"><tspan x="0" y="0">Second step</tspan></text>
        </g>
        <g id="Grupo_2299" data-name="Grupo 2299" transform="translate(1084.3 72)">
          <text id="A_small_description" data-name="A small description" transform="translate(138 703)" fill="#666" font-size="12" font-family="OpenSans-Light, Open Sans" font-weight="300" letter-spacing="0.048em"><tspan x="0" y="0">A small description</tspan></text>
          <text id="Thrid_step" data-name="Thrid step" transform="translate(138 685)" fill="#666" font-size="16" font-family="OpenSans-Regular, Open Sans" letter-spacing="0.048em"><tspan x="0" y="0">Thrid step</tspan></text>
        </g>
      </g>
      <g id="Grupo_2410" data-name="Grupo 2410" transform="translate(-16584 5670)">
        <line id="Línea_1086-2" data-name="Línea 1086" x2="240" transform="translate(369.1 751.5)" fill="none" stroke="#d9d9d9" stroke-linecap="round" stroke-width="2"/>
        <line id="Línea_1087-2" data-name="Línea 1087" x2="240" transform="translate(911.1 751.5)" fill="none" stroke="#d9d9d9" stroke-linecap="round" stroke-width="2"/>
        <g id="Grupo_2294-2" data-name="Grupo 2294" transform="translate(-3.568 -2465.568)">
          <g id="Elipse_302-4" data-name="Elipse 302" transform="translate(95.568 3198.568)" fill="none" stroke="#000" stroke-width="2">
            <ellipse cx="18.064" cy="18.064" rx="18.064" ry="18.064" stroke="none"/>
            <ellipse cx="18.064" cy="18.064" rx="17.064" ry="17.064" fill="none"/>
          </g>
        </g>
        <text id="_1-2" data-name="1" transform="translate(106 757)" font-size="16" font-family="OpenSans-Bold, Open Sans" font-weight="700" letter-spacing="0.048em"><tspan x="0" y="0">1</tspan></text>
        <g id="Grupo_2296-2" data-name="Grupo 2296" transform="translate(543.1 -75)">
          <circle id="Elipse_410-7" data-name="Elipse 410" cx="17.632" cy="17.632" r="17.632" transform="translate(91.9 809)" fill="#ffed00"/>
          <text id="_2-2" data-name="2" transform="translate(104.9 833)" font-size="16" font-family="OpenSans-Regular, Open Sans" letter-spacing="0.048em"><tspan x="0" y="0">2</tspan></text>
        </g>
        <g id="Grupo_2298-2" data-name="Grupo 2298" transform="translate(1085.1 -75)">
          <circle id="Elipse_410-8" data-name="Elipse 410" cx="17.632" cy="17.632" r="17.632" transform="translate(91.9 809)" fill="#d9d9d9"/>
          <text id="_3-2" data-name="3" transform="translate(104.9 833)" fill="#666" font-size="16" font-family="OpenSans-Regular, Open Sans" letter-spacing="0.048em"><tspan x="0" y="0">3</tspan></text>
        </g>
        <g id="Grupo_2295-2" data-name="Grupo 2295" transform="translate(0 72)">
          <text id="A_small_description_for_this_section-3" data-name="A small description for this section" transform="translate(138 703)" font-size="12" font-family="OpenSans-Light, Open Sans" font-weight="300" letter-spacing="0.048em"><tspan x="0" y="0">A small description for this section</tspan></text>
          <text id="First_step-2" data-name="First step" transform="translate(138 685)" font-size="16" font-family="OpenSans-Regular, Open Sans" letter-spacing="0.048em"><tspan x="0" y="0">First step</tspan></text>
        </g>
        <g id="Grupo_2297-2" data-name="Grupo 2297" transform="translate(542.3 72)">
          <text id="A_small_description_for_this_section-4" data-name="A small description for this section" transform="translate(138 703)" font-size="12" font-family="OpenSans-Light, Open Sans" font-weight="300" letter-spacing="0.048em"><tspan x="0" y="0">A small description for this section</tspan></text>
          <text id="Second_step-2" data-name="Second step" transform="translate(138 685)" font-size="16" font-family="OpenSans-Regular, Open Sans" letter-spacing="0.048em"><tspan x="0" y="0">Second step</tspan></text>
        </g>
        <g id="Grupo_2299-2" data-name="Grupo 2299" transform="translate(1084.3 72)">
          <text id="A_small_description-2" data-name="A small description" transform="translate(138 703)" fill="#666" font-size="12" font-family="OpenSans-Light, Open Sans" font-weight="300" letter-spacing="0.048em"><tspan x="0" y="0">A small description</tspan></text>
          <text id="Thrid_step-2" data-name="Thrid step" transform="translate(138 685)" fill="#666" font-size="16" font-family="OpenSans-Regular, Open Sans" letter-spacing="0.048em"><tspan x="0" y="0">Thrid step</tspan></text>
        </g>
      </g>
      <g id="Grupo_2411" data-name="Grupo 2411" transform="translate(-16548 4807)">
        <rect id="Rectángulo_1596" data-name="Rectángulo 1596" width="127" height="34" rx="17" transform="translate(445 1757)" fill="#d9d9d9"/>
        <line id="Línea_1083-3" data-name="Línea 1083" x2="240" transform="translate(193.1 1774.5)" fill="none" stroke="#d9d9d9" stroke-linecap="round" stroke-width="2"/>
        <line id="Línea_1085-3" data-name="Línea 1085" x2="240" transform="translate(584.1 1774.5)" fill="none" stroke="#d9d9d9" stroke-linecap="round" stroke-width="2"/>
        <g id="Grupo_2363" data-name="Grupo 2363" transform="translate(-10)">
          <g id="Rectángulo_1601" data-name="Rectángulo 1601" transform="translate(66 1757)" fill="none" stroke="#000" stroke-width="2">
            <rect width="127" height="34" rx="17" stroke="none"/>
            <rect x="1" y="1" width="125" height="32" rx="16" fill="none"/>
          </g>
          <g id="Grupo_2290" data-name="Grupo 2290" transform="translate(-49 1095)">
            <text id="First_step-3" data-name="First step" transform="translate(138 685)" font-size="16" font-family="OpenSans-Bold, Open Sans" font-weight="700" letter-spacing="0.048em"><tspan x="0" y="0">First step</tspan></text>
          </g>
        </g>
        <g id="Grupo_2291" data-name="Grupo 2291" transform="translate(321 1095)">
          <text id="Second_step-3" data-name="Second step" transform="translate(138 685)" font-size="16" font-family="OpenSans-Regular, Open Sans" letter-spacing="0.048em"><tspan x="0" y="0">Second step</tspan></text>
        </g>
        <g id="Grupo_2292" data-name="Grupo 2292" transform="translate(712.3 1095)">
          <text id="Thrid_step-3" data-name="Thrid step" transform="translate(138 685)" fill="#666" font-size="16" font-family="OpenSans-Regular, Open Sans" letter-spacing="0.048em"><tspan x="0" y="0">Thrid step</tspan></text>
        </g>
      </g>
    </g>
  </g>
</svg>
