<svg xmlns="http://www.w3.org/2000/svg" xmlns:xlink="http://www.w3.org/1999/xlink" width="274" height="150" viewBox="0 0 274 150">
  <defs>
    <clipPath id="clip-path">
      <rect id="Rectángulo_1567" data-name="Rectángulo 1567" width="274" height="150" transform="translate(-7984 12834)" fill="#fff"/>
    </clipPath>
  </defs>
  <g id="Enmascarar_grupo_62" data-name="Enmascarar grupo 62" transform="translate(7984 -12834)" clip-path="url(#clip-path)">
    <g id="Grupo_2165" data-name="Grupo 2165" transform="translate(-8345 12352)">
      <path id="Trazado_2425" data-name="Trazado 2425" d="M53,0a55.881,55.881,0,0,1,0,111.761" transform="translate(391.161 453.09)" fill="none" stroke="#ffed00" stroke-width="9"/>
      <text id="_Text_Overline_Selected_On_Surface_Medium_Emphasis_Left_" data-name="✱ / Text / Overline / Selected / On Surface / Medium Emphasis / Left " transform="translate(404 513)" font-size="12" font-family="OpenSans-Regular, Open Sans" letter-spacing="0.156em"><tspan x="0" y="0">LOADING...</tspan></text>
      <g id="Grupo_2086" data-name="Grupo 2086" transform="translate(-478)">
        <g id="Trazado_2423" data-name="Trazado 2423" transform="translate(1117 447)" fill="none">
          <path d="M61.608,0A61.608,61.608,0,1,1,0,61.608,61.608,61.608,0,0,1,61.608,0Z" stroke="none"/>
          <path d="M 61.60790252685547 8.999992370605469 C 32.59980010986328 8.999992370605469 9 32.59981536865234 9 61.60791397094727 C 9 90.61601257324219 32.59980010986328 114.2158126831055 61.60790252685547 114.2158126831055 C 90.61599731445313 114.2158126831055 114.2158050537109 90.61601257324219 114.2158050537109 61.60791397094727 C 114.2158050537109 32.59981536865234 90.61599731445313 8.999992370605469 61.60790252685547 8.999992370605469 M 61.60790252685547 -7.62939453125e-06 C 95.63300323486328 -7.62939453125e-06 123.2158050537109 27.58278656005859 123.2158050537109 61.60791397094727 C 123.2158050537109 95.63301086425781 95.63300323486328 123.2158126831055 61.60790252685547 123.2158126831055 C 27.58280181884766 123.2158126831055 0 95.63301086425781 0 61.60791397094727 C 0 27.58278656005859 27.58280181884766 -7.62939453125e-06 61.60790252685547 -7.62939453125e-06 Z" stroke="none" fill="#ffed00"/>
        </g>
        <text id="_Text_Overline_Selected_On_Surface_Medium_Emphasis_Left_2" data-name="✱ / Text / Overline / Selected / On Surface / Medium Emphasis / Left " transform="translate(1138 513)" font-size="12" font-family="OpenSans-Regular, Open Sans" letter-spacing="0.156em"><tspan x="0" y="0">LOADING...</tspan></text>
      </g>
    </g>
    <g id="Grupo_2166" data-name="Grupo 2166" transform="translate(-8034 12259)">
      <path id="Rectángulo_1499" data-name="Rectángulo 1499" d="M4.5,0H469a0,0,0,0,1,0,0V9a0,0,0,0,1,0,0H4.5A4.5,4.5,0,0,1,0,4.5v0A4.5,4.5,0,0,1,4.5,0Z" transform="translate(93 710)" fill="#ffed00"/>
      <path id="Rectángulo_1500" data-name="Rectángulo 1500" d="M4.5,0H85a0,0,0,0,1,0,0V9a0,0,0,0,1,0,0H4.5A4.5,4.5,0,0,1,0,4.5v0A4.5,4.5,0,0,1,4.5,0Z" transform="translate(93 752)" fill="#ffed00"/>
      <path id="Rectángulo_1503" data-name="Rectángulo 1503" d="M0,0H623.5A4.5,4.5,0,0,1,628,4.5v0A4.5,4.5,0,0,1,623.5,9H0A0,0,0,0,1,0,9V0A0,0,0,0,1,0,0Z" transform="translate(150 752)" fill="#fff" opacity="0.3"/>
      <path id="Rectángulo_1506" data-name="Rectángulo 1506" d="M0,0H211.5A4.5,4.5,0,0,1,216,4.5v0A4.5,4.5,0,0,1,211.5,9H0A0,0,0,0,1,0,9V0A0,0,0,0,1,0,0Z" transform="translate(562 710)" fill="#fff" opacity="0.3"/>
      <text id="_Text_Overline_Selected_On_Surface_Medium_Emphasis_Left_3" data-name="✱ / Text / Overline / Selected / On Surface / Medium Emphasis / Left " transform="translate(93 701)" font-size="12" font-family="OpenSans-Regular, Open Sans" letter-spacing="0.156em"><tspan x="0" y="0">LOADING...</tspan></text>
      <text id="_Text_Overline_Selected_On_Surface_Medium_Emphasis_Left_4" data-name="✱ / Text / Overline / Selected / On Surface / Medium Emphasis / Left " transform="translate(93 743)" font-size="12" font-family="OpenSans-Regular, Open Sans" letter-spacing="0.156em"><tspan x="0" y="0">LOADING...</tspan></text>
    </g>
  </g>
</svg>
