<svg xmlns="http://www.w3.org/2000/svg" width="233" height="74" viewBox="0 0 233 74">
  <g id="Group_352" data-name="Group 352" transform="translate(-738.5 -827.4)">
    <g id="Body1_Open_Sans_Regular" data-name="Body1 / Open Sans / Regular" transform="translate(739 850.4)">
      <text id="_Text_Body_1_Selected_On_Surface_Medium_Emphasis_Left_" data-name="✱ / Text / Body 1 / Selected / On Surface / Medium Emphasis / Left " transform="translate(0 17)" font-size="16" font-family="OpenSans-Regular, Open Sans" letter-spacing="0.031em"><tspan x="0" y="0">Input text</tspan></text>
    </g>
    <path id="Path_2045" data-name="Path 2045" d="M0,0H233" transform="translate(738.5 878.4)" fill="#ffed00" stroke="#ffed00" stroke-width="2"/>
    <text id="_Text_Body_1_Selected_On_Surface_Medium_Emphasis_Left_2" data-name="✱ / Text / Body 1 / Selected / On Surface / Medium Emphasis / Left " transform="translate(739 840.4)" font-size="12" font-family="OpenSans-Regular, Open Sans" letter-spacing="0.031em"><tspan x="0" y="0">Email Address</tspan></text>
    <text id="_Text_Body_1_Selected_On_Surface_Medium_Emphasis_Left_3" data-name="✱ / Text / Body 1 / Selected / On Surface / Medium Emphasis / Left " transform="translate(739 897.4)" font-size="12" font-family="OpenSans-Regular, Open Sans" letter-spacing="0.031em"><tspan x="0" y="0">Assistive text</tspan></text>
    <g id="Icon_Visibility_Filled" data-name="Icon / Visibility / Filled" transform="translate(942.002 846.319)">
      <path id="Path_988" data-name="Path 988" d="M21.261-39A8.883,8.883,0,0,0,13-33.327a8.883,8.883,0,0,0,8.261,5.673,8.883,8.883,0,0,0,8.261-5.673A8.883,8.883,0,0,0,21.261-39Zm0,9.454a3.77,3.77,0,0,1-3.755-3.782,3.77,3.77,0,0,1,3.755-3.782,3.77,3.77,0,0,1,3.755,3.782A3.77,3.77,0,0,1,21.261-29.546Zm0-6.051a2.258,2.258,0,0,0-2.253,2.269,2.258,2.258,0,0,0,2.253,2.269,2.258,2.258,0,0,0,2.253-2.269A2.258,2.258,0,0,0,21.261-35.6Z" transform="translate(-12.261 42.697)"/>
      <rect id="Box" width="17.746" height="17.746" transform="translate(0 0)" fill="none"/>
    </g>
  </g>
</svg>
