<svg xmlns="http://www.w3.org/2000/svg" width="562" height="460" viewBox="0 0 562 460">
  <g id="Group_4092" data-name="Group 4092" transform="translate(-386 -2759)">
    <g id="Group_3683" data-name="Group 3683" transform="translate(386 2759)">
      <rect id="Rectangle_1842" data-name="Rectangle 1842" width="562" height="460" fill="#fafafa" opacity="0.521"/>
    </g>
    <path id="Path_2878" data-name="Path 2878" d="M0,0H500.69V261.759H0Z" transform="translate(416.83 2867.395)" fill="#fff"/>
    <rect id="Rectangle_1964" data-name="Rectangle 1964" width="501" height="18" transform="translate(416.48 2867.605)" fill="#6f2c91"/>
    <rect id="Rectangle_2011" data-name="Rectangle 2011" width="148" height="10" transform="translate(530.48 3004.605)" fill="#f2f2f2"/>
    <rect id="Rectangle_2012" data-name="Rectangle 2012" width="242" height="11" transform="translate(530.48 2987.605)" fill="#f2f2f2"/>
    <rect id="Rectangle_2013" data-name="Rectangle 2013" width="148" height="25" transform="translate(530.48 2947.605)" fill="#bfbfbf"/>
    <line id="Line_1406" data-name="Line 1406" x2="72" transform="translate(515 2915.333)" fill="none" stroke="#6f2c91" stroke-width="2"/>
    <rect id="Rectangle_2007" data-name="Rectangle 2007" width="43" height="12" transform="translate(529.48 2897.605)" fill="#d9d9d9"/>
    <rect id="Rectangle_2008" data-name="Rectangle 2008" width="43" height="12" transform="translate(600.48 2897.605)" fill="#d9d9d9"/>
    <rect id="Rectangle_2009" data-name="Rectangle 2009" width="43" height="12" transform="translate(672.48 2897.605)" fill="#d9d9d9"/>
    <rect id="Rectangle_2010" data-name="Rectangle 2010" width="42" height="12" transform="translate(744.48 2897.605)" fill="#d9d9d9"/>
    <g id="Rectangle_2024" data-name="Rectangle 2024" transform="translate(515.01 2892)" fill="none" stroke="#6f2c91" stroke-width="1">
      <rect width="72" height="23" stroke="none"/>
      <rect x="0.5" y="0.5" width="71" height="22" fill="none"/>
    </g>
    <line id="Line_1408" data-name="Line 1408" x1="501" transform="translate(416.5 2916.5)" fill="none" stroke="#d9d9d9" stroke-width="0.5"/>
  </g>
</svg>
