<svg xmlns="http://www.w3.org/2000/svg" width="562" height="277" viewBox="0 0 562 277">
  <g id="Group_4098" data-name="Group 4098" transform="translate(-388 -5589)">
    <path id="Path_2924" data-name="Path 2924" d="M0,0H562V277H0Z" transform="translate(388 5589)" fill="#fafafa" opacity="0.521"/>
    <path id="Path_1017" data-name="Path 1017" d="M0,0H562V6H0Z" transform="translate(388 5589)" fill="#97be35"/>
    <g id="check_circle-24px" transform="translate(396 5603)">
      <path id="Path_983" data-name="Path 983" d="M0,0H24V24H0Z" fill="none"/>
      <path id="Path_984" data-name="Path 984" d="M12,2A10,10,0,1,0,22,12,10,10,0,0,0,12,2ZM10,17,5,12l1.41-1.41L10,14.17l7.59-7.59L19,8Z" fill="#97be35"/>
    </g>
    <path id="Path_2919" data-name="Path 2919" d="M0,0H415.02V208.393H0Z" transform="translate(507.02 5657.607)" fill="#fff"/>
    <path id="Path_2920" data-name="Path 2920" d="M0,0H86V208.393H0Z" transform="translate(421.02 5657.607)" fill="#ccc"/>
    <rect id="Rectangle_2185" data-name="Rectangle 2185" width="501" height="18" transform="translate(421 5657.818)" fill="#6f2c91"/>
    <g id="Group_3929" data-name="Group 3929">
      <rect id="Rectangle_2189" data-name="Rectangle 2189" width="43" height="12" transform="translate(545.5 5687.818)" fill="#ccc"/>
      <rect id="Rectangle_2190" data-name="Rectangle 2190" width="43" height="12" transform="translate(617.5 5687.818)" fill="#ccc"/>
      <rect id="Rectangle_2191" data-name="Rectangle 2191" width="43" height="12" transform="translate(689.5 5687.818)" fill="#ccc"/>
      <rect id="Rectangle_2192" data-name="Rectangle 2192" width="43" height="12" transform="translate(761.5 5687.818)" fill="#ccc"/>
      <line id="Line_1549" data-name="Line 1549" x1="367" transform="translate(531 5706.545)" fill="none" stroke="#d9d9d9" stroke-width="0.5"/>
      <line id="Line_1548" data-name="Line 1548" x2="72" transform="translate(531 5705.545)" fill="none" stroke="#6f2c91" stroke-width="2"/>
    </g>
    <rect id="Rectangle_2199" data-name="Rectangle 2199" width="148" height="10" transform="translate(531 5777.5)" fill="#f2f2f2"/>
    <rect id="Rectangle_2203" data-name="Rectangle 2203" width="87" height="10" transform="translate(531 5809.5)" fill="#f2f2f2"/>
    <rect id="Rectangle_2202" data-name="Rectangle 2202" width="168" height="10" transform="translate(531 5793.5)" fill="#f2f2f2"/>
    <rect id="Rectangle_2200" data-name="Rectangle 2200" width="242" height="11" transform="translate(531 5760.5)" fill="#f2f2f2"/>
    <rect id="Rectangle_2201" data-name="Rectangle 2201" width="148" height="18" transform="translate(531 5730.5)" fill="#bfbfbf"/>
  </g>
</svg>
