<svg xmlns="http://www.w3.org/2000/svg" width="1148" height="495" viewBox="0 0 1148 495">
  <g id="Group_4148" data-name="Group 4148" transform="translate(-386 -10089)">
    <rect id="Rectangle_2211" data-name="Rectangle 2211" width="1148" height="495" transform="translate(386 10089)" fill="#fafafa" opacity="0.521"/>
    <g id="Tabs-Fixed-noIcon-48" transform="translate(702.5 10197)">
      <path id="Tabs-container" d="M0,0H528V48H0Z" fill="#fff"/>
      <line id="Divider" x1="528" transform="translate(0 48)" fill="none" stroke="#bfbfbf" stroke-width="1"/>
      <g id="Tab3">
        <rect id="Tab-container" width="176" height="48" transform="translate(352)" fill="none"/>
        <text id="Label" transform="translate(440 30.49)" fill="#5c5c5c" font-size="16" font-family="OpenSans-Semibold, Open Sans" font-weight="600" letter-spacing="0.089em"><tspan x="-23.007" y="0">Tab 3</tspan></text>
      </g>
      <g id="Tab2">
        <rect id="Tab-container-2" data-name="Tab-container" width="176" height="48" transform="translate(176)" fill="none"/>
        <text id="Label-2" data-name="Label" transform="translate(264.117 30)" fill="#5c5c5c" font-size="16" font-family="OpenSans-Semibold, Open Sans" font-weight="600" letter-spacing="0.089em"><tspan x="-23.007" y="0">Tab 2</tspan></text>
      </g>
      <g id="Tab1">
        <rect id="Active-indicator" width="176" height="2" transform="translate(0 46)" fill="#6f2c91"/>
        <rect id="Tab-container-3" data-name="Tab-container" width="176" height="48" fill="none"/>
        <text id="Label-3" data-name="Label" transform="translate(88 30)" fill="#6f2c91" font-size="16" font-family="OpenSans-Semibold, Open Sans" font-weight="600" letter-spacing="0.089em"><tspan x="-23.007" y="0">Tab 1</tspan></text>
      </g>
      <g id="Badge-default-24" transform="translate(133 12)">
        <rect id="Container" width="31" height="24" fill="none"/>
        <rect id="Background" width="31" height="20" rx="10" transform="translate(0 2)" fill="#d0011b"/>
        <text id="Label-4" data-name="Label" transform="translate(4 16.5)" fill="#fff" font-size="12" font-family="OpenSans-Semibold, Open Sans" font-weight="600" letter-spacing="0.089em"><tspan x="0" y="0">+99</tspan></text>
      </g>
      <circle id="Ellipse_453" data-name="Ellipse 453" cx="8" cy="8" r="8" transform="translate(324 16)" fill="#d0011b"/>
    </g>
    <g id="Tabs-Fixed-iconTop-72" transform="translate(702.5 10378)">
      <path id="Tabs-container-2" data-name="Tabs-container" d="M0,0H528V72H0Z" fill="#fff"/>
      <line id="Divider-2" data-name="Divider" x1="528" transform="translate(0 71.5)" fill="none" stroke="#bfbfbf" stroke-width="1"/>
      <g id="Tab3-2" data-name="Tab3">
        <rect id="Rectangle_1983" data-name="Rectangle 1983" width="176" height="72" transform="translate(352)" fill="none"/>
        <text id="Label-3-2" data-name="Label-3" transform="translate(440 57)" fill="#666" font-size="16" font-family="OpenSans-Semibold, Open Sans" font-weight="600" letter-spacing="0.089em"><tspan x="-23.007" y="0">Tab 3</tspan></text>
        <g id="queue_music-24px" transform="translate(428 8)">
          <path id="Path_2883" data-name="Path 2883" d="M0,0H24V24H0Z" fill="none"/>
          <path id="Path_2884" data-name="Path 2884" d="M15,6H3V8H15Zm0,4H3v2H15ZM3,16h8V14H3ZM17,6v8.18A3,3,0,1,0,19,17V8h3V6Z" fill="#666"/>
        </g>
        <g id="queue_music-24px-2" data-name="queue_music-24px" transform="translate(428 8)">
          <path id="Path_2883-2" data-name="Path 2883" d="M0,0H24V24H0Z" fill="none"/>
          <path id="Path_2884-2" data-name="Path 2884" d="M15,6H3V8H15Zm0,4H3v2H15ZM3,16h8V14H3ZM17,6v8.18A3,3,0,1,0,19,17V8h3V6Z" fill="#666"/>
        </g>
      </g>
      <g id="Tab2-2" data-name="Tab2">
        <rect id="Rectangle_1982" data-name="Rectangle 1982" width="176" height="72" transform="translate(176)" fill="none"/>
        <text id="Label-2-2" data-name="Label-2" transform="translate(264 57)" fill="#666" font-size="16" font-family="OpenSans-Semibold, Open Sans" font-weight="600" letter-spacing="0.089em"><tspan x="-23.007" y="0">Tab 2</tspan></text>
        <g id="turned_in-24px" transform="translate(252 8)">
          <path id="Path_2881" data-name="Path 2881" d="M0,0H24V24H0Z" fill="none"/>
          <path id="Path_2882" data-name="Path 2882" d="M17,3H7A2,2,0,0,0,5.01,5L5,21l7-3,7,3V5A2.006,2.006,0,0,0,17,3Z" fill="#666"/>
        </g>
      </g>
      <g id="Tab1-2" data-name="Tab1">
        <rect id="Tab-container-4" data-name="Tab-container" width="176" height="72" fill="none"/>
        <rect id="Active-indicator-2" data-name="Active-indicator" width="176" height="2" transform="translate(0 70)" fill="#6f2c91"/>
        <text id="Label-1" transform="translate(88 57)" fill="#6f2c91" font-size="16" font-family="OpenSans-Semibold, Open Sans" font-weight="600" letter-spacing="0.089em"><tspan x="-23.007" y="0">Tab 1</tspan></text>
        <g id="favorite-24px" transform="translate(76 8)">
          <path id="Path_2854" data-name="Path 2854" d="M0,0H24V24H0Z" fill="none"/>
          <path id="Path_2855" data-name="Path 2855" d="M12,21.35l-1.45-1.32C5.4,15.36,2,12.28,2,8.5A5.447,5.447,0,0,1,7.5,3,5.988,5.988,0,0,1,12,5.09,5.988,5.988,0,0,1,16.5,3,5.447,5.447,0,0,1,22,8.5c0,3.78-3.4,6.86-8.55,11.54Z" fill="#6f2c91"/>
        </g>
      </g>
      <g id="Badge-default-24-2" data-name="Badge-default-24" transform="translate(133 8)">
        <rect id="Container-2" data-name="Container" width="31" height="24" fill="none"/>
        <rect id="Background-2" data-name="Background" width="31" height="20" rx="10" transform="translate(0 2)" fill="#d0011b"/>
        <text id="Label-5" data-name="Label" transform="translate(4 16.5)" fill="#fff" font-size="12" font-family="OpenSans-Semibold, Open Sans" font-weight="600" letter-spacing="0.089em"><tspan x="0" y="0">+99</tspan></text>
      </g>
      <circle id="Ellipse_452" data-name="Ellipse 452" cx="8" cy="8" r="8" transform="translate(324 12)" fill="#d0011b"/>
    </g>
    <line id="Line_1553" data-name="Line 1553" y1="287.5" transform="translate(878.5 10484.5) rotate(180)" fill="none" stroke="red" stroke-width="0.3" stroke-dasharray="4"/>
    <line id="Line_1612" data-name="Line 1612" y1="287.5" transform="translate(1054.5 10484.5) rotate(180)" fill="none" stroke="red" stroke-width="0.3" stroke-dasharray="4"/>
    <line id="Line_1554" data-name="Line 1554" y1="287.5" transform="translate(866.5 10484.5) rotate(180)" fill="none" stroke="red" stroke-width="0.3" stroke-dasharray="4"/>
    <line id="Line_1611" data-name="Line 1611" y2="328" transform="translate(1042.5 10156.5)" fill="none" stroke="red" stroke-width="0.3" stroke-dasharray="4"/>
    <line id="Line_1613" data-name="Line 1613" y2="246" transform="translate(1026.5 10156)" fill="none" stroke="red" stroke-width="0.3" stroke-dasharray="4"/>
    <line id="Line_1555" data-name="Line 1555" y1="287.5" transform="translate(835.5 10484.5) rotate(180)" fill="none" stroke="red" stroke-width="0.3" stroke-dasharray="4"/>
    <line id="Line_1557" data-name="Line 1557" x1="274" transform="translate(604.5 10378)" fill="none" stroke="red" stroke-width="0.3" stroke-dasharray="4"/>
    <line id="Line_1568" data-name="Line 1568" x1="226" transform="translate(652.5 10197)" fill="none" stroke="red" stroke-width="0.3" stroke-dasharray="4"/>
    <line id="Line_1610" data-name="Line 1610" x1="285" transform="translate(1027.5 10378)" fill="none" stroke="red" stroke-width="0.3" stroke-dasharray="4"/>
    <line id="Line_1608" data-name="Line 1608" x1="226" transform="translate(652.5 10209)" fill="none" stroke="red" stroke-width="0.3" stroke-dasharray="4"/>
    <line id="Line_1609" data-name="Line 1609" x1="285" transform="translate(1027.5 10390)" fill="none" stroke="red" stroke-width="0.3" stroke-dasharray="4"/>
    <line id="Line_1558" data-name="Line 1558" x1="274" transform="translate(604.5 10386)" fill="none" stroke="red" stroke-width="0.3" stroke-dasharray="4"/>
    <line id="Line_1569" data-name="Line 1569" x1="285" transform="translate(1027.5 10213)" fill="none" stroke="red" stroke-width="0.3" stroke-dasharray="4"/>
    <line id="Line_1607" data-name="Line 1607" x1="285" transform="translate(1027.5 10197)" fill="none" stroke="red" stroke-width="0.3" stroke-dasharray="4"/>
    <line id="Line_1556" data-name="Line 1556" y1="287.5" transform="translate(823.5 10484.5) rotate(180)" fill="none" stroke="red" stroke-width="0.3" stroke-dasharray="4"/>
    <g id="Group_3931" data-name="Group 3931" transform="translate(881.554 10479.489) rotate(90)">
      <line id="Line_1260" data-name="Line 1260" y1="6" x2="6" transform="translate(-0.489)" fill="none" stroke="#d0011b" stroke-width="0.5"/>
      <line id="Line_1261" data-name="Line 1261" y1="5.511" x2="5.511" transform="translate(0 12.073)" fill="none" stroke="#d0011b" stroke-width="0.5"/>
      <line id="Line_1262" data-name="Line 1262" y2="12.686" transform="translate(3.062 2.449)" fill="none" stroke="#d0011b" stroke-width="0.5"/>
    </g>
    <g id="Group_4146" data-name="Group 4146" transform="translate(1057.554 10479.489) rotate(90)">
      <line id="Line_1260-2" data-name="Line 1260" y1="6" x2="6" transform="translate(-0.489)" fill="none" stroke="#d0011b" stroke-width="0.5"/>
      <line id="Line_1261-2" data-name="Line 1261" y1="5.511" x2="5.511" transform="translate(0 12.073)" fill="none" stroke="#d0011b" stroke-width="0.5"/>
      <line id="Line_1262-2" data-name="Line 1262" y2="12.686" transform="translate(3.062 2.449)" fill="none" stroke="#d0011b" stroke-width="0.5"/>
    </g>
    <g id="Group_3932" data-name="Group 3932" transform="translate(838.5 10479.489) rotate(90)">
      <line id="Line_1260-3" data-name="Line 1260" y1="6" x2="6" transform="translate(-0.489)" fill="none" stroke="#d0011b" stroke-width="0.5"/>
      <line id="Line_1261-3" data-name="Line 1261" y1="5.511" x2="5.511" transform="translate(0 12.073)" fill="none" stroke="#d0011b" stroke-width="0.5"/>
      <line id="Line_1262-3" data-name="Line 1262" y2="12.686" transform="translate(3.062 2.449)" fill="none" stroke="#d0011b" stroke-width="0.5"/>
    </g>
    <text id="_12px" data-name="12px" transform="translate(874 10515)" fill="#d0011b" font-size="14" font-family="OpenSans-Regular, Open Sans" letter-spacing="0.089em"><tspan x="-17.833" y="0">12px</tspan></text>
    <text id="_12px-2" data-name="12px" transform="translate(1050 10515)" fill="#d0011b" font-size="14" font-family="OpenSans-Regular, Open Sans" letter-spacing="0.089em"><tspan x="-17.833" y="0">12px</tspan></text>
    <text id="_12px-3" data-name="12px" transform="translate(829.708 10515)" fill="#d0011b" font-size="14" font-family="OpenSans-Regular, Open Sans" letter-spacing="0.089em"><tspan x="-17.833" y="0">12px</tspan></text>
    <text id="Center_aligned" data-name="Center aligned" transform="translate(510.5 10225.5)" fill="#0095ff" font-size="12" font-family="OpenSans-Regular, Open Sans" letter-spacing="0.089em"><tspan x="-47.661" y="0">Center aligned</tspan></text>
    <line id="Line_1541" data-name="Line 1541" x2="687" transform="translate(572 10221)" fill="none" stroke="#1682ff" stroke-width="1" stroke-dasharray="2"/>
    <g id="Group_3934" data-name="Group 3934" transform="translate(329 7714.578)">
      <line id="Line_1260-4" data-name="Line 1260" y1="4.5" x2="4.5" transform="translate(272.5 2660.5)" fill="none" stroke="#d0011b" stroke-width="0.5"/>
      <line id="Line_1261-4" data-name="Line 1261" y1="4.5" x2="4.5" transform="translate(272.5 2669.306)" fill="none" stroke="#d0011b" stroke-width="0.5"/>
      <line id="Line_1262-4" data-name="Line 1262" y2="9.306" transform="translate(275 2662.5)" fill="none" stroke="#d0011b" stroke-width="0.5"/>
    </g>
    <g id="Group_4006" data-name="Group 4006" transform="translate(377.75 7533.578)">
      <line id="Line_1260-5" data-name="Line 1260" y1="4.5" x2="4.5" transform="translate(272.5 2660.5)" fill="none" stroke="#d0011b" stroke-width="0.5"/>
      <line id="Line_1261-5" data-name="Line 1261" y1="4.5" x2="4.5" transform="translate(272.5 2673.432)" fill="none" stroke="#d0011b" stroke-width="0.5"/>
      <line id="Line_1262-5" data-name="Line 1262" y2="13.432" transform="translate(275 2662.5)" fill="none" stroke="#d0011b" stroke-width="0.5"/>
    </g>
    <g id="Group_4145" data-name="Group 4145" transform="translate(1037.75 7714.578)">
      <line id="Line_1260-6" data-name="Line 1260" y1="4.5" x2="4.5" transform="translate(272.5 2660.5)" fill="none" stroke="#d0011b" stroke-width="0.5"/>
      <line id="Line_1261-6" data-name="Line 1261" y1="4.5" x2="4.5" transform="translate(272.5 2673.432)" fill="none" stroke="#d0011b" stroke-width="0.5"/>
      <line id="Line_1262-6" data-name="Line 1262" y2="13.432" transform="translate(275 2662.5)" fill="none" stroke="#d0011b" stroke-width="0.5"/>
    </g>
    <g id="Group_4144" data-name="Group 4144" transform="translate(1037.75 7533.578)">
      <line id="Line_1260-7" data-name="Line 1260" y1="4.5" x2="4.5" transform="translate(272.5 2660.5)" fill="none" stroke="#d0011b" stroke-width="0.5"/>
      <line id="Line_1261-7" data-name="Line 1261" y1="4.5" x2="4.5" transform="translate(272.5 2676.833)" fill="none" stroke="#d0011b" stroke-width="0.5"/>
      <line id="Line_1262-7" data-name="Line 1262" y2="16.833" transform="translate(275 2662.5)" fill="none" stroke="#d0011b" stroke-width="0.5"/>
    </g>
    <g id="Group_4147" data-name="Group 4147" transform="translate(-1636.167 10430.75) rotate(-90)">
      <line id="Line_1260-8" data-name="Line 1260" y1="4.5" x2="4.5" transform="translate(272.5 2660.5)" fill="none" stroke="#d0011b" stroke-width="0.5"/>
      <line id="Line_1261-8" data-name="Line 1261" y1="4.5" x2="4.5" transform="translate(272.5 2676.833)" fill="none" stroke="#d0011b" stroke-width="0.5"/>
      <line id="Line_1262-8" data-name="Line 1262" y2="16.833" transform="translate(275 2662.5)" fill="none" stroke="#d0011b" stroke-width="0.5"/>
    </g>
    <text id="_8px" data-name="8px" transform="translate(558.5 10384.5)" fill="#d0011b" font-size="14" font-family="OpenSans-Regular, Open Sans" letter-spacing="0.089em"><tspan x="-13.207" y="0">8px</tspan></text>
    <text id="_12px-4" data-name="12px" transform="translate(620.25 10207.51)" fill="#d0011b" font-size="14" font-family="OpenSans-Regular, Open Sans" letter-spacing="0.089em"><tspan x="-17.833" y="0">12px</tspan></text>
    <text id="_12px-5" data-name="12px" transform="translate(1352.25 10388.51)" fill="#d0011b" font-size="14" font-family="OpenSans-Regular, Open Sans" letter-spacing="0.089em"><tspan x="-17.833" y="0">12px</tspan></text>
    <text id="_16px" data-name="16px" transform="translate(1354.25 10209.994)" fill="#d0011b" font-size="14" font-family="OpenSans-Regular, Open Sans" letter-spacing="0.089em"><tspan x="-17.833" y="0">16px</tspan></text>
    <text id="_16px-2" data-name="16px" transform="translate(1034.75 10141.75)" fill="#d0011b" font-size="14" font-family="OpenSans-Regular, Open Sans" letter-spacing="0.089em"><tspan x="-17.833" y="0">16px</tspan></text>
  </g>
</svg>
