<svg xmlns="http://www.w3.org/2000/svg" xmlns:xlink="http://www.w3.org/1999/xlink" width="274" height="150" viewBox="0 0 274 150">
  <defs>
    <clipPath id="clip-path">
      <rect id="Rectángulo_1708" data-name="Rectángulo 1708" width="274" height="150" transform="translate(2250 -8753)" fill="#fff"/>
    </clipPath>
  </defs>
  <g id="Enmascarar_grupo_65" data-name="Enmascarar grupo 65" transform="translate(-2250 8753)" clip-path="url(#clip-path)">
    <g id="Grupo_2586" data-name="Grupo 2586" transform="translate(1516 -23)">
      <g id="Grupo_2575" data-name="Grupo 2575" transform="translate(-7967 -3132.666)">
        <g id="Grupo_448" data-name="Grupo 448" transform="translate(8677 -5923)">
          <rect id="Rectángulo_759" data-name="Rectángulo 759" width="1148.5" height="839.412" fill="none"/>
        </g>
      </g>
      <g id="Grupo_2578" data-name="Grupo 2578" transform="translate(651 -9381)">
        <rect id="Rectángulo_1498" data-name="Rectángulo 1498" width="510" height="9" rx="4.5" transform="translate(93 668)" opacity="0.3"/>
        <path id="Rectángulo_1499" data-name="Rectángulo 1499" d="M4.5,0H421a0,0,0,0,1,0,0V9a0,0,0,0,1,0,0H4.5A4.5,4.5,0,0,1,0,4.5v0A4.5,4.5,0,0,1,4.5,0Z" transform="translate(84 794)" fill="#ffed00"/>
        <path id="Rectángulo_1504" data-name="Rectángulo 1504" d="M0,0H93.5A4.5,4.5,0,0,1,98,4.5v0A4.5,4.5,0,0,1,93.5,9H0A0,0,0,0,1,0,9V0A0,0,0,0,1,0,0Z" transform="translate(505 794)" opacity="0.3"/>
        <path id="Rectángulo_1500" data-name="Rectángulo 1500" d="M4.5,0H57a0,0,0,0,1,0,0V9a0,0,0,0,1,0,0H4.5A4.5,4.5,0,0,1,0,4.5v0A4.5,4.5,0,0,1,4.5,0Z" transform="translate(93 710)" fill="#ffed00"/>
        <path id="Rectángulo_1503" data-name="Rectángulo 1503" d="M0,0H448.5A4.5,4.5,0,0,1,453,4.5v0A4.5,4.5,0,0,1,448.5,9H0A0,0,0,0,1,0,9V0A0,0,0,0,1,0,0Z" transform="translate(150 710)" opacity="0.3"/>
        <path id="Rectángulo_1501" data-name="Rectángulo 1501" d="M4.5,0H363a0,0,0,0,1,0,0V9a0,0,0,0,1,0,0H4.5A4.5,4.5,0,0,1,0,4.5v0A4.5,4.5,0,0,1,4.5,0Z" transform="translate(93 752)" fill="#ffed00"/>
        <path id="Rectángulo_1502" data-name="Rectángulo 1502" d="M0,0H142.5A4.5,4.5,0,0,1,147,4.5v0A4.5,4.5,0,0,1,142.5,9H0A0,0,0,0,1,0,9V0A0,0,0,0,1,0,0Z" transform="translate(456 752)" opacity="0.3"/>
        <text id="_Text_Overline_Selected_On_Surface_Medium_Emphasis_Left_" data-name="✱ / Text / Overline / Selected / On Surface / Medium Emphasis / Left " transform="translate(93 659)" font-size="12" font-family="OpenSans-Regular, Open Sans" letter-spacing="0.156em"><tspan x="0" y="0">LOADING...</tspan></text>
        <text id="_Text_Overline_Selected_On_Surface_Medium_Emphasis_Left_2" data-name="✱ / Text / Overline / Selected / On Surface / Medium Emphasis / Left " transform="translate(584 659)" font-size="12" font-family="OpenSans-Regular, Open Sans" letter-spacing="0.156em"><tspan x="0" y="0">0%</tspan></text>
        <text id="_Text_Overline_Selected_On_Surface_Medium_Emphasis_Left_3" data-name="✱ / Text / Overline / Selected / On Surface / Medium Emphasis / Left " transform="translate(576 701)" font-size="12" font-family="OpenSans-Regular, Open Sans" letter-spacing="0.156em"><tspan x="0" y="0">15%</tspan></text>
        <text id="_Text_Overline_Selected_On_Surface_Medium_Emphasis_Left_4" data-name="✱ / Text / Overline / Selected / On Surface / Medium Emphasis / Left " transform="translate(576 743)" font-size="12" font-family="OpenSans-Regular, Open Sans" letter-spacing="0.156em"><tspan x="0" y="0">52%</tspan></text>
        <text id="_Text_Overline_Selected_On_Surface_Medium_Emphasis_Left_5" data-name="✱ / Text / Overline / Selected / On Surface / Medium Emphasis / Left " transform="translate(576 785)" font-size="12" font-family="OpenSans-Regular, Open Sans" letter-spacing="0.156em"><tspan x="0" y="0">80%</tspan></text>
        <text id="_Text_Overline_Selected_On_Surface_Medium_Emphasis_Left_6" data-name="✱ / Text / Overline / Selected / On Surface / Medium Emphasis / Left " transform="translate(93 701)" font-size="12" font-family="OpenSans-Regular, Open Sans" letter-spacing="0.156em"><tspan x="0" y="0">LOADING...</tspan></text>
        <text id="_Text_Overline_Selected_On_Surface_Medium_Emphasis_Left_7" data-name="✱ / Text / Overline / Selected / On Surface / Medium Emphasis / Left " transform="translate(93 743)" font-size="12" font-family="OpenSans-Regular, Open Sans" letter-spacing="0.156em"><tspan x="0" y="0">LOADING...</tspan></text>
        <text id="_Text_Overline_Selected_On_Surface_Medium_Emphasis_Left_8" data-name="✱ / Text / Overline / Selected / On Surface / Medium Emphasis / Left " transform="translate(93 785)" font-size="12" font-family="OpenSans-Regular, Open Sans" letter-spacing="0.156em"><tspan x="0" y="0">LOADING...</tspan></text>
      </g>
      <g id="Grupo_2579" data-name="Grupo 2579" transform="translate(1211 -9381)">
        <rect id="Rectángulo_1498-2" data-name="Rectángulo 1498" width="529" height="9" rx="4.5" transform="translate(93 668)" opacity="0.3"/>
        <path id="Rectángulo_1499-2" data-name="Rectángulo 1499" d="M4.5,0H373a0,0,0,0,1,0,0V9a0,0,0,0,1,0,0H4.5A4.5,4.5,0,0,1,0,4.5v0A4.5,4.5,0,0,1,4.5,0Z" transform="translate(93 710)" fill="#ffed00"/>
        <path id="Rectángulo_1504-2" data-name="Rectángulo 1504" d="M0,0H151.5A4.5,4.5,0,0,1,156,4.5v0A4.5,4.5,0,0,1,151.5,9H0A0,0,0,0,1,0,9V0A0,0,0,0,1,0,0Z" transform="translate(466 710)" opacity="0.3"/>
        <path id="Rectángulo_1500-2" data-name="Rectángulo 1500" d="M4.5,0H57a0,0,0,0,1,0,0V9a0,0,0,0,1,0,0H4.5A4.5,4.5,0,0,1,0,4.5v0A4.5,4.5,0,0,1,4.5,0Z" transform="translate(93 752)" fill="#ffed00"/>
        <path id="Rectángulo_1503-2" data-name="Rectángulo 1503" d="M0,0H467.5A4.5,4.5,0,0,1,472,4.5v0A4.5,4.5,0,0,1,467.5,9H0A0,0,0,0,1,0,9V0A0,0,0,0,1,0,0Z" transform="translate(150 752)" opacity="0.3"/>
        <path id="Rectángulo_1501-2" data-name="Rectángulo 1501" d="M4.5,0H333a0,0,0,0,1,0,0V9a0,0,0,0,1,0,0H4.5A4.5,4.5,0,0,1,0,4.5v0A4.5,4.5,0,0,1,4.5,0Z" transform="translate(93 794)" fill="#ffed00"/>
        <path id="Rectángulo_1502-2" data-name="Rectángulo 1502" d="M0,0H191.5A4.5,4.5,0,0,1,196,4.5v0A4.5,4.5,0,0,1,191.5,9H0A0,0,0,0,1,0,9V0A0,0,0,0,1,0,0Z" transform="translate(426 794)" opacity="0.3"/>
        <text id="_Text_Overline_Selected_On_Surface_Medium_Emphasis_Left_9" data-name="✱ / Text / Overline / Selected / On Surface / Medium Emphasis / Left " transform="translate(93 659)" font-size="12" font-family="OpenSans-Regular, Open Sans" letter-spacing="0.156em"><tspan x="0" y="0">LOADING...</tspan></text>
        <text id="_Text_Overline_Selected_On_Surface_Medium_Emphasis_Left_10" data-name="✱ / Text / Overline / Selected / On Surface / Medium Emphasis / Left " transform="translate(93 701)" font-size="12" font-family="OpenSans-Regular, Open Sans" letter-spacing="0.156em"><tspan x="0" y="0">LOADING...</tspan></text>
        <text id="_Text_Overline_Selected_On_Surface_Medium_Emphasis_Left_11" data-name="✱ / Text / Overline / Selected / On Surface / Medium Emphasis / Left " transform="translate(93 743)" font-size="12" font-family="OpenSans-Regular, Open Sans" letter-spacing="0.156em"><tspan x="0" y="0">LOADING...</tspan></text>
        <text id="_Text_Overline_Selected_On_Surface_Medium_Emphasis_Left_12" data-name="✱ / Text / Overline / Selected / On Surface / Medium Emphasis / Left " transform="translate(93 785)" font-size="12" font-family="OpenSans-Regular, Open Sans" letter-spacing="0.156em"><tspan x="0" y="0">LOADING...</tspan></text>
      </g>
      <rect id="Rectángulo_1706" data-name="Rectángulo 1706" width="1149" height="237" transform="translate(710 -9005)" fill="rgba(0,0,0,0.7)"/>
      <g id="Grupo_2576" data-name="Grupo 2576" transform="translate(642 -9397)">
        <rect id="Rectángulo_1498-3" data-name="Rectángulo 1498" width="498" height="9" rx="4.5" transform="translate(93 454)" fill="#fff" opacity="0.3"/>
        <path id="Rectángulo_1499-3" data-name="Rectángulo 1499" d="M4.5,0H444a0,0,0,0,1,0,0V9a0,0,0,0,1,0,0H4.5A4.5,4.5,0,0,1,0,4.5v0A4.5,4.5,0,0,1,4.5,0Z" transform="translate(93 580)" fill="#ffed00"/>
        <path id="Rectángulo_1504-3" data-name="Rectángulo 1504" d="M0,0H151.5A4.5,4.5,0,0,1,156,4.5v0A4.5,4.5,0,0,1,151.5,9H0A0,0,0,0,1,0,9V0A0,0,0,0,1,0,0Z" transform="translate(435 580)" fill="#fff" opacity="0.3"/>
        <path id="Rectángulo_1500-3" data-name="Rectángulo 1500" d="M4.5,0H57a0,0,0,0,1,0,0V9a0,0,0,0,1,0,0H4.5A4.5,4.5,0,0,1,0,4.5v0A4.5,4.5,0,0,1,4.5,0Z" transform="translate(93 496)" fill="#ffed00"/>
        <path id="Rectángulo_1503-3" data-name="Rectángulo 1503" d="M0,0H436.5A4.5,4.5,0,0,1,441,4.5v0A4.5,4.5,0,0,1,436.5,9H0A0,0,0,0,1,0,9V0A0,0,0,0,1,0,0Z" transform="translate(150 496)" fill="#fff" opacity="0.3"/>
        <path id="Rectángulo_1501-3" data-name="Rectángulo 1501" d="M4.5,0H363a0,0,0,0,1,0,0V9a0,0,0,0,1,0,0H4.5A4.5,4.5,0,0,1,0,4.5v0A4.5,4.5,0,0,1,4.5,0Z" transform="translate(93 538)" fill="#ffed00"/>
        <path id="Rectángulo_1502-3" data-name="Rectángulo 1502" d="M0,0H317.5A4.5,4.5,0,0,1,322,4.5v0A4.5,4.5,0,0,1,317.5,9H0A0,0,0,0,1,0,9V0A0,0,0,0,1,0,0Z" transform="translate(269 538)" fill="#fff" opacity="0.3"/>
        <text id="_Text_Overline_Selected_On_Surface_Medium_Emphasis_Left_13" data-name="✱ / Text / Overline / Selected / On Surface / Medium Emphasis / Left " transform="translate(93 445)" fill="#fff" font-size="12" font-family="OpenSans-Regular, Open Sans" letter-spacing="0.156em"><tspan x="0" y="0">LOADING...</tspan></text>
        <text id="_Text_Overline_Selected_On_Surface_Medium_Emphasis_Left_14" data-name="✱ / Text / Overline / Selected / On Surface / Medium Emphasis / Left " transform="translate(93 571)" fill="#fff" font-size="12" font-family="OpenSans-Regular, Open Sans" letter-spacing="0.156em"><tspan x="0" y="0">LOADING...</tspan></text>
        <text id="_Text_Overline_Selected_On_Surface_Medium_Emphasis_Left_15" data-name="✱ / Text / Overline / Selected / On Surface / Medium Emphasis / Left " transform="translate(93 487)" fill="#fff" font-size="12" font-family="OpenSans-Regular, Open Sans" letter-spacing="0.156em"><tspan x="0" y="0">LOADING...</tspan></text>
        <text id="_Text_Overline_Selected_On_Surface_Medium_Emphasis_Left_16" data-name="✱ / Text / Overline / Selected / On Surface / Medium Emphasis / Left " transform="translate(93 529)" fill="#fff" font-size="12" font-family="OpenSans-Regular, Open Sans" letter-spacing="0.156em"><tspan x="0" y="0">LOADING...</tspan></text>
        <text id="_Text_Overline_Selected_On_Surface_Medium_Emphasis_Left_17" data-name="✱ / Text / Overline / Selected / On Surface / Medium Emphasis / Left " transform="translate(572 445)" fill="#fff" font-size="12" font-family="OpenSans-Regular, Open Sans" letter-spacing="0.156em"><tspan x="0" y="0">0%</tspan></text>
        <text id="_Text_Overline_Selected_On_Surface_Medium_Emphasis_Left_18" data-name="✱ / Text / Overline / Selected / On Surface / Medium Emphasis / Left " transform="translate(564 487)" fill="#fff" font-size="12" font-family="OpenSans-Regular, Open Sans" letter-spacing="0.156em"><tspan x="0" y="0">15%</tspan></text>
        <text id="_Text_Overline_Selected_On_Surface_Medium_Emphasis_Left_19" data-name="✱ / Text / Overline / Selected / On Surface / Medium Emphasis / Left " transform="translate(564 529)" fill="#fff" font-size="12" font-family="OpenSans-Regular, Open Sans" letter-spacing="0.156em"><tspan x="0" y="0">52%</tspan></text>
        <text id="_Text_Overline_Selected_On_Surface_Medium_Emphasis_Left_20" data-name="✱ / Text / Overline / Selected / On Surface / Medium Emphasis / Left " transform="translate(564 571)" fill="#fff" font-size="12" font-family="OpenSans-Regular, Open Sans" letter-spacing="0.156em"><tspan x="0" y="0">80%</tspan></text>
      </g>
      <g id="Grupo_2577" data-name="Grupo 2577" transform="translate(1211 -9611)">
        <rect id="Rectángulo_1498-4" data-name="Rectángulo 1498" width="529" height="9" rx="4.5" transform="translate(93 668)" fill="#fff" opacity="0.3"/>
        <path id="Rectángulo_1499-4" data-name="Rectángulo 1499" d="M4.5,0H403a0,0,0,0,1,0,0V9a0,0,0,0,1,0,0H4.5A4.5,4.5,0,0,1,0,4.5v0A4.5,4.5,0,0,1,4.5,0Z" transform="translate(93 710)" fill="#ffed00"/>
        <path id="Rectángulo_1504-4" data-name="Rectángulo 1504" d="M0,0H151.5A4.5,4.5,0,0,1,156,4.5v0A4.5,4.5,0,0,1,151.5,9H0A0,0,0,0,1,0,9V0A0,0,0,0,1,0,0Z" transform="translate(466 710)" fill="#fff" opacity="0.3"/>
        <path id="Rectángulo_1500-4" data-name="Rectángulo 1500" d="M4.5,0H57a0,0,0,0,1,0,0V9a0,0,0,0,1,0,0H4.5A4.5,4.5,0,0,1,0,4.5v0A4.5,4.5,0,0,1,4.5,0Z" transform="translate(93 752)" fill="#ffed00"/>
        <path id="Rectángulo_1503-4" data-name="Rectángulo 1503" d="M0,0H467.5A4.5,4.5,0,0,1,472,4.5v0A4.5,4.5,0,0,1,467.5,9H0A0,0,0,0,1,0,9V0A0,0,0,0,1,0,0Z" transform="translate(150 752)" fill="#fff" opacity="0.3"/>
        <path id="Rectángulo_1501-4" data-name="Rectángulo 1501" d="M4.5,0H363a0,0,0,0,1,0,0V9a0,0,0,0,1,0,0H4.5A4.5,4.5,0,0,1,0,4.5v0A4.5,4.5,0,0,1,4.5,0Z" transform="translate(93 794)" fill="#ffed00"/>
        <path id="Rectángulo_1502-4" data-name="Rectángulo 1502" d="M0,0H317.5A4.5,4.5,0,0,1,322,4.5v0A4.5,4.5,0,0,1,317.5,9H0A0,0,0,0,1,0,9V0A0,0,0,0,1,0,0Z" transform="translate(300 794)" fill="#fff" opacity="0.3"/>
        <text id="_Text_Overline_Selected_On_Surface_Medium_Emphasis_Left_21" data-name="✱ / Text / Overline / Selected / On Surface / Medium Emphasis / Left " transform="translate(93 659)" fill="#fff" font-size="12" font-family="OpenSans-Regular, Open Sans" letter-spacing="0.156em"><tspan x="0" y="0">LOADING...</tspan></text>
        <text id="_Text_Overline_Selected_On_Surface_Medium_Emphasis_Left_22" data-name="✱ / Text / Overline / Selected / On Surface / Medium Emphasis / Left " transform="translate(93 701)" fill="#fff" font-size="12" font-family="OpenSans-Regular, Open Sans" letter-spacing="0.156em"><tspan x="0" y="0">LOADING...</tspan></text>
        <text id="_Text_Overline_Selected_On_Surface_Medium_Emphasis_Left_23" data-name="✱ / Text / Overline / Selected / On Surface / Medium Emphasis / Left " transform="translate(93 743)" fill="#fff" font-size="12" font-family="OpenSans-Regular, Open Sans" letter-spacing="0.156em"><tspan x="0" y="0">LOADING...</tspan></text>
        <text id="_Text_Overline_Selected_On_Surface_Medium_Emphasis_Left_24" data-name="✱ / Text / Overline / Selected / On Surface / Medium Emphasis / Left " transform="translate(93 785)" fill="#fff" font-size="12" font-family="OpenSans-Regular, Open Sans" letter-spacing="0.156em"><tspan x="0" y="0">LOADING...</tspan></text>
      </g>
      <rect id="Rectángulo_1707" data-name="Rectángulo 1707" width="1149" height="255" transform="translate(710 -8518)"/>
      <g id="Grupo_2580" data-name="Grupo 2580" transform="translate(642 -8902)">
        <rect id="Rectángulo_1498-5" data-name="Rectángulo 1498" width="498" height="9" rx="4.5" transform="translate(93 454)" fill="#fff" opacity="0.3"/>
        <path id="Rectángulo_1499-5" data-name="Rectángulo 1499" d="M4.5,0H444a0,0,0,0,1,0,0V9a0,0,0,0,1,0,0H4.5A4.5,4.5,0,0,1,0,4.5v0A4.5,4.5,0,0,1,4.5,0Z" transform="translate(93 580)" fill="#ffed00"/>
        <path id="Rectángulo_1504-5" data-name="Rectángulo 1504" d="M0,0H151.5A4.5,4.5,0,0,1,156,4.5v0A4.5,4.5,0,0,1,151.5,9H0A0,0,0,0,1,0,9V0A0,0,0,0,1,0,0Z" transform="translate(435 580)" fill="#fff" opacity="0.3"/>
        <path id="Rectángulo_1500-5" data-name="Rectángulo 1500" d="M4.5,0H57a0,0,0,0,1,0,0V9a0,0,0,0,1,0,0H4.5A4.5,4.5,0,0,1,0,4.5v0A4.5,4.5,0,0,1,4.5,0Z" transform="translate(93 496)" fill="#ffed00"/>
        <path id="Rectángulo_1503-5" data-name="Rectángulo 1503" d="M0,0H436.5A4.5,4.5,0,0,1,441,4.5v0A4.5,4.5,0,0,1,436.5,9H0A0,0,0,0,1,0,9V0A0,0,0,0,1,0,0Z" transform="translate(150 496)" fill="#fff" opacity="0.3"/>
        <path id="Rectángulo_1501-5" data-name="Rectángulo 1501" d="M4.5,0H363a0,0,0,0,1,0,0V9a0,0,0,0,1,0,0H4.5A4.5,4.5,0,0,1,0,4.5v0A4.5,4.5,0,0,1,4.5,0Z" transform="translate(93 538)" fill="#ffed00"/>
        <path id="Rectángulo_1502-5" data-name="Rectángulo 1502" d="M0,0H317.5A4.5,4.5,0,0,1,322,4.5v0A4.5,4.5,0,0,1,317.5,9H0A0,0,0,0,1,0,9V0A0,0,0,0,1,0,0Z" transform="translate(269 538)" fill="#fff" opacity="0.3"/>
        <text id="_Text_Overline_Selected_On_Surface_Medium_Emphasis_Left_25" data-name="✱ / Text / Overline / Selected / On Surface / Medium Emphasis / Left " transform="translate(93 445)" fill="#fff" font-size="12" font-family="OpenSans-Regular, Open Sans" letter-spacing="0.156em"><tspan x="0" y="0">LOADING...</tspan></text>
        <text id="_Text_Overline_Selected_On_Surface_Medium_Emphasis_Left_26" data-name="✱ / Text / Overline / Selected / On Surface / Medium Emphasis / Left " transform="translate(93 571)" fill="#fff" font-size="12" font-family="OpenSans-Regular, Open Sans" letter-spacing="0.156em"><tspan x="0" y="0">LOADING...</tspan></text>
        <text id="_Text_Overline_Selected_On_Surface_Medium_Emphasis_Left_27" data-name="✱ / Text / Overline / Selected / On Surface / Medium Emphasis / Left " transform="translate(93 487)" fill="#fff" font-size="12" font-family="OpenSans-Regular, Open Sans" letter-spacing="0.156em"><tspan x="0" y="0">LOADING...</tspan></text>
        <text id="_Text_Overline_Selected_On_Surface_Medium_Emphasis_Left_28" data-name="✱ / Text / Overline / Selected / On Surface / Medium Emphasis / Left " transform="translate(93 529)" fill="#fff" font-size="12" font-family="OpenSans-Regular, Open Sans" letter-spacing="0.156em"><tspan x="0" y="0">LOADING...</tspan></text>
        <text id="_Text_Overline_Selected_On_Surface_Medium_Emphasis_Left_29" data-name="✱ / Text / Overline / Selected / On Surface / Medium Emphasis / Left " transform="translate(572 445)" fill="#fff" font-size="12" font-family="OpenSans-Regular, Open Sans" letter-spacing="0.156em"><tspan x="0" y="0">0%</tspan></text>
        <text id="_Text_Overline_Selected_On_Surface_Medium_Emphasis_Left_30" data-name="✱ / Text / Overline / Selected / On Surface / Medium Emphasis / Left " transform="translate(564 487)" fill="#fff" font-size="12" font-family="OpenSans-Regular, Open Sans" letter-spacing="0.156em"><tspan x="0" y="0">15%</tspan></text>
        <text id="_Text_Overline_Selected_On_Surface_Medium_Emphasis_Left_31" data-name="✱ / Text / Overline / Selected / On Surface / Medium Emphasis / Left " transform="translate(564 529)" fill="#fff" font-size="12" font-family="OpenSans-Regular, Open Sans" letter-spacing="0.156em"><tspan x="0" y="0">52%</tspan></text>
        <text id="_Text_Overline_Selected_On_Surface_Medium_Emphasis_Left_32" data-name="✱ / Text / Overline / Selected / On Surface / Medium Emphasis / Left " transform="translate(564 571)" fill="#fff" font-size="12" font-family="OpenSans-Regular, Open Sans" letter-spacing="0.156em"><tspan x="0" y="0">80%</tspan></text>
      </g>
      <g id="Grupo_2581" data-name="Grupo 2581" transform="translate(1211 -9116)">
        <rect id="Rectángulo_1498-6" data-name="Rectángulo 1498" width="529" height="9" rx="4.5" transform="translate(93 668)" fill="#fff" opacity="0.3"/>
        <path id="Rectángulo_1499-6" data-name="Rectángulo 1499" d="M4.5,0H403a0,0,0,0,1,0,0V9a0,0,0,0,1,0,0H4.5A4.5,4.5,0,0,1,0,4.5v0A4.5,4.5,0,0,1,4.5,0Z" transform="translate(93 710)" fill="#ffed00"/>
        <path id="Rectángulo_1504-6" data-name="Rectángulo 1504" d="M0,0H151.5A4.5,4.5,0,0,1,156,4.5v0A4.5,4.5,0,0,1,151.5,9H0A0,0,0,0,1,0,9V0A0,0,0,0,1,0,0Z" transform="translate(466 710)" fill="#fff" opacity="0.3"/>
        <path id="Rectángulo_1500-6" data-name="Rectángulo 1500" d="M4.5,0H57a0,0,0,0,1,0,0V9a0,0,0,0,1,0,0H4.5A4.5,4.5,0,0,1,0,4.5v0A4.5,4.5,0,0,1,4.5,0Z" transform="translate(93 752)" fill="#ffed00"/>
        <path id="Rectángulo_1503-6" data-name="Rectángulo 1503" d="M0,0H467.5A4.5,4.5,0,0,1,472,4.5v0A4.5,4.5,0,0,1,467.5,9H0A0,0,0,0,1,0,9V0A0,0,0,0,1,0,0Z" transform="translate(150 752)" fill="#fff" opacity="0.3"/>
        <path id="Rectángulo_1501-6" data-name="Rectángulo 1501" d="M4.5,0H363a0,0,0,0,1,0,0V9a0,0,0,0,1,0,0H4.5A4.5,4.5,0,0,1,0,4.5v0A4.5,4.5,0,0,1,4.5,0Z" transform="translate(93 794)" fill="#ffed00"/>
        <path id="Rectángulo_1502-6" data-name="Rectángulo 1502" d="M0,0H317.5A4.5,4.5,0,0,1,322,4.5v0A4.5,4.5,0,0,1,317.5,9H0A0,0,0,0,1,0,9V0A0,0,0,0,1,0,0Z" transform="translate(300 794)" fill="#fff" opacity="0.3"/>
        <text id="_Text_Overline_Selected_On_Surface_Medium_Emphasis_Left_33" data-name="✱ / Text / Overline / Selected / On Surface / Medium Emphasis / Left " transform="translate(93 659)" fill="#fff" font-size="12" font-family="OpenSans-Regular, Open Sans" letter-spacing="0.156em"><tspan x="0" y="0">LOADING...</tspan></text>
        <text id="_Text_Overline_Selected_On_Surface_Medium_Emphasis_Left_34" data-name="✱ / Text / Overline / Selected / On Surface / Medium Emphasis / Left " transform="translate(93 701)" fill="#fff" font-size="12" font-family="OpenSans-Regular, Open Sans" letter-spacing="0.156em"><tspan x="0" y="0">LOADING...</tspan></text>
        <text id="_Text_Overline_Selected_On_Surface_Medium_Emphasis_Left_35" data-name="✱ / Text / Overline / Selected / On Surface / Medium Emphasis / Left " transform="translate(93 743)" fill="#fff" font-size="12" font-family="OpenSans-Regular, Open Sans" letter-spacing="0.156em"><tspan x="0" y="0">LOADING...</tspan></text>
        <text id="_Text_Overline_Selected_On_Surface_Medium_Emphasis_Left_36" data-name="✱ / Text / Overline / Selected / On Surface / Medium Emphasis / Left " transform="translate(93 785)" fill="#fff" font-size="12" font-family="OpenSans-Regular, Open Sans" letter-spacing="0.156em"><tspan x="0" y="0">LOADING...</tspan></text>
      </g>
    </g>
  </g>
</svg>
