<svg xmlns="http://www.w3.org/2000/svg" xmlns:xlink="http://www.w3.org/1999/xlink" width="1149" height="362" viewBox="0 0 1149 362">
  <defs>
    <filter id="Shadow_04dp" x="176" y="25" width="796" height="318" filterUnits="userSpaceOnUse">
      <feOffset dy="6" input="SourceAlpha"/>
      <feGaussianBlur stdDeviation="5" result="blur"/>
      <feFlood flood-opacity="0.141"/>
      <feComposite operator="in" in2="blur"/>
      <feComposite in="SourceGraphic"/>
    </filter>
    <filter id="Shadow_04dp-2" x="176" y="25" width="796" height="78" filterUnits="userSpaceOnUse">
      <feOffset dy="6" input="SourceAlpha"/>
      <feGaussianBlur stdDeviation="5" result="blur-2"/>
      <feFlood flood-opacity="0.141"/>
      <feComposite operator="in" in2="blur-2"/>
      <feComposite in="SourceGraphic"/>
    </filter>
  </defs>
  <g id="Group_4113" data-name="Group 4113" transform="translate(-386 -301)">
    <rect id="Rectangle_1981" data-name="Rectangle 1981" width="1149" height="362" rx="4" transform="translate(386 301)" fill="#fafafa"/>
    <g id="Group_3590" data-name="Group 3590" transform="translate(365.648 -6871)">
      <g id="Shadow_04dp-3" data-name="Shadow / 04dp" transform="translate(211 7206)">
        <g transform="matrix(1, 0, 0, 1, -190.65, -34)" filter="url(#Shadow_04dp)">
          <rect id="Shadow_04dp-4" data-name="Shadow / 04dp" width="766" height="288" rx="4" transform="translate(191 34)" fill="#fff"/>
        </g>
      </g>
      <g id="Shadow_04dp-5" data-name="Shadow / 04dp" transform="translate(211 7206)">
        <g transform="matrix(1, 0, 0, 1, -190.65, -34)" filter="url(#Shadow_04dp-2)">
          <g id="Shadow_04dp-6" data-name="Shadow / 04dp" transform="translate(191 34)" fill="none" stroke="#6f2c91" stroke-width="1">
            <path d="M4,0H762a4,4,0,0,1,4,4V48a0,0,0,0,1,0,0H0a0,0,0,0,1,0,0V4A4,4,0,0,1,4,0Z" stroke="none"/>
            <path d="M4,.5H762A3.5,3.5,0,0,1,765.5,4V47a.5.5,0,0,1-.5.5H1A.5.5,0,0,1,.5,47V4A3.5,3.5,0,0,1,4,.5Z" fill="none"/>
          </g>
        </g>
      </g>
      <text id="_Text_Body_1_Selected_On_Surface_Medium_Emphasis_Left_" data-name="✱ / Text / Body 1 / Selected / On Surface / Medium Emphasis / Left " transform="translate(243.352 7236)" fill="#666" font-size="16" font-family="OpenSans-Semibold, Open Sans" font-weight="600" letter-spacing="0.032em"><tspan x="0" y="0">Expanded accordion</tspan></text>
      <g id="expand_more-24px" transform="translate(947.762 7242) rotate(180)">
        <path id="Path_2872" data-name="Path 2872" d="M0,0H24V24H0Z" fill="none"/>
        <path id="Path_2873" data-name="Path 2873" d="M10.59,0,6,4.58,1.41,0,0,1.41l6,6,6-6Z" transform="translate(6 8.59)" fill="#6f2c91"/>
      </g>
      <text id="Content_header" data-name="Content header" transform="translate(242.969 7312)" fill="#707070" font-size="24" font-family="OpenSans-Semibold, Open Sans" font-weight="600"><tspan x="0" y="0">Content header</tspan></text>
      <text id="This_is_an_example_of_subtitle" data-name="This is an example of subtitle" transform="translate(243.129 7342)" fill="#707070" font-size="18" font-family="OpenSans-Regular, Open Sans"><tspan x="0" y="0">This is an example of subtitle</tspan></text>
      <text id="Lorem_ipsum_dolor_sit_amet_consectetur_adipiscing_elit._Aliquam_fermentum_tellus_vitae_tellus_rutrum_posuere._Vestibulum_ultrices_aliquam_risus_non_dignissim_quam_viverra_ac._Aenean_non_risus_tellus._" data-name="Lorem ipsum dolor sit amet, consectetur adipiscing elit. Aliquam fermentum tellus vitae tellus rutrum posuere. Vestibulum ultrices aliquam risus, non dignissim quam viverra ac. Aenean non risus tellus. " transform="translate(243.352 7371)" fill="#666" font-size="16" font-family="OpenSans, Open Sans"><tspan x="0" y="17">Lorem ipsum dolor sit amet, consectetur adipiscing elit. Aliquam fermentum tellus vitae tellus </tspan><tspan x="0" y="41">rutrum posuere. Vestibulum ultrices aliquam risus, non dignissim quam viverra ac. Aenean </tspan><tspan x="0" y="65">non risus tellus. </tspan></text>
    </g>
  </g>
</svg>
