<svg xmlns="http://www.w3.org/2000/svg" xmlns:xlink="http://www.w3.org/1999/xlink" width="562" height="322" viewBox="0 0 562 322">
  <defs>
    <filter id="Rectangle_1950" x="108" y="23" width="346" height="283" filterUnits="userSpaceOnUse">
      <feOffset dy="3" input="SourceAlpha"/>
      <feGaussianBlur stdDeviation="3" result="blur"/>
      <feFlood flood-opacity="0.161"/>
      <feComposite operator="in" in2="blur"/>
      <feComposite in="SourceGraphic"/>
    </filter>
    <filter id="Shadow_04dp" x="118" y="221" width="326" height="78" filterUnits="userSpaceOnUse">
      <feOffset dy="6" input="SourceAlpha"/>
      <feGaussianBlur stdDeviation="5" result="blur-2"/>
      <feFlood flood-opacity="0.141"/>
      <feComposite operator="in" in2="blur-2"/>
      <feComposite in="SourceGraphic"/>
    </filter>
  </defs>
  <g id="Group_4119" data-name="Group 4119" transform="translate(-388 -3313)">
    <g id="Group_3575" data-name="Group 3575" transform="translate(388 3313)">
      <rect id="Rectangle_1842" data-name="Rectangle 1842" width="562" height="322" fill="#fafafa"/>
    </g>
    <rect id="Rectangle_1926" data-name="Rectangle 1926" width="562" height="6" transform="translate(388 3313)" fill="#97be35"/>
    <g id="check_circle-24px" transform="translate(396 3327)">
      <path id="Path_983" data-name="Path 983" d="M0,0H24V24H0Z" fill="none"/>
      <path id="Path_984" data-name="Path 984" d="M12,2A10,10,0,1,0,22,12,10,10,0,0,0,12,2ZM10,17,5,12l1.41-1.41L10,14.17l7.59-7.59L19,8Z" fill="#97be35"/>
    </g>
    <g id="Group_3642" data-name="Group 3642" transform="translate(261.873 -3576)">
      <g transform="matrix(1, 0, 0, 1, 126.13, 6889)" filter="url(#Rectangle_1950)">
        <rect id="Rectangle_1950-2" data-name="Rectangle 1950" width="328" height="265" transform="translate(117 29)" fill="#fff"/>
      </g>
      <text id="Panel_header" data-name="Panel header" transform="translate(283.127 6976)" font-size="24" font-family="OpenSans, Open Sans"><tspan x="0" y="0">Panel header</tspan></text>
      <text id="Lorem_ipsum_dolor_sit_amet_consectetur_adipiscing_elit._Aliquam_fermentum_tellus_vitae_tellus_rutrum_posuere._" data-name="Lorem ipsum dolor sit amet, consectetur adipiscing elit. Aliquam fermentum tellus vitae tellus rutrum posuere. " transform="translate(283.127 7001)" fill="#666" font-size="16" font-family="OpenSans, Open Sans"><tspan x="0" y="17">Lorem ipsum dolor sit amet, </tspan><tspan x="0" y="41">consectetur adipiscing elit. </tspan><tspan x="0" y="65">Aliquam fermentum tellus vitae </tspan><tspan x="0" y="89">tellus rutrum posuere. </tspan></text>
      <g id="Group_3828" data-name="Group 3828" transform="translate(258.141 7119)">
        <g id="Shadow_04dp-2" data-name="Shadow / 04dp" transform="translate(0.784)">
          <g transform="matrix(1, 0, 0, 1, -132.8, -230)" filter="url(#Shadow_04dp)">
            <rect id="Shadow_04dp-3" data-name="Shadow / 04dp" width="296" height="48" rx="4" transform="translate(133 230)" fill="#fff"/>
          </g>
        </g>
        <text id="_Text_Body_1_Selected_On_Surface_Medium_Emphasis_Left_" data-name="✱ / Text / Body 1 / Selected / On Surface / Medium Emphasis / Left " transform="translate(24.986 30)" fill="#666" font-size="16" font-family="OpenSans, Open Sans" letter-spacing="0.031em"><tspan x="0" y="0">Collapsed accordion</tspan></text>
        <g id="expand_more-24px" transform="translate(256.89 12)">
          <path id="Path_2872" data-name="Path 2872" d="M0,0H24.1V24H0Z" fill="none"/>
          <path id="Path_2873" data-name="Path 2873" d="M16.633,8.59l-4.609,4.58L7.416,8.59,6,10l6.024,6,6.024-6Z" transform="translate(0.024)" fill="#6f2c91"/>
        </g>
      </g>
      <line id="Line_1479" data-name="Line 1479" y1="265" transform="translate(283.127 6918.5)" fill="none" stroke="red" stroke-width="0.3" stroke-dasharray="4"/>
    </g>
    <text id="_16px" data-name="16px" transform="translate(524 3417.5)" fill="#d0011b" font-size="12" font-family="OpenSans-Regular, Open Sans" letter-spacing="0.089em"><tspan x="-15.285" y="0">16px</tspan></text>
  </g>
</svg>
