<svg xmlns="http://www.w3.org/2000/svg" xmlns:xlink="http://www.w3.org/1999/xlink" width="562" height="355" viewBox="0 0 562 355">
  <defs>
    <filter id="Shadow_04dp" x="86" y="161" width="390" height="78" filterUnits="userSpaceOnUse">
      <feOffset dy="6" input="SourceAlpha"/>
      <feGaussianBlur stdDeviation="5" result="blur"/>
      <feFlood flood-opacity="0.141"/>
      <feComposite operator="in" in2="blur"/>
      <feComposite in="SourceGraphic"/>
    </filter>
  </defs>
  <g id="Group_4122" data-name="Group 4122" transform="translate(-386 -4526)">
    <g id="Group_3575" data-name="Group 3575" transform="translate(386 4526)">
      <rect id="Rectangle_1842" data-name="Rectangle 1842" width="562" height="355" fill="#fafafa" opacity="0.521"/>
    </g>
    <rect id="Rectangle_1926" data-name="Rectangle 1926" width="562" height="6" transform="translate(386 4526)" fill="#97be35"/>
    <g id="check_circle-24px" transform="translate(394 4540)">
      <path id="Path_983" data-name="Path 983" d="M0,0H24V24H0Z" fill="none"/>
      <path id="Path_984" data-name="Path 984" d="M12,2A10,10,0,1,0,22,12,10,10,0,0,0,12,2ZM10,17,5,12l1.41-1.41L10,14.17l7.59-7.59L19,8Z" fill="#97be35"/>
    </g>
    <g id="Group_3704" data-name="Group 3704" transform="translate(487.042 4696)">
      <g id="Shadow_04dp-2" data-name="Shadow / 04dp" transform="translate(-0.042)">
        <g transform="matrix(1, 0, 0, 1, -101, -170)" filter="url(#Shadow_04dp)">
          <rect id="Shadow_04dp-3" data-name="Shadow / 04dp" width="360" height="48" rx="4" transform="translate(101 170)" fill="#fff"/>
        </g>
      </g>
      <text id="_Text_Body_1_Selected_On_Surface_Medium_Emphasis_Left_" data-name="✱ / Text / Body 1 / Selected / On Surface / Medium Emphasis / Left " transform="translate(23.958 30)" fill="#666" font-size="16" font-family="OpenSans, Open Sans" letter-spacing="0.031em"><tspan x="0" y="0">Collapsed accordion</tspan></text>
      <g id="expand_more-24px" transform="translate(320.051 12)">
        <path id="Path_2872" data-name="Path 2872" d="M0,0H24V24H0Z" fill="none"/>
        <path id="Path_2873" data-name="Path 2873" d="M16.59,8.59,12,13.17,7.41,8.59,6,10l6,6,6-6Z" fill="#6f2c91"/>
      </g>
    </g>
    <rect id="Rectangle_1979" data-name="Rectangle 1979" width="334" height="27" transform="translate(500 4707)" fill="#005fcc" opacity="0.079"/>
    <g id="Group_3706" data-name="Group 3706" transform="translate(3686 4037.25) rotate(90)">
      <line id="Line_3" data-name="Line 3" x1="50.25" transform="translate(632.5 2917)" fill="none" stroke="#0067b3" stroke-width="1"/>
      <rect id="Rectangle_1980" data-name="Rectangle 1980" width="28" height="114" rx="4" transform="translate(608.75 2860)" fill="#0067b3"/>
      <text id="Trigger_area" data-name="Trigger area" transform="translate(628.5 2963.5) rotate(-90)" fill="#fff" font-size="16" font-family="OpenSans-Semibold, Open Sans" font-weight="600"><tspan x="0" y="0">Trigger area</tspan></text>
    </g>
  </g>
</svg>
