<svg xmlns="http://www.w3.org/2000/svg" xmlns:xlink="http://www.w3.org/1999/xlink" width="1148" height="366" viewBox="0 0 1148 366">
  <defs>
    <filter id="Shadow_04dp" x="268" y="30" width="612" height="318" filterUnits="userSpaceOnUse">
      <feOffset dy="6" input="SourceAlpha"/>
      <feGaussianBlur stdDeviation="5" result="blur"/>
      <feFlood flood-opacity="0.141"/>
      <feComposite operator="in" in2="blur"/>
      <feComposite in="SourceGraphic"/>
    </filter>
    <filter id="Shadow_04dp-2" x="268" y="30" width="612" height="78" filterUnits="userSpaceOnUse">
      <feOffset dy="6" input="SourceAlpha"/>
      <feGaussianBlur stdDeviation="5" result="blur-2"/>
      <feFlood flood-opacity="0.141"/>
      <feComposite operator="in" in2="blur-2"/>
      <feComposite in="SourceGraphic"/>
    </filter>
  </defs>
  <g id="Group_4124" data-name="Group 4124" transform="translate(-386 -5077)">
    <g id="Group_3669" data-name="Group 3669" transform="translate(-184 2658)">
      <rect id="Rectangle_1842" data-name="Rectangle 1842" width="1148" height="366" transform="translate(570 2419)" fill="#fafafa" opacity="0.521"/>
    </g>
    <g id="Accordion-group-48" transform="translate(669 5116)">
      <g id="Shadow_04dp-3" data-name="Shadow / 04dp">
        <g transform="matrix(1, 0, 0, 1, -283, -39)" filter="url(#Shadow_04dp)">
          <rect id="Shadow_04dp-4" data-name="Shadow / 04dp" width="582" height="288" rx="4" transform="translate(283 39)" fill="#fff"/>
        </g>
      </g>
      <g id="Shadow_04dp-5" data-name="Shadow / 04dp">
        <g transform="matrix(1, 0, 0, 1, -283, -39)" filter="url(#Shadow_04dp-2)">
          <g id="Shadow_04dp-6" data-name="Shadow / 04dp" transform="translate(283 39)" fill="none" stroke="#6f2c91" stroke-width="1">
            <path d="M4,0H578a4,4,0,0,1,4,4V48a0,0,0,0,1,0,0H0a0,0,0,0,1,0,0V4A4,4,0,0,1,4,0Z" stroke="none"/>
            <path d="M4,.5H578A3.5,3.5,0,0,1,581.5,4V47a.5.5,0,0,1-.5.5H1A.5.5,0,0,1,.5,47V4A3.5,3.5,0,0,1,4,.5Z" fill="none"/>
          </g>
        </g>
      </g>
      <text id="_Text_Body_1_Selected_On_Surface_Medium_Emphasis_Left_" data-name="✱ / Text / Body 1 / Selected / On Surface / Medium Emphasis / Left " transform="translate(32 30)" fill="#666" font-size="16" font-family="OpenSans-Semibold, Open Sans" font-weight="600" letter-spacing="0.032em"><tspan x="0" y="0">Expanded accordion</tspan></text>
      <g id="expand_more-24px" transform="translate(566 36) rotate(180)">
        <path id="Path_2872" data-name="Path 2872" d="M0,0H24V24H0Z" fill="none"/>
        <path id="Path_2873" data-name="Path 2873" d="M10.59,0,6,4.58,1.41,0,0,1.41l6,6,6-6Z" transform="translate(6 8.59)" fill="#6f2c91"/>
      </g>
      <text id="_Text_Body_1_Selected_On_Surface_Medium_Emphasis_Left_2" data-name="✱ / Text / Body 1 / Selected / On Surface / Medium Emphasis / Left " transform="translate(32 222)" fill="#666" font-size="16" font-family="OpenSans, Open Sans" letter-spacing="0.032em"><tspan x="0" y="0">Collapsed accordion</tspan></text>
      <text id="_Text_Body_1_Selected_On_Surface_Medium_Emphasis_Left_3" data-name="✱ / Text / Body 1 / Selected / On Surface / Medium Emphasis / Left " transform="translate(32 270)" fill="#666" font-size="16" font-family="OpenSans, Open Sans" letter-spacing="0.032em"><tspan x="0" y="0">Collapsed accordion</tspan></text>
      <g id="expand_more-24px-2" data-name="expand_more-24px" transform="translate(542 204)">
        <path id="Path_2872-2" data-name="Path 2872" d="M0,0H24V24H0Z" fill="none"/>
        <path id="Path_2873-2" data-name="Path 2873" d="M16.59,8.59,12,13.17,7.41,8.59,6,10l6,6,6-6Z" fill="#6f2c91"/>
      </g>
      <g id="expand_more-24px-3" data-name="expand_more-24px" transform="translate(542 252)">
        <path id="Path_2872-3" data-name="Path 2872" d="M0,0H24V24H0Z" fill="none"/>
        <path id="Path_2873-3" data-name="Path 2873" d="M16.59,8.59,12,13.17,7.41,8.59,6,10l6,6,6-6Z" fill="#6f2c91"/>
      </g>
      <text id="_Text_Body_1_Selected_On_Surface_Medium_Emphasis_Left_4" data-name="✱ / Text / Body 1 / Selected / On Surface / Medium Emphasis / Left " transform="translate(48 78)" fill="#666" font-size="16" font-family="OpenSans-Regular, Open Sans" letter-spacing="0.031em"><tspan x="0" y="0">Content or </tspan><tspan y="0" fill="#0095ff" text-decoration="underline">link</tspan></text>
      <text id="_Text_Body_1_Selected_On_Surface_Medium_Emphasis_Left_5" data-name="✱ / Text / Body 1 / Selected / On Surface / Medium Emphasis / Left " transform="translate(48 126)" fill="#666" font-size="16" font-family="OpenSans-Regular, Open Sans" letter-spacing="0.031em"><tspan x="0" y="0">Entry</tspan></text>
      <text id="_Text_Body_1_Selected_On_Surface_Medium_Emphasis_Left_6" data-name="✱ / Text / Body 1 / Selected / On Surface / Medium Emphasis / Left " transform="translate(48 174)" fill="#666" font-size="16" font-family="OpenSans-Regular, Open Sans" letter-spacing="0.031em"><tspan x="0" y="0">Entry</tspan></text>
      <line id="Line_1316" data-name="Line 1316" x2="582" transform="translate(0 96)" fill="none" stroke="#d0d0d0" stroke-width="0.5"/>
      <line id="Line_1317" data-name="Line 1317" x2="582" transform="translate(0 144)" fill="none" stroke="#d0d0d0" stroke-width="0.5"/>
      <line id="Line_1318" data-name="Line 1318" x2="582" transform="translate(0 192)" fill="none" stroke="#d0d0d0" stroke-width="0.5"/>
      <line id="Line_1319" data-name="Line 1319" x2="582" transform="translate(0 240)" fill="none" stroke="#d0d0d0" stroke-width="0.5"/>
      <line id="Line_1470" data-name="Line 1470" x2="582" transform="translate(0 288)" fill="none" stroke="#d0d0d0" stroke-width="0.5"/>
      <line id="Line_1471" data-name="Line 1471" x2="582" fill="none" stroke="#d0d0d0" stroke-width="0.5"/>
    </g>
  </g>
</svg>
