<svg xmlns="http://www.w3.org/2000/svg" xmlns:xlink="http://www.w3.org/1999/xlink" width="1148" height="355" viewBox="0 0 1148 355">
  <defs>
    <filter id="Shadow_04dp" x="367" y="32" width="390" height="318" filterUnits="userSpaceOnUse">
      <feOffset dy="6" input="SourceAlpha"/>
      <feGaussianBlur stdDeviation="5" result="blur"/>
      <feFlood flood-opacity="0.141"/>
      <feComposite operator="in" in2="blur"/>
      <feComposite in="SourceGraphic"/>
    </filter>
    <filter id="Shadow_04dp-2" x="367" y="32" width="390" height="78" filterUnits="userSpaceOnUse">
      <feOffset dy="6" input="SourceAlpha"/>
      <feGaussianBlur stdDeviation="5" result="blur-2"/>
      <feFlood flood-opacity="0.141"/>
      <feComposite operator="in" in2="blur-2"/>
      <feComposite in="SourceGraphic"/>
    </filter>
    <filter id="Shadow_04dp-3" x="367" y="176" width="390" height="78" filterUnits="userSpaceOnUse">
      <feOffset dy="6" input="SourceAlpha"/>
      <feGaussianBlur stdDeviation="5" result="blur-3"/>
      <feFlood flood-opacity="0.141"/>
      <feComposite operator="in" in2="blur-3"/>
      <feComposite in="SourceGraphic"/>
    </filter>
  </defs>
  <g id="Group_4125" data-name="Group 4125" transform="translate(-386 -5512)">
    <g id="Group_3680" data-name="Group 3680" transform="translate(296 250)">
      <circle id="Ellipse_432" data-name="Ellipse 432" cx="9" cy="9" r="9" transform="translate(685 5279)" fill="#fff"/>
      <g id="Group_3829" data-name="Group 3829" transform="translate(90 5262)">
        <g id="Group_3575" data-name="Group 3575">
          <rect id="Rectangle_1842" data-name="Rectangle 1842" width="1148" height="355" fill="#fafafa" opacity="0.521"/>
        </g>
        <rect id="Rectangle_1951" data-name="Rectangle 1951" width="1147.255" height="6" transform="translate(0.255)" fill="#d0011b"/>
        <g id="cancel-24px" transform="translate(8.255 14)">
          <path id="Path_985" data-name="Path 985" d="M0,0H24V24H0Z" fill="none"/>
          <path id="Path_986" data-name="Path 986" d="M12,2A10,10,0,1,0,22,12,9.991,9.991,0,0,0,12,2Zm5,13.59L15.59,17,12,13.41,8.41,17,7,15.59,10.59,12,7,8.41,8.41,7,12,10.59,15.59,7,17,8.41,13.41,12l1.013,1.013Z" fill="#d0011b"/>
        </g>
      </g>
    </g>
    <g id="Group_3681" data-name="Group 3681" transform="translate(653 287)">
      <g id="Group_3591" data-name="Group 3591">
        <g id="Shadow_04dp-4" data-name="Shadow / 04dp" transform="translate(115 5266)">
          <g transform="matrix(1, 0, 0, 1, -382, -41)" filter="url(#Shadow_04dp)">
            <rect id="Shadow_04dp-5" data-name="Shadow / 04dp" width="360" height="288" rx="4" transform="translate(382 41)" fill="#fff"/>
          </g>
        </g>
        <g id="Shadow_04dp-6" data-name="Shadow / 04dp" transform="translate(115 5266)">
          <g transform="matrix(1, 0, 0, 1, -382, -41)" filter="url(#Shadow_04dp-2)">
            <path id="Shadow_04dp-7" data-name="Shadow / 04dp" d="M4,0H356a4,4,0,0,1,4,4V48a0,0,0,0,1,0,0H0a0,0,0,0,1,0,0V4A4,4,0,0,1,4,0Z" transform="translate(382 41)" fill="none"/>
          </g>
        </g>
        <g id="Shadow_04dp-8" data-name="Shadow / 04dp" transform="translate(115 5410)">
          <g transform="matrix(1, 0, 0, 1, -382, -185)" filter="url(#Shadow_04dp-3)">
            <g id="Shadow_04dp-9" data-name="Shadow / 04dp" transform="translate(382 185)" fill="none" stroke="#6f2c91" stroke-width="1">
              <rect width="360" height="48" stroke="none"/>
              <rect x="0.5" y="0.5" width="359" height="47" fill="none"/>
            </g>
          </g>
        </g>
        <text id="_Text_Body_1_Selected_On_Surface_Medium_Emphasis_Left_" data-name="✱ / Text / Body 1 / Selected / On Surface / Medium Emphasis / Left " transform="translate(139 5296)" fill="#666" font-size="16" font-family="OpenSans-Semibold, Open Sans" font-weight="600" letter-spacing="0.032em"><tspan x="0" y="0">Expanded accordion</tspan></text>
        <g id="expand_more-24px" transform="translate(459.495 5302) rotate(180)">
          <path id="Path_2872" data-name="Path 2872" d="M0,0H24V24H0Z" fill="none"/>
          <path id="Path_2873" data-name="Path 2873" d="M10.59,0,6,4.58,1.41,0,0,1.41l6,6,6-6Z" transform="translate(6 8.59)" fill="#6f2c91"/>
        </g>
        <text id="_Text_Body_1_Selected_On_Surface_Medium_Emphasis_Left_2" data-name="✱ / Text / Body 1 / Selected / On Surface / Medium Emphasis / Left " transform="translate(139 5440)" fill="#666" font-size="16" font-family="OpenSans-Semibold, Open Sans" font-weight="600" letter-spacing="0.032em"><tspan x="0" y="0">Expanded accordion</tspan></text>
        <text id="_Text_Body_1_Selected_On_Surface_Medium_Emphasis_Left_3" data-name="✱ / Text / Body 1 / Selected / On Surface / Medium Emphasis / Left " transform="translate(139 5536)" fill="#666" font-size="16" font-family="OpenSans-Semibold, Open Sans" font-weight="600" letter-spacing="0.032em"><tspan x="0" y="0">Collapsed accordion</tspan></text>
        <g id="expand_more-24px-2" data-name="expand_more-24px" transform="translate(459.495 5446) rotate(180)">
          <path id="Path_2872-2" data-name="Path 2872" d="M0,0H24V24H0Z" fill="none"/>
          <path id="Path_2873-2" data-name="Path 2873" d="M16.59,8.59,12,13.17,7.41,8.59,6,10l6,6,6-6Z" fill="#6f2c91"/>
        </g>
        <g id="expand_more-24px-3" data-name="expand_more-24px" transform="translate(435.495 5518)">
          <path id="Path_2872-3" data-name="Path 2872" d="M0,0H24V24H0Z" fill="none"/>
          <path id="Path_2873-3" data-name="Path 2873" d="M16.59,8.59,12,13.17,7.41,8.59,6,10l6,6,6-6Z" fill="#6f2c91"/>
        </g>
        <line id="Line_1320" data-name="Line 1320" x2="360" transform="translate(115 5410)" fill="none" stroke="#d0d0d0" stroke-width="0.5"/>
        <line id="Line_1322" data-name="Line 1322" x2="360" transform="translate(115 5458)" fill="none" stroke="#d0d0d0" stroke-width="0.5"/>
        <line id="Line_1323" data-name="Line 1323" x2="360" transform="translate(115 5506)" fill="none" stroke="#d0d0d0" stroke-width="0.5"/>
        <line id="Line_1475" data-name="Line 1475" x2="360" transform="translate(115 5314)" fill="none" stroke="#d0d0d0" stroke-width="0.5"/>
      </g>
    </g>
  </g>
</svg>
