<svg xmlns="http://www.w3.org/2000/svg" xmlns:xlink="http://www.w3.org/1999/xlink" width="562" height="303" viewBox="0 0 562 303">
  <defs>
    <filter id="Rectangle_1927" x="92" y="27" width="378" height="276" filterUnits="userSpaceOnUse">
      <feOffset dy="-3" input="SourceAlpha"/>
      <feGaussianBlur stdDeviation="3" result="blur"/>
      <feFlood flood-opacity="0.161"/>
      <feComposite operator="in" in2="blur"/>
      <feComposite in="SourceGraphic"/>
    </filter>
    <filter id="Rectangle_1850" x="92" y="33" width="378" height="66" filterUnits="userSpaceOnUse">
      <feOffset dy="3" input="SourceAlpha"/>
      <feGaussianBlur stdDeviation="3" result="blur-2"/>
      <feFlood flood-opacity="0.161"/>
      <feComposite operator="in" in2="blur-2"/>
      <feComposite in="SourceGraphic"/>
    </filter>
  </defs>
  <g id="Group_4127" data-name="Group 4127" transform="translate(-968 -6064)">
    <g id="Group_3769" data-name="Group 3769" transform="translate(967.5 6064)">
      <rect id="Rectangle_1842" data-name="Rectangle 1842" width="562" height="297" transform="translate(0.5)" fill="#f2f2f2" opacity="0.521"/>
    </g>
    <g id="Group_3832" data-name="Group 3832" transform="translate(1069 6103)">
      <g transform="matrix(1, 0, 0, 1, -101, -39)" filter="url(#Rectangle_1927)">
        <rect id="Rectangle_1927-2" data-name="Rectangle 1927" width="360" height="258" transform="translate(101 39)" fill="#fff"/>
      </g>
      <rect id="Rectangle_2246" data-name="Rectangle 2246" width="296" height="16" transform="translate(24 157)" fill="#f2f2f2"/>
      <rect id="Rectangle_2247" data-name="Rectangle 2247" width="258" height="16" transform="translate(24 182)" fill="#f2f2f2"/>
      <rect id="Rectangle_2248" data-name="Rectangle 2248" width="145" height="24" transform="translate(24 109)" fill="#d9d9d9"/>
    </g>
    <g id="Group_3836" data-name="Group 3836" transform="translate(1069.042 6132)">
      <g id="Shadow_04dp" data-name="Shadow / 04dp" transform="translate(-0.042)">
        <rect id="Shadow_04dp-2" data-name="Shadow / 04dp" width="360" height="48" rx="4" fill="#fff"/>
      </g>
      <text id="_Text_Body_1_Selected_On_Surface_Medium_Emphasis_Left_" data-name="✱ / Text / Body 1 / Selected / On Surface / Medium Emphasis / Left " transform="translate(23.958 30)" fill="#666" font-size="16" font-family="OpenSans, Open Sans" letter-spacing="0.031em"><tspan x="0" y="0">First Section</tspan></text>
      <g id="expand_more-24px" transform="translate(344.051 36) rotate(180)">
        <path id="Path_2872" data-name="Path 2872" d="M0,0H24V24H0Z" fill="none"/>
        <path id="Path_2873" data-name="Path 2873" d="M16.59,8.59,12,13.17,7.41,8.59,6,10l6,6,6-6Z" fill="#6f2c91"/>
      </g>
    </g>
    <g id="Group_3835" data-name="Group 3835" transform="translate(1069.27 6103)">
      <g id="Group_3585" data-name="Group 3585">
        <g transform="matrix(1, 0, 0, 1, -101.27, -39)" filter="url(#Rectangle_1850)">
          <rect id="Rectangle_1850-2" data-name="Rectangle 1850" width="360" height="48" transform="translate(101 39)" fill="#fff"/>
        </g>
      </g>
      <rect id="dxc_logo_hz_wht_rgb_300" width="27" height="26.267" transform="translate(16 11.116)" fill="#f2f2f2"/>
      <g id="Group_3586" data-name="Group 3586" transform="translate(262.998 12.116)">
        <g id="Icon_Circle_Filled" data-name="Icon / Circle / Filled">
          <path id="shape" d="M61.583-38A11.588,11.588,0,0,0,50-26.417,11.588,11.588,0,0,0,61.583-14.833,11.588,11.588,0,0,0,73.167-26.417,11.588,11.588,0,0,0,61.583-38Zm0,3.475a3.47,3.47,0,0,1,3.475,3.475,3.47,3.47,0,0,1-3.475,3.475,3.47,3.47,0,0,1-3.475-3.475A3.47,3.47,0,0,1,61.583-34.525Zm0,16.448a8.341,8.341,0,0,1-6.95-3.73c.035-2.305,4.633-3.568,6.95-3.568s6.915,1.263,6.95,3.568A8.341,8.341,0,0,1,61.583-18.077Z" transform="translate(-50 38)" fill="#f2f2f2"/>
        </g>
      </g>
      <g id="Group_3587" data-name="Group 3587" transform="translate(322 17.116)">
        <line id="Line_530" data-name="Line 530" x1="22" transform="translate(0 6.5)" fill="none" stroke="#f2f2f2" stroke-width="2"/>
        <line id="Line_531" data-name="Line 531" x1="15" transform="translate(7)" fill="none" stroke="#f2f2f2" stroke-width="2"/>
        <line id="Line_532" data-name="Line 532" x1="12" transform="translate(10 13.25)" fill="none" stroke="#f2f2f2" stroke-width="2"/>
      </g>
    </g>
    <line id="Line_1476" data-name="Line 1476" x2="360" transform="translate(1069.5 6180.5)" fill="none" stroke="#f2f2f2" stroke-width="1"/>
  </g>
</svg>
