<svg xmlns="http://www.w3.org/2000/svg" xmlns:xlink="http://www.w3.org/1999/xlink" width="563" height="297" viewBox="0 0 563 297">
  <defs>
    <filter id="Shadow_04dp" x="98" y="94" width="367" height="160" filterUnits="userSpaceOnUse">
      <feOffset dy="6" input="SourceAlpha"/>
      <feGaussianBlur stdDeviation="5" result="blur"/>
      <feFlood flood-opacity="0.141"/>
      <feComposite operator="in" in2="blur"/>
      <feComposite in="SourceGraphic"/>
    </filter>
    <filter id="Shadow_04dp-2" x="98" y="94" width="367" height="78" filterUnits="userSpaceOnUse">
      <feOffset dy="6" input="SourceAlpha"/>
      <feGaussianBlur stdDeviation="5" result="blur-2"/>
      <feFlood flood-opacity="0.141"/>
      <feComposite operator="in" in2="blur-2"/>
      <feComposite in="SourceGraphic"/>
    </filter>
    <filter id="Shadow_04dp-3" x="114" y="158" width="335" height="78" filterUnits="userSpaceOnUse">
      <feOffset dy="6" input="SourceAlpha"/>
      <feGaussianBlur stdDeviation="5" result="blur-3"/>
      <feFlood flood-opacity="0.141"/>
      <feComposite operator="in" in2="blur-3"/>
      <feComposite in="SourceGraphic"/>
    </filter>
  </defs>
  <g id="Group_4128" data-name="Group 4128" transform="translate(-385 -6558)">
    <g id="Group_3575" data-name="Group 3575" transform="translate(386 6558)">
      <rect id="Rectangle_1842" data-name="Rectangle 1842" width="562" height="297" fill="#fafafa" opacity="0.521"/>
    </g>
    <g id="Group_3636" data-name="Group 3636" transform="translate(287 -545)">
      <g id="Shadow_04dp-4" data-name="Shadow / 04dp" transform="translate(211 7206)">
        <g transform="matrix(1, 0, 0, 1, -113, -103)" filter="url(#Shadow_04dp)">
          <rect id="Shadow_04dp-5" data-name="Shadow / 04dp" width="337" height="130" rx="4" transform="translate(113 103)" fill="#fff"/>
        </g>
      </g>
      <g id="Shadow_04dp-6" data-name="Shadow / 04dp" transform="translate(211 7206)">
        <g transform="matrix(1, 0, 0, 1, -113, -103)" filter="url(#Shadow_04dp-2)">
          <g id="Shadow_04dp-7" data-name="Shadow / 04dp" transform="translate(113 103)" fill="none" stroke="#6f2c91" stroke-width="1">
            <path d="M4,0H333a4,4,0,0,1,4,4V48a0,0,0,0,1,0,0H0a0,0,0,0,1,0,0V4A4,4,0,0,1,4,0Z" stroke="none"/>
            <path d="M4,.5H333A3.5,3.5,0,0,1,336.5,4V47a.5.5,0,0,1-.5.5H1A.5.5,0,0,1,.5,47V4A3.5,3.5,0,0,1,4,.5Z" fill="none"/>
          </g>
        </g>
      </g>
      <text id="_Text_Body_1_Selected_On_Surface_Medium_Emphasis_Left_" data-name="✱ / Text / Body 1 / Selected / On Surface / Medium Emphasis / Left " transform="translate(243 7236)" fill="#666" font-size="16" font-family="OpenSans-Semibold, Open Sans" font-weight="600" letter-spacing="0.032em"><tspan x="0" y="0">Expanded accordion</tspan></text>
      <g id="expand_more-24px" transform="translate(517.945 7242) rotate(180)">
        <path id="Path_2872" data-name="Path 2872" d="M0,0H24V24H0Z" fill="none"/>
        <path id="Path_2873" data-name="Path 2873" d="M10.59,0,6,4.58,1.41,0,0,1.41l6,6,6-6Z" transform="translate(6 8.59)" fill="#6f2c91"/>
      </g>
    </g>
    <g id="Group_3637" data-name="Group 3637" transform="translate(-209 2584)">
      <g id="Shadow_04dp-8" data-name="Shadow / 04dp" transform="translate(723 4141)">
        <g transform="matrix(1, 0, 0, 1, -129, -167)" filter="url(#Shadow_04dp-3)">
          <rect id="Shadow_04dp-9" data-name="Shadow / 04dp" width="305" height="48" rx="4" transform="translate(129 167)" fill="#fff"/>
        </g>
      </g>
      <text id="_Text_Body_1_Selected_On_Surface_Medium_Emphasis_Left_2" data-name="✱ / Text / Body 1 / Selected / On Surface / Medium Emphasis / Left " transform="translate(747 4171)" fill="#666" font-size="16" font-family="OpenSans, Open Sans" letter-spacing="0.031em"><tspan x="0" y="0">Collapsed accordion</tspan></text>
      <g id="expand_more-24px-2" data-name="expand_more-24px" transform="translate(987.648 4153)">
        <path id="Path_2872-2" data-name="Path 2872" d="M0,0H24V24H0Z" fill="none"/>
        <path id="Path_2873-2" data-name="Path 2873" d="M16.59,8.59,12,13.17,7.41,8.59,6,10l6,6,6-6Z" fill="#6f2c91"/>
      </g>
    </g>
    <g id="Use_case_right_icon" transform="translate(385 6558)">
      <rect id="Rectangle_2056" data-name="Rectangle 2056" width="562" height="6" fill="#97be35"/>
      <g id="check_circle-24px" transform="translate(8 14)">
        <path id="Path_983" data-name="Path 983" d="M0,0H24V24H0Z" fill="none"/>
        <path id="Path_984" data-name="Path 984" d="M12,2A10,10,0,1,0,22,12,10,10,0,0,0,12,2ZM10,17,5,12l1.41-1.41L10,14.17l7.59-7.59L19,8Z" fill="#97be35"/>
      </g>
    </g>
  </g>
</svg>
