<svg xmlns="http://www.w3.org/2000/svg" xmlns:xlink="http://www.w3.org/1999/xlink" width="562" height="297" viewBox="0 0 562 297">
  <defs>
    <filter id="Shadow_04dp" x="86" y="129" width="390" height="78" filterUnits="userSpaceOnUse">
      <feOffset dy="6" input="SourceAlpha"/>
      <feGaussianBlur stdDeviation="5" result="blur"/>
      <feFlood flood-opacity="0.141"/>
      <feComposite operator="in" in2="blur"/>
      <feComposite in="SourceGraphic"/>
    </filter>
  </defs>
  <g id="Group_4129" data-name="Group 4129" transform="translate(-973 -6558)">
    <g id="Group_3575" data-name="Group 3575" transform="translate(973 6558)">
      <rect id="Rectangle_1842" data-name="Rectangle 1842" width="562" height="297" fill="#fafafa" opacity="0.521"/>
    </g>
    <rect id="Rectangle_1926" data-name="Rectangle 1926" width="562" height="6" transform="translate(973 6558)" fill="#97be35"/>
    <g id="check_circle-24px" transform="translate(981 6572)">
      <path id="Path_983" data-name="Path 983" d="M0,0H24V24H0Z" fill="none"/>
      <path id="Path_984" data-name="Path 984" d="M12,2A10,10,0,1,0,22,12,10,10,0,0,0,12,2ZM10,17,5,12l1.41-1.41L10,14.17l7.59-7.59L19,8Z" fill="#97be35"/>
    </g>
    <g id="Group_3612" data-name="Group 3612" transform="translate(351 2715)">
      <g id="Group_3594" data-name="Group 3594">
        <g id="Shadow_04dp-2" data-name="Shadow / 04dp" transform="translate(723 3981)">
          <g transform="matrix(1, 0, 0, 1, -101, -138)" filter="url(#Shadow_04dp)">
            <rect id="Shadow_04dp-3" data-name="Shadow / 04dp" width="360" height="48" rx="4" transform="translate(101 138)" fill="#fff"/>
          </g>
        </g>
        <text id="_Text_Body_1_Selected_On_Surface_Medium_Emphasis_Left_" data-name="✱ / Text / Body 1 / Selected / On Surface / Medium Emphasis / Left " transform="translate(779 4011)" fill="#666" font-size="16" font-family="OpenSans, Open Sans" letter-spacing="0.031em"><tspan x="0" y="0">Collapsed accordion</tspan></text>
        <g id="expand_more-24px" transform="translate(1043 3993)">
          <path id="Path_2872" data-name="Path 2872" d="M0,0H24V24H0Z" fill="none"/>
          <path id="Path_2873" data-name="Path 2873" d="M16.59,8.59,12,13.17,7.41,8.59,6,10l6,6,6-6Z" fill="#6f2c91"/>
        </g>
        <g id="mail-24px" transform="translate(738.955 3993)">
          <path id="Path_2860" data-name="Path 2860" d="M0,0H24V24H0Z" fill="none"/>
          <path id="Path_2861" data-name="Path 2861" d="M20,4H4A2,2,0,0,0,2.01,6L2,18a2.006,2.006,0,0,0,2,2H20a2.006,2.006,0,0,0,2-2V6A2.006,2.006,0,0,0,20,4Zm0,4-8,5L4,8V6l8,5,8-5Z" fill="#6f2c91"/>
        </g>
      </g>
    </g>
  </g>
</svg>
