<svg xmlns="http://www.w3.org/2000/svg" xmlns:xlink="http://www.w3.org/1999/xlink" width="842" height="52.998" viewBox="0 0 842 52.998">
  <defs>
    <filter id="Path_973" x="409.5" y="23.5" width="23.085" height="29.498" filterUnits="userSpaceOnUse">
      <feOffset dy="1" input="SourceAlpha"/>
      <feGaussianBlur stdDeviation="1.5" result="blur"/>
      <feFlood flood-opacity="0.2"/>
      <feComposite operator="in" in2="blur"/>
      <feComposite in="SourceGraphic"/>
    </filter>
  </defs>
  <g id="Group_411" data-name="Group 411" transform="translate(-113 -461)">
    <g id="Button_Basic" data-name="Button Basic" transform="translate(0 77)">
      <g id="Buttons_Text_Enabled" data-name="Buttons / Text / Enabled" transform="translate(113 384)">
        <rect id="Box" width="122" height="43" rx="4" fill="#ffed00"/>
      </g>
      <text id="_Text_Button_Selected_On_Surface_High_Emphasis_Left" data-name="✱ / Text / Button / Selected / On Surface / High Emphasis / Left" transform="translate(143 411)" font-size="14" font-family="OpenSans-Regular, Open Sans" letter-spacing="0.089em"><tspan x="0" y="0">BUTTON</tspan></text>
    </g>
    <g id="Button_Disabled" data-name="Button Disabled" transform="translate(-182 77)">
      <rect id="Box-2" data-name="Box" width="122" height="43" rx="4" transform="translate(475 384)" fill="#ffed00"/>
      <text id="_Text_Button_Selected_On_Surface_High_Emphasis_Left-2" data-name="✱ / Text / Button / Selected / On Surface / High Emphasis / Left" transform="translate(505 411)" fill="#666" font-size="14" font-family="OpenSans-Regular, Open Sans" letter-spacing="0.089em"><tspan x="0" y="0">BUTTON</tspan></text>
    </g>
    <g id="Button_Clicked" data-name="Button Clicked" transform="translate(-182 77)">
      <g id="Buttons_Text_Enabled-2" data-name="Buttons / Text / Enabled" transform="translate(835 384)">
        <rect id="Box-3" data-name="Box" width="122" height="43" rx="4" fill="#ffed00"/>
      </g>
      <text id="_Text_Button_Selected_On_Surface_High_Emphasis_Left-3" data-name="✱ / Text / Button / Selected / On Surface / High Emphasis / Left" transform="translate(865 411)" font-size="14" font-family="OpenSans-Regular, Open Sans" letter-spacing="0.089em"><tspan x="0" y="0">BUTTON</tspan></text>
    </g>
    <g id="Button_Hover" data-name="Button Hover" transform="translate(-182 77)">
      <rect id="Box-4" data-name="Box" width="122" height="43" rx="4" transform="translate(655 384)" fill="#212121"/>
      <text id="_Text_Button_Selected_On_Surface_High_Emphasis_Left-4" data-name="✱ / Text / Button / Selected / On Surface / High Emphasis / Left" transform="translate(685 411)" fill="#ffed00" font-size="14" font-family="OpenSans-Regular, Open Sans" letter-spacing="0.089em"><tspan x="0" y="0">BUTTON</tspan></text>
      <g transform="matrix(1, 0, 0, 1, 295, 384)" filter="url(#Path_973)">
        <path id="Path_973-2" data-name="Path 973" d="M13.646-3.063a1.524,1.524,0,0,0-.477-.321,1.493,1.493,0,0,0-.584-.118h-.062V-4.28l.755-1.064A3.925,3.925,0,0,0,14-7.627V-12.5c0-.1-.007-.173-.009-.266,0-.122-.006-.236-.011-.35-.1-2.34-.774-2.805-2.109-2.873a2.053,2.053,0,0,0-2.139-1.071,2.136,2.136,0,0,0-1.448-.907.49.49,0,0,0-.2-.045H8.078V-19a1.951,1.951,0,0,0-1.9-2,2.091,2.091,0,0,0-2.064,2v5.761l-.672-.817a2.031,2.031,0,0,0-1.454-.623h0a2.039,2.039,0,0,0-1.455.623A1.872,1.872,0,0,0,.5-11.478L1.829-9.565A11.084,11.084,0,0,1,3.181-6.929c.153.467.909,2.589,2.166,3.058v.393A1.481,1.481,0,0,0,5-3.384a1.511,1.511,0,0,0-.66.543A1.493,1.493,0,0,0,4.084-2a1.493,1.493,0,0,0,.256.839A1.511,1.511,0,0,0,5-.62,1.5,1.5,0,0,0,5.584-.5h7a1.493,1.493,0,0,0,.584-.118,1.524,1.524,0,0,0,.477-.321A1.5,1.5,0,0,0,14.085-2,1.5,1.5,0,0,0,13.646-3.063Z" transform="translate(414 48)" fill-rule="evenodd"/>
      </g>
      <path id="Path_975" data-name="Path 975" d="M11.522-4.44V-3.5H6.347V-4.28a.5.5,0,0,0-.5-.5c-.619,0-1.389-1.469-1.718-2.473a12.117,12.117,0,0,0-1.479-2.884l-1.38-1.976a.9.9,0,0,1-.026-1.244,1.048,1.048,0,0,1,.744-.325h0a1.027,1.027,0,0,1,.712.291l1.527,1.862a.5.5,0,0,0,.555.153.5.5,0,0,0,.332-.471V-19a1.1,1.1,0,0,1,1.064-1,.944.944,0,0,1,.9,1v2.042c0,.012.006.022.007.034V-13.5a.5.5,0,0,0,.5.5.5.5,0,0,0,.5-.5V-17a1.157,1.157,0,0,1,.885.6v2.9a.5.5,0,0,0,.5.5.5.5,0,0,0,.5-.5v-2.568a.991.991,0,0,1,1.058.643V-13.5a.5.5,0,0,0,.5.5.5.5,0,0,0,.5-.5v-1.481c.755.064.976.406.976,2.481v4.876a2.928,2.928,0,0,1-.542,1.7L11.614-4.73A.509.509,0,0,0,11.522-4.44ZM12.585-2.5a.5.5,0,0,1,.5.5.5.5,0,0,1-.5.5h-7a.5.5,0,0,1-.5-.5.5.5,0,0,1,.5-.5h7Z" transform="translate(709 432)" fill="#fff" fill-rule="evenodd"/>
    </g>
    <g id="Button_Animation" data-name="Button Animation" transform="translate(-182 77)">
      <g id="Buttons_Text_Enabled-3" data-name="Buttons / Text / Enabled" transform="translate(1015 384)">
        <rect id="Box-5" data-name="Box" width="122" height="43" rx="4"/>
      </g>
      <path id="Intersection_16" data-name="Intersection 16" d="M5.656,43A39.269,39.269,0,0,1,7.224,0H72.037A39.268,39.268,0,0,1,73.6,43Z" transform="translate(1036 384)" fill="#666"/>
      <text id="_Text_Button_Selected_On_Surface_High_Emphasis_Left-5" data-name="✱ / Text / Button / Selected / On Surface / High Emphasis / Left" transform="translate(1045 411)" fill="#ffed00" font-size="14" font-family="OpenSans-Regular, Open Sans" letter-spacing="0.089em"><tspan x="0" y="0">BUTTON</tspan></text>
    </g>
  </g>
</svg>
