<svg xmlns="http://www.w3.org/2000/svg" width="562" height="460" viewBox="0 0 562 460">
  <g id="Group_4093" data-name="Group 4093" transform="translate(-978 -2759)">
    <g id="Group_3684" data-name="Group 3684" transform="translate(977.251 2759)">
      <rect id="Rectangle_1842" data-name="Rectangle 1842" width="562" height="460" transform="translate(0.749)" fill="#fafafa" opacity="0.521"/>
    </g>
    <path id="Path_2918" data-name="Path 2918" d="M0,0H501V262H0Z" transform="translate(1010 2868)" fill="#ccc"/>
    <rect id="Rectangle_2014" data-name="Rectangle 2014" width="232" height="201" transform="translate(1120 2906)" fill="#fff"/>
    <rect id="Rectangle_1965" data-name="Rectangle 1965" width="501" height="18" transform="translate(1010 2868)" fill="#6f2c91"/>
    <line id="Line_1409" data-name="Line 1409" x1="232" transform="translate(1120 2932)" fill="none" stroke="#d9d9d9" stroke-width="0.5"/>
    <rect id="Rectangle_2015" data-name="Rectangle 2015" width="127" height="201" transform="translate(1368 2906)" fill="#fff"/>
    <rect id="Rectangle_2019" data-name="Rectangle 2019" width="148" height="11" transform="translate(1130 3012)" fill="#f2f2f2"/>
    <rect id="Rectangle_2022" data-name="Rectangle 2022" width="148" height="10" transform="translate(1130 3046)" fill="#f2f2f2"/>
    <rect id="Rectangle_2020" data-name="Rectangle 2020" width="190" height="10" transform="translate(1130 2996)" fill="#f2f2f2"/>
    <rect id="Rectangle_2023" data-name="Rectangle 2023" width="131" height="11" transform="translate(1130 3029)" fill="#f2f2f2"/>
    <rect id="Rectangle_2021" data-name="Rectangle 2021" width="107" height="24" transform="translate(1130 2956)" fill="#bfbfbf"/>
    <line id="Line_1407" data-name="Line 1407" x2="71" transform="translate(1120 2931)" fill="none" stroke="#6f2c91" stroke-width="2"/>
    <rect id="Rectangle_2016" data-name="Rectangle 2016" width="42.612" height="12.175" transform="translate(1133.991 2914.206)" fill="#d9d9d9"/>
    <rect id="Rectangle_2017" data-name="Rectangle 2017" width="42.612" height="12.175" transform="translate(1205.519 2914.206)" fill="#d9d9d9"/>
    <rect id="Rectangle_2018" data-name="Rectangle 2018" width="42.612" height="12.175" transform="translate(1277.046 2914.206)" fill="#d9d9d9"/>
    <rect id="Rectangle_2025" data-name="Rectangle 2025" width="92" height="244" transform="translate(1010 2886)" fill="#fff"/>
  </g>
</svg>
