<svg xmlns="http://www.w3.org/2000/svg" width="1148" height="464" viewBox="0 0 1148 464">
  <g id="Group_4106" data-name="Group 4106" transform="translate(-386 -8536)">
    <g id="Group_3999" data-name="Group 3999" transform="translate(-3)">
      <rect id="Rectangle_2069" data-name="Rectangle 2069" width="1148" height="464" transform="translate(389 8536)" fill="#fafafa" opacity="0.521"/>
      <g id="Tabs-Fixed-noIcon-48" transform="translate(668 8634)">
        <rect id="Tabs-container" width="526" height="48" fill="#fff"/>
        <line id="Divider" x1="526" transform="translate(0 48)" fill="none" stroke="#bfbfbf" stroke-width="1"/>
        <g id="Tab3" transform="translate(350.774)">
          <rect id="Tab-container" width="175" height="48" transform="translate(0.226)" fill="none"/>
          <text id="Label" transform="translate(86.774 29.49)" fill="#5c5c5c" font-size="15" font-family="OpenSans-Semibold, Open Sans" font-weight="600" letter-spacing="0.089em"><tspan x="-21.569" y="0">Tab 3</tspan></text>
        </g>
        <g id="Tab2" transform="translate(175.387)">
          <rect id="Tab-container-2" data-name="Tab-container" width="176" height="48" transform="translate(-0.387)" fill="none"/>
          <text id="Label-2" data-name="Label" transform="translate(86.89 29)" fill="#5c5c5c" font-size="15" font-family="OpenSans-Semibold, Open Sans" font-weight="600" letter-spacing="0.089em"><tspan x="-21.569" y="0">Tab 2</tspan></text>
        </g>
        <g id="Tab1">
          <rect id="Active-indicator" width="175" height="2" transform="translate(0 46)" fill="#6f2c91"/>
          <rect id="Tab-container-3" data-name="Tab-container" width="175" height="48" fill="none"/>
          <text id="Label-3" data-name="Label" transform="translate(88 30)" fill="#6f2c91" font-size="16" font-family="OpenSans-Semibold, Open Sans" font-weight="600" letter-spacing="0.089em"><tspan x="-23.007" y="0">Tab 1</tspan></text>
        </g>
      </g>
      <g id="Tabs-Fixed-noIcon-48-2" data-name="Tabs-Fixed-noIcon-48" transform="translate(668 8743)">
        <rect id="Tabs-container-2" data-name="Tabs-container" width="526" height="48" fill="#fff"/>
        <line id="Divider-2" data-name="Divider" x1="526" transform="translate(0 48)" fill="none" stroke="#bfbfbf" stroke-width="1"/>
        <g id="Tab3-2" data-name="Tab3" transform="translate(350.774)">
          <rect id="Tab-container-4" data-name="Tab-container" width="175" height="48" transform="translate(0.226)" fill="none"/>
          <g id="queue_music-24px" transform="translate(75.735 12)">
            <path id="Path_2883" data-name="Path 2883" d="M0,0H23.916V24H0Z" fill="none" stroke="#707070" stroke-width="0.2"/>
            <path id="Path_2884" data-name="Path 2884" d="M14.958,6H3V8H14.958Zm0,4H3v2H14.958ZM3,16h7.972V14H3ZM16.951,6v8.18A3,3,0,1,0,18.944,17V8h2.99V6Z" transform="translate(-0.01)" fill="#666"/>
          </g>
        </g>
        <g id="Tab2-2" data-name="Tab2" transform="translate(175.387)">
          <rect id="Tab-container-5" data-name="Tab-container" width="176" height="48" transform="translate(-0.387)" fill="none"/>
          <g id="turned_in-24px" transform="translate(75.735 12)">
            <path id="Path_2881" data-name="Path 2881" d="M0,0H23.916V24H0Z" fill="none" stroke="#707070" stroke-width="0.2"/>
            <path id="Path_2882" data-name="Path 2882" d="M16.958,3H6.993A1.994,1.994,0,0,0,5.01,5L5,21l6.976-3,6.976,3V5A2,2,0,0,0,16.958,3Z" transform="translate(-0.017)" fill="#666"/>
          </g>
        </g>
        <g id="Tab1-2" data-name="Tab1">
          <rect id="Active-indicator-2" data-name="Active-indicator" width="175" height="2" transform="translate(0 46)" fill="#6f2c91"/>
          <rect id="Tab-container-6" data-name="Tab-container" width="175" height="48" fill="none"/>
          <g id="favorite-24px" transform="translate(75.735 12)">
            <path id="Path_2854" data-name="Path 2854" d="M0,0H23.916V24H0Z" fill="none" stroke="#707070" stroke-width="0.2"/>
            <path id="Path_2855" data-name="Path 2855" d="M11.965,21.35,10.52,20.03C5.388,15.36,2,12.28,2,8.5A5.437,5.437,0,0,1,7.481,3a5.959,5.959,0,0,1,4.484,2.09A5.959,5.959,0,0,1,16.449,3,5.437,5.437,0,0,1,21.93,8.5c0,3.78-3.388,6.86-8.52,11.54Z" transform="translate(-0.007)" fill="#6f2c91"/>
          </g>
        </g>
      </g>
      <g id="Tabs-fixed-iconleft-48" transform="translate(667 8852)">
        <path id="Tabs-container-3" data-name="Tabs-container" d="M0,0H526.16V48H0Z" fill="#fff"/>
        <line id="Divider-3" data-name="Divider" x1="526" transform="translate(0 48)" fill="none" stroke="#bfbfbf" stroke-width="1"/>
        <g id="Tab3-3" data-name="Tab3" transform="translate(350.774)">
          <rect id="Tab-container-7" data-name="Tab-container" width="175" height="48" transform="translate(0.226)" fill="none"/>
          <text id="Tab_3" data-name="Tab 3" transform="translate(105.227 30)" fill="#666" font-size="16" font-family="OpenSans-Semibold, Open Sans" font-weight="600" letter-spacing="0.089em"><tspan x="-23.007" y="0">Tab 3</tspan></text>
          <g id="queue_music-24px-2" data-name="queue_music-24px" transform="translate(46.836 12)">
            <path id="Path_2883-2" data-name="Path 2883" d="M0,0H23.916V24H0Z" fill="none"/>
            <path id="Path_2884-2" data-name="Path 2884" d="M14.958,6H3V8H14.958Zm0,4H3v2H14.958ZM3,16h7.972V14H3ZM16.951,6v8.18A3,3,0,1,0,18.944,17V8h2.99V6Z" transform="translate(-0.01)" fill="#666"/>
          </g>
        </g>
        <g id="Tab2-3" data-name="Tab2" transform="translate(175.387)">
          <rect id="Tab-container-8" data-name="Tab-container" width="176" height="48" transform="translate(-0.387)" fill="none"/>
          <text id="Tab_2" data-name="Tab 2" transform="translate(105.613 30)" fill="#666" font-size="16" font-family="OpenSans-Semibold, Open Sans" font-weight="600" letter-spacing="0.089em"><tspan x="-23.007" y="0">Tab 2</tspan></text>
          <g id="turned_in-24px-2" data-name="turned_in-24px" transform="translate(46.836 12)">
            <path id="Path_2881-2" data-name="Path 2881" d="M0,0H23.916V24H0Z" fill="none"/>
            <path id="Path_2882-2" data-name="Path 2882" d="M16.958,3H6.993A1.994,1.994,0,0,0,5.01,5L5,21l6.976-3,6.976,3V5A2,2,0,0,0,16.958,3Z" transform="translate(-0.017)" fill="#666"/>
          </g>
        </g>
        <g id="Tab1-3" data-name="Tab1">
          <rect id="Tab-container-9" data-name="Tab-container" width="175" height="48" fill="none"/>
          <rect id="Active-indicator-3" data-name="Active-indicator" width="175" height="2" transform="translate(0 46)" fill="#6f2c91"/>
          <text id="Tab_1" data-name="Tab 1" transform="translate(106 30)" fill="#6f2c91" font-size="16" font-family="OpenSans-Semibold, Open Sans" font-weight="600" letter-spacing="0.089em"><tspan x="-23.007" y="0">Tab 1</tspan></text>
          <g id="favorite-24px-2" data-name="favorite-24px" transform="translate(46.836 12)">
            <path id="Path_2854-2" data-name="Path 2854" d="M0,0H23.916V24H0Z" fill="none" stroke="#707070" stroke-width="0.2"/>
            <path id="Path_2855-2" data-name="Path 2855" d="M11.965,21.35,10.52,20.03C5.388,15.36,2,12.28,2,8.5A5.437,5.437,0,0,1,7.481,3a5.959,5.959,0,0,1,4.484,2.09A5.959,5.959,0,0,1,16.449,3,5.437,5.437,0,0,1,21.93,8.5c0,3.78-3.388,6.86-8.52,11.54Z" transform="translate(-0.007)" fill="#6f2c91"/>
          </g>
        </g>
      </g>
      <line id="Line_1410" data-name="Line 1410" x1="680.62" transform="translate(513.066 8635)" fill="none" stroke="red" stroke-width="0.3" stroke-dasharray="4"/>
      <line id="Line_1411" data-name="Line 1411" x1="155.456" transform="translate(513.066 8682.5)" fill="none" stroke="red" stroke-width="0.3" stroke-dasharray="4"/>
      <line id="Line_1418" data-name="Line 1418" y1="300.5" transform="translate(667.526 8598)" fill="none" stroke="red" stroke-width="0.3" stroke-dasharray="4"/>
      <line id="Line_1420" data-name="Line 1420" y1="300.5" transform="translate(683.47 8598)" fill="none" stroke="red" stroke-width="0.3" stroke-dasharray="4"/>
      <line id="Line_1422" data-name="Line 1422" y1="302.082" transform="translate(842.415 8598)" fill="none" stroke="red" stroke-width="0.3" stroke-dasharray="4"/>
      <line id="Line_1423" data-name="Line 1423" y1="302.082" transform="translate(826.47 8598)" fill="none" stroke="red" stroke-width="0.3" stroke-dasharray="4"/>
      <g id="Group_3781" data-name="Group 3781" transform="translate(452.777 8631.5)">
        <line id="Line_1260" data-name="Line 1260" y1="9" x2="8.969" transform="translate(56.303)" fill="none" stroke="#d0011b" stroke-width="0.5"/>
        <line id="Line_1261" data-name="Line 1261" y1="9" x2="8.969" transform="translate(56.303 47)" fill="none" stroke="#d0011b" stroke-width="0.5"/>
        <line id="Line_1262" data-name="Line 1262" y2="48" transform="translate(61.286 4)" fill="none" stroke="#d0011b" stroke-width="0.5"/>
        <text id="_48px" data-name="48px" transform="translate(18.223 35.5)" fill="#d0011b" font-size="14" font-family="OpenSans-Regular, Open Sans" letter-spacing="0.089em"><tspan x="-17.833" y="0">48px</tspan></text>
      </g>
      <g id="Group_3789" data-name="Group 3789" transform="translate(664.483 8600.5) rotate(-90)">
        <line id="Line_1260-2" data-name="Line 1260" y1="5.979" x2="6" fill="none" stroke="#d0011b" stroke-width="0.5"/>
        <line id="Line_1261-2" data-name="Line 1261" y1="5.492" x2="5.511" transform="translate(0.489 16.295)" fill="none" stroke="#d0011b" stroke-width="0.5"/>
        <line id="Line_1262-2" data-name="Line 1262" y2="16.905" transform="translate(3.551 2.441)" fill="none" stroke="#d0011b" stroke-width="0.5"/>
      </g>
      <g id="Group_3791" data-name="Group 3791" transform="translate(822.622 8600.5) rotate(-90)">
        <line id="Line_1260-3" data-name="Line 1260" y1="5.979" x2="6" fill="none" stroke="#d0011b" stroke-width="0.5"/>
        <line id="Line_1261-3" data-name="Line 1261" y1="5.492" x2="5.511" transform="translate(0.489 16.295)" fill="none" stroke="#d0011b" stroke-width="0.5"/>
        <line id="Line_1262-3" data-name="Line 1262" y2="16.905" transform="translate(3.551 2.441)" fill="none" stroke="#d0011b" stroke-width="0.5"/>
      </g>
      <text id="_16px" data-name="16px" transform="translate(677 8576)" fill="#d0011b" font-size="14" font-family="OpenSans-Regular, Open Sans" letter-spacing="0.089em"><tspan x="-17.833" y="0">16px</tspan></text>
      <text id="_min_left_right_padding_" data-name="(min left/right padding)" transform="translate(931 8574)" fill="#d0011b" font-size="11" font-family="OpenSans-Regular, Open Sans" letter-spacing="0.089em"><tspan x="-70.485" y="0">(min left/right padding)</tspan></text>
      <text id="_16px-2" data-name="16px" transform="translate(834 8575)" fill="#d0011b" font-size="14" font-family="OpenSans-Regular, Open Sans" letter-spacing="0.089em"><tspan x="-17.833" y="0">16px</tspan></text>
      <line id="Line_1485" data-name="Line 1485" x1="836.077" transform="translate(513.066 8743)" fill="none" stroke="red" stroke-width="0.3" stroke-dasharray="4"/>
      <line id="Line_1486" data-name="Line 1486" x1="836.077" transform="translate(513.066 8852.082)" fill="none" stroke="red" stroke-width="0.3" stroke-dasharray="4"/>
      <line id="Line_1487" data-name="Line 1487" x1="600.899" transform="translate(748.244 8755)" fill="none" stroke="red" stroke-width="0.3" stroke-dasharray="4"/>
      <line id="Line_1488" data-name="Line 1488" x1="634.282" transform="translate(714.861 8864.082)" fill="none" stroke="red" stroke-width="0.3" stroke-dasharray="4"/>
      <line id="Line_1489" data-name="Line 1489" x1="600.899" transform="translate(748.244 8779)" fill="none" stroke="red" stroke-width="0.3" stroke-dasharray="4"/>
      <line id="Line_1490" data-name="Line 1490" x1="634.282" transform="translate(714.861 8888.082)" fill="none" stroke="red" stroke-width="0.3" stroke-dasharray="4"/>
      <line id="Line_1491" data-name="Line 1491" y1="52.918" transform="translate(737.781 8864.082)" fill="none" stroke="red" stroke-width="0.3" stroke-dasharray="4"/>
      <line id="Line_1492" data-name="Line 1492" y1="52.918" transform="translate(749.739 8864.082)" fill="none" stroke="red" stroke-width="0.3" stroke-dasharray="4"/>
      <line id="Line_1493" data-name="Line 1493" x1="154.46" transform="translate(513.066 8791)" fill="none" stroke="red" stroke-width="0.3" stroke-dasharray="4"/>
      <line id="Line_1543" data-name="Line 1543" x1="155" transform="translate(1193 8791)" fill="none" stroke="red" stroke-width="0.3" stroke-dasharray="4"/>
      <line id="Line_1494" data-name="Line 1494" x1="154.46" transform="translate(513.066 8900.082)" fill="none" stroke="red" stroke-width="0.3" stroke-dasharray="4"/>
      <line id="Line_1542" data-name="Line 1542" x1="154.46" transform="translate(1193.687 8900.082)" fill="none" stroke="red" stroke-width="0.3" stroke-dasharray="4"/>
      <g id="Group_3842" data-name="Group 3842" transform="translate(452.777 8739.5)">
        <line id="Line_1260-4" data-name="Line 1260" y1="9" x2="8.969" transform="translate(56.303)" fill="none" stroke="#d0011b" stroke-width="0.5"/>
        <line id="Line_1261-4" data-name="Line 1261" y1="9" x2="8.969" transform="translate(56.303 47)" fill="none" stroke="#d0011b" stroke-width="0.5"/>
        <line id="Line_1262-4" data-name="Line 1262" y2="48" transform="translate(61.286 4)" fill="none" stroke="#d0011b" stroke-width="0.5"/>
        <text id="_48px-2" data-name="48px" transform="translate(18.223 35.5)" fill="#d0011b" font-size="14" font-family="OpenSans-Regular, Open Sans" letter-spacing="0.089em"><tspan x="-17.833" y="0">48px</tspan></text>
      </g>
      <g id="Group_3843" data-name="Group 3843" transform="translate(452.777 8848.582)">
        <line id="Line_1260-5" data-name="Line 1260" y1="9" x2="8.969" transform="translate(56.303)" fill="none" stroke="#d0011b" stroke-width="0.5"/>
        <line id="Line_1261-5" data-name="Line 1261" y1="9" x2="8.969" transform="translate(56.303 47)" fill="none" stroke="#d0011b" stroke-width="0.5"/>
        <line id="Line_1262-5" data-name="Line 1262" y2="48" transform="translate(61.286 4)" fill="none" stroke="#d0011b" stroke-width="0.5"/>
        <text id="_48px-3" data-name="48px" transform="translate(17 34.5)" fill="#d0011b" font-size="13" font-family="OpenSans-Regular, Open Sans" letter-spacing="0.089em"><tspan x="-16.559" y="0">48px</tspan></text>
      </g>
      <text id="_12px" data-name="12px" transform="translate(1382.585 8752.918)" fill="#d0011b" font-size="13" font-family="OpenSans-Regular, Open Sans" letter-spacing="0.089em"><tspan x="-16.559" y="0">12px</tspan></text>
      <text id="_12px-2" data-name="12px" transform="translate(1384 8863)" fill="#d0011b" font-size="14" font-family="OpenSans-Regular, Open Sans" letter-spacing="0.089em"><tspan x="-17.833" y="0">12px</tspan></text>
      <text id="_12px-3" data-name="12px" transform="translate(1382.585 8788.918)" fill="#d0011b" font-size="13" font-family="OpenSans-Regular, Open Sans" letter-spacing="0.089em"><tspan x="-16.559" y="0">12px</tspan></text>
      <text id="_12px-4" data-name="12px" transform="translate(1384 8899)" fill="#d0011b" font-size="14" font-family="OpenSans-Regular, Open Sans" letter-spacing="0.089em"><tspan x="-17.833" y="0">12px</tspan></text>
      <g id="Group_3844" data-name="Group 3844" transform="translate(735.734 8920) rotate(-90)">
        <line id="Line_1260-6" data-name="Line 1260" y1="5.979" x2="6" fill="none" stroke="#d0011b" stroke-width="0.5"/>
        <line id="Line_1261-6" data-name="Line 1261" y1="5.492" x2="5.511" transform="translate(0.489 10.6)" fill="none" stroke="#d0011b" stroke-width="0.5"/>
        <line id="Line_1262-6" data-name="Line 1262" y2="11.21" transform="translate(3.551 2.441)" fill="none" stroke="#d0011b" stroke-width="0.5"/>
      </g>
      <g id="Group_3845" data-name="Group 3845" transform="translate(1345.655 8740.225)">
        <line id="Line_1260-7" data-name="Line 1260" y1="6" x2="5.979" transform="translate(0)" fill="none" stroke="#d0011b" stroke-width="0.5"/>
        <line id="Line_1261-7" data-name="Line 1261" y1="5.511" x2="5.492" transform="translate(0.488 12.183)" fill="none" stroke="#d0011b" stroke-width="0.5"/>
        <line id="Line_1262-7" data-name="Line 1262" y2="12.795" transform="translate(3.538 2.449)" fill="none" stroke="#d0011b" stroke-width="0.5"/>
      </g>
      <g id="Group_3846" data-name="Group 3846" transform="translate(1345.655 8849.307)">
        <line id="Line_1260-8" data-name="Line 1260" y1="6" x2="5.979" transform="translate(0)" fill="none" stroke="#d0011b" stroke-width="0.5"/>
        <line id="Line_1261-8" data-name="Line 1261" y1="5.511" x2="5.492" transform="translate(0.488 12.183)" fill="none" stroke="#d0011b" stroke-width="0.5"/>
        <line id="Line_1262-8" data-name="Line 1262" y2="12.795" transform="translate(3.538 2.449)" fill="none" stroke="#d0011b" stroke-width="0.5"/>
      </g>
      <g id="Group_3847" data-name="Group 3847" transform="translate(1345.655 8776.225)">
        <line id="Line_1260-9" data-name="Line 1260" y1="6" x2="5.979" transform="translate(0)" fill="none" stroke="#d0011b" stroke-width="0.5"/>
        <line id="Line_1261-9" data-name="Line 1261" y1="5.511" x2="5.492" transform="translate(0.488 12.183)" fill="none" stroke="#d0011b" stroke-width="0.5"/>
        <line id="Line_1262-9" data-name="Line 1262" y2="12.795" transform="translate(3.538 2.449)" fill="none" stroke="#d0011b" stroke-width="0.5"/>
      </g>
      <g id="Group_3848" data-name="Group 3848" transform="translate(1345.655 8885.307)">
        <line id="Line_1260-10" data-name="Line 1260" y1="6" x2="5.979" transform="translate(0)" fill="none" stroke="#d0011b" stroke-width="0.5"/>
        <line id="Line_1261-10" data-name="Line 1261" y1="5.511" x2="5.492" transform="translate(0.488 12.183)" fill="none" stroke="#d0011b" stroke-width="0.5"/>
        <line id="Line_1262-10" data-name="Line 1262" y2="12.795" transform="translate(3.538 2.449)" fill="none" stroke="#d0011b" stroke-width="0.5"/>
      </g>
      <text id="_12px-5" data-name="12px" transform="translate(747.307 8938.5)" fill="#d0011b" font-size="13" font-family="OpenSans-Regular, Open Sans" letter-spacing="0.089em"><tspan x="-16.559" y="0">12px</tspan></text>
      <g id="Group_3986" data-name="Group 3986" transform="translate(-37 -369)">
        <rect id="Rectangle_2168" data-name="Rectangle 2168" width="33" height="21" rx="4" transform="translate(864 9149)" fill="#d0011b"/>
        <text id="_2px" data-name="2px" transform="translate(871 9164)" fill="#fff" font-size="12" font-family="OpenSans, Open Sans"><tspan x="0" y="0">2px</tspan></text>
      </g>
      <g id="Group_3982" data-name="Group 3982" transform="translate(-39 -259)">
        <rect id="Rectangle_2169" data-name="Rectangle 2169" width="33" height="21" rx="4" transform="translate(1214 9149)" fill="#d0011b"/>
        <text id="_1px" data-name="1px" transform="translate(1221 9164)" fill="#fff" font-size="12" font-family="OpenSans, Open Sans"><tspan x="0" y="0">1px</tspan></text>
      </g>
      <g id="Group_3983" data-name="Group 3983" transform="translate(-39 -369)">
        <rect id="Rectangle_2169-2" data-name="Rectangle 2169" width="33" height="21" rx="4" transform="translate(1214 9149)" fill="#d0011b"/>
        <text id="_1px-2" data-name="1px" transform="translate(1221 9164)" fill="#fff" font-size="12" font-family="OpenSans, Open Sans"><tspan x="0" y="0">1px</tspan></text>
      </g>
      <g id="Group_3984" data-name="Group 3984" transform="translate(-39 -479)">
        <rect id="Rectangle_2169-3" data-name="Rectangle 2169" width="33" height="21" rx="4" transform="translate(1214 9149)" fill="#d0011b"/>
        <text id="_1px-3" data-name="1px" transform="translate(1221 9164)" fill="#fff" font-size="12" font-family="OpenSans, Open Sans"><tspan x="0" y="0">1px</tspan></text>
      </g>
    </g>
  </g>
</svg>
