<svg xmlns="http://www.w3.org/2000/svg" xmlns:xlink="http://www.w3.org/1999/xlink" width="1149" height="466" viewBox="0 0 1149 466">
  <defs>
    <filter id="Rectangle_1934" x="243.75" y="138.875" width="659" height="260" filterUnits="userSpaceOnUse">
      <feOffset dy="3" input="SourceAlpha"/>
      <feGaussianBlur stdDeviation="3" result="blur"/>
      <feFlood flood-opacity="0.161"/>
      <feComposite operator="in" in2="blur"/>
      <feComposite in="SourceGraphic"/>
    </filter>
  </defs>
  <g id="Group_4115" data-name="Group 4115" transform="translate(-386 -2020)">
    <rect id="Rectangle_1945" data-name="Rectangle 1945" width="1149" height="466" transform="translate(386 2020)" fill="#fafafa"/>
    <g id="Group_3616" data-name="Group 3616" transform="translate(523.842 -2240.125)">
      <g transform="matrix(1, 0, 0, 1, -137.84, 4260.13)" filter="url(#Rectangle_1934)">
        <rect id="Rectangle_1934-2" data-name="Rectangle 1934" width="641" height="242" rx="4" transform="translate(252.75 144.88)" fill="#fff"/>
      </g>
      <text id="_Text_Body_1_Selected_On_Surface_Medium_Emphasis_Left_" data-name="✱ / Text / Body 1 / Selected / On Surface / Medium Emphasis / Left " transform="translate(170.908 4435)" fill="#666" font-size="16" font-family="OpenSans, Open Sans" letter-spacing="0.031em"><tspan x="0" y="0">Expanded accordion </tspan></text>
      <g id="expand_more-24px" transform="translate(739.908 4441) rotate(180)">
        <path id="Path_2872" data-name="Path 2872" d="M0,0H24V24H0Z" fill="none"/>
        <path id="Path_2873" data-name="Path 2873" d="M10.59,0,6,4.58,1.41,0,0,1.41l6,6,6-6Z" transform="translate(6 8.59)" fill="#6f2c91"/>
      </g>
      <g id="Rectangle_1937" data-name="Rectangle 1937" transform="translate(114.908 4405)" fill="none" stroke="#6f2c91" stroke-width="1">
        <path d="M4,0H637a4,4,0,0,1,4,4V48a0,0,0,0,1,0,0H0a0,0,0,0,1,0,0V4A4,4,0,0,1,4,0Z" stroke="none"/>
        <path d="M4,.5H637A3.5,3.5,0,0,1,640.5,4V47a.5.5,0,0,1-.5.5H1A.5.5,0,0,1,.5,47V4A3.5,3.5,0,0,1,4,.5Z" fill="none"/>
      </g>
      <g id="mail-24px" transform="translate(130.955 4417)">
        <path id="Path_2860" data-name="Path 2860" d="M0,0H24V24H0Z" fill="none"/>
        <path id="Path_2861" data-name="Path 2861" d="M20,4H4A2,2,0,0,0,2.01,6L2,18a2.006,2.006,0,0,0,2,2H20a2.006,2.006,0,0,0,2-2V6A2.006,2.006,0,0,0,20,4Zm0,4-8,5L4,8V6l8,5,8-5Z" fill="#6f2c91"/>
      </g>
      <text id="_Text_Body_1_Selected_On_Surface_Medium_Emphasis_Left_2" data-name="✱ / Text / Body 1 / Selected / On Surface / Medium Emphasis / Left " transform="translate(520.908 4435)" fill="#666" font-size="16" font-family="OpenSans-LightItalic, Open Sans" font-weight="300" font-style="italic" letter-spacing="0.031em"><tspan x="0" y="0">Additional information</tspan></text>
    </g>
    <g id="Group_3617" data-name="Group 3617" transform="translate(-90.75 -770.125)">
      <line id="Line_3" data-name="Line 3" x1="86" transform="translate(632.5 2958.5)" fill="none" stroke="#0067b3" stroke-width="1"/>
      <circle id="Ellipse_7" data-name="Ellipse 7" cx="13.5" cy="13.5" r="13.5" transform="translate(609 2945)" fill="#0067b3"/>
      <text id="_1" data-name="1" transform="translate(618 2964)" fill="#fff" font-size="16" font-family="OpenSans-Semibold, Open Sans" font-weight="600"><tspan x="0" y="0">1</tspan></text>
    </g>
    <g id="Group_3622" data-name="Group 3622" transform="translate(2011.75 5268.375) rotate(180)">
      <line id="Line_3-2" data-name="Line 3" x1="86" transform="translate(632.5 2958.5)" fill="none" stroke="#0067b3" stroke-width="1"/>
      <circle id="Ellipse_7-2" data-name="Ellipse 7" cx="13.5" cy="13.5" r="13.5" transform="translate(609 2945)" fill="#0067b3"/>
      <text id="_6" data-name="6" transform="translate(627 2952) rotate(180)" fill="#fff" font-size="16" font-family="OpenSans-Semibold, Open Sans" font-weight="600"><tspan x="0" y="0">6</tspan></text>
    </g>
    <g id="Group_3618" data-name="Group 3618" transform="translate(3625.5 1489.625) rotate(90)">
      <line id="Line_3-3" data-name="Line 3" x1="50.25" transform="translate(632.5 2958.5)" fill="none" stroke="#0067b3" stroke-width="1"/>
      <path id="Path_2880" data-name="Path 2880" d="M13.5,0A13.5,13.5,0,1,1,0,13.5,13.5,13.5,0,0,1,13.5,0Z" transform="translate(609 2945)" fill="#0067b3"/>
      <text id="_2" data-name="2" transform="translate(628.5 2963.5) rotate(-90)" fill="#fff" font-size="16" font-family="OpenSans-Semibold, Open Sans" font-weight="600"><tspan x="0" y="0">2</tspan></text>
    </g>
    <g id="Group_3619" data-name="Group 3619" transform="translate(3726.5 1489.625) rotate(90)">
      <line id="Line_3-4" data-name="Line 3" x1="50.25" transform="translate(632.5 2958.5)" fill="none" stroke="#0067b3" stroke-width="1"/>
      <circle id="Ellipse_7-3" data-name="Ellipse 7" cx="13.5" cy="13.5" r="13.5" transform="translate(609 2945)" fill="#0067b3"/>
      <text id="_3" data-name="3" transform="translate(628.5 2963.5) rotate(-90)" fill="#fff" font-size="16" font-family="OpenSans-Semibold, Open Sans" font-weight="600"><tspan x="0" y="0">3</tspan></text>
    </g>
    <g id="Group_3620" data-name="Group 3620" transform="translate(4127.5 1489.625) rotate(90)">
      <line id="Line_3-5" data-name="Line 3" x1="50.25" transform="translate(632.5 2958.5)" fill="none" stroke="#0067b3" stroke-width="1"/>
      <circle id="Ellipse_7-4" data-name="Ellipse 7" cx="13.5" cy="13.5" r="13.5" transform="translate(609 2945)" fill="#0067b3"/>
      <text id="_4" data-name="4" transform="translate(628.5 2963.5) rotate(-90)" fill="#fff" font-size="16" font-family="OpenSans-Semibold, Open Sans" font-weight="600"><tspan x="0" y="0">4</tspan></text>
    </g>
    <g id="Group_3621" data-name="Group 3621" transform="translate(4207.75 1489.625) rotate(90)">
      <line id="Line_3-6" data-name="Line 3" x1="50.25" transform="translate(632.5 2958.5)" fill="none" stroke="#0067b3" stroke-width="1"/>
      <circle id="Ellipse_7-5" data-name="Ellipse 7" cx="13.5" cy="13.5" r="13.5" transform="translate(609 2945)" fill="#0067b3"/>
      <text id="_5" data-name="5" transform="translate(628.5 2963.5) rotate(-90)" fill="#fff" font-size="16" font-family="OpenSans-Semibold, Open Sans" font-weight="600"><tspan x="0" y="0">5</tspan></text>
    </g>
    <line id="Line_1329" data-name="Line 1329" y2="47" transform="translate(628.25 2165.375)" fill="none" stroke="#005fcc" stroke-width="1"/>
    <line id="Line_1330" data-name="Line 1330" y2="195" transform="translate(1293.25 2212.375)" fill="none" stroke="#005fcc" stroke-width="1"/>
  </g>
</svg>
