<svg xmlns="http://www.w3.org/2000/svg" xmlns:xlink="http://www.w3.org/1999/xlink" width="361" height="302" viewBox="0 0 361 302">
  <defs>
    <filter id="Rectangle_1952" x="7" y="53" width="347" height="190" filterUnits="userSpaceOnUse">
      <feOffset dy="3" input="SourceAlpha"/>
      <feGaussianBlur stdDeviation="3" result="blur"/>
      <feFlood flood-opacity="0.161"/>
      <feComposite operator="in" in2="blur"/>
      <feComposite in="SourceGraphic"/>
    </filter>
  </defs>
  <g id="Group_4116" data-name="Group 4116" transform="translate(-387 -2874)">
    <g id="Group_3683" data-name="Group 3683" transform="translate(387 2874)">
      <rect id="Rectangle_1842" data-name="Rectangle 1842" width="361" height="302" fill="#fafafa" opacity="0.521"/>
    </g>
    <g transform="matrix(1, 0, 0, 1, 387, 2874)" filter="url(#Rectangle_1952)">
      <rect id="Rectangle_1952-2" data-name="Rectangle 1952" width="329" height="172" transform="translate(16 59)" fill="#fff"/>
    </g>
    <rect id="Rectangle_1955" data-name="Rectangle 1955" width="65" height="172" transform="translate(403 2933)" fill="#d9d9d9"/>
    <line id="Line_1360" data-name="Line 1360" x2="193" transform="translate(492 3067.5)" fill="none" stroke="#707070" stroke-width="0.2"/>
    <rect id="Rectangle_1956" data-name="Rectangle 1956" width="97" height="7" transform="translate(492 3000)" fill="#d9d9d9"/>
    <rect id="Rectangle_1957" data-name="Rectangle 1957" width="159" height="7" transform="translate(492 2989)" fill="#d9d9d9"/>
    <rect id="Rectangle_1958" data-name="Rectangle 1958" width="97" height="16" transform="translate(492 2963)" fill="#d9d9d9"/>
    <g id="Group_4075" data-name="Group 4075" transform="translate(387 2874)">
      <line id="Line_1359" data-name="Line 1359" x2="193" transform="translate(105 177.5)" fill="none" stroke="#707070" stroke-width="0.2"/>
      <rect id="Rectangle_1960" data-name="Rectangle 1960" width="90" height="7" transform="translate(112 166)" fill="#d9d9d9"/>
      <rect id="Rectangle_1961" data-name="Rectangle 1961" width="90" height="7" transform="translate(112 182)" fill="#d9d9d9"/>
      <line id="Line_1358" data-name="Line 1358" x2="193" transform="translate(105 161.5)" fill="none" stroke="#707070" stroke-width="0.2"/>
      <rect id="Rectangle_1959" data-name="Rectangle 1959" width="90" height="7" transform="translate(112 150)" fill="#d9d9d9"/>
      <g id="expand_more-24px" transform="translate(284 147.5)">
        <path id="Path_2872" data-name="Path 2872" d="M0,0H12V12H0Z" fill="none"/>
        <path id="Path_2873" data-name="Path 2873" d="M10.854,8.59l-2.1,2.1-2.1-2.1L6,9.236l2.75,2.75,2.75-2.75Z" transform="translate(-2.75 -4.135)" fill="#666"/>
      </g>
      <g id="expand_more-24px-2" data-name="expand_more-24px" transform="translate(284 163.5)">
        <path id="Path_2872-2" data-name="Path 2872" d="M0,0H12V12H0Z" fill="none"/>
        <path id="Path_2873-2" data-name="Path 2873" d="M10.854,8.59l-2.1,2.1-2.1-2.1L6,9.236l2.75,2.75,2.75-2.75Z" transform="translate(-2.75 -4.135)" fill="#666"/>
      </g>
      <g id="expand_more-24px-3" data-name="expand_more-24px" transform="translate(284 179.5)">
        <path id="Path_2872-3" data-name="Path 2872" d="M0,0H12V12H0Z" fill="none"/>
        <path id="Path_2873-3" data-name="Path 2873" d="M10.854,8.59l-2.1,2.1-2.1-2.1L6,9.236l2.75,2.75,2.75-2.75Z" transform="translate(-2.75 -4.135)" fill="#666"/>
      </g>
      <g id="Rectangle_1963" data-name="Rectangle 1963" transform="translate(105 145.5)" fill="none" stroke="#707070" stroke-width="0.2">
        <rect width="193" height="48" rx="1" stroke="none"/>
        <rect x="0.1" y="0.1" width="192.8" height="47.8" rx="0.9" fill="none"/>
      </g>
    </g>
    <rect id="Rectangle_1964" data-name="Rectangle 1964" width="329" height="12" transform="translate(403 2933)" fill="#6f2c91"/>
  </g>
</svg>
