<svg xmlns="http://www.w3.org/2000/svg" xmlns:xlink="http://www.w3.org/1999/xlink" width="1146" height="273" viewBox="0 0 1146 273">
  <defs>
    <filter id="Shadow_04dp" x="419.166" y="67" width="310" height="78" filterUnits="userSpaceOnUse">
      <feOffset dy="6" input="SourceAlpha"/>
      <feGaussianBlur stdDeviation="5" result="blur"/>
      <feFlood flood-opacity="0.141"/>
      <feComposite operator="in" in2="blur"/>
      <feComposite in="SourceGraphic"/>
    </filter>
  </defs>
  <g id="Group_4132" data-name="Group 4132" transform="translate(-386 -7860)">
    <g id="Group_4004" data-name="Group 4004" transform="translate(-1 -264)">
      <rect id="Rectangle_2070" data-name="Rectangle 2070" width="1146" height="273" transform="translate(387 8124)" fill="#fafafa" opacity="0.521"/>
    </g>
    <g id="Group_4015" data-name="Group 4015" transform="translate(434.166 -1033)">
      <g id="Group_3696" data-name="Group 3696" transform="translate(-337 4908)">
        <g id="Shadow_04dp-2" data-name="Shadow / 04dp" transform="translate(723 4061)">
          <g transform="matrix(1, 0, 0, 1, -434.17, -76)" filter="url(#Shadow_04dp)">
            <rect id="Shadow_04dp-3" data-name="Shadow / 04dp" width="280" height="48" rx="4" transform="translate(434.17 76)" fill="#fff"/>
          </g>
        </g>
        <text id="_Text_Body_1_Selected_On_Surface_Medium_Emphasis_Left_" data-name="✱ / Text / Body 1 / Selected / On Surface / Medium Emphasis / Left " transform="translate(747 4091)" fill="#666" font-size="16" font-family="OpenSans-Regular, Open Sans" letter-spacing="0.031em"><tspan x="0" y="0">Collapsed accordion</tspan></text>
        <g id="expand_more-24px" transform="translate(962.589 4073)">
          <path id="Path_2872" data-name="Path 2872" d="M0,0H24V24H0Z" fill="none"/>
          <path id="Path_2873" data-name="Path 2873" d="M16.59,8.59,12,13.17,7.41,8.59,6,10l6,6,6-6Z" fill="#6f2c91"/>
        </g>
      </g>
      <line id="Line_1361" data-name="Line 1361" y1="72.918" transform="translate(666 9009.5)" fill="none" stroke="red" stroke-width="0.3" stroke-dasharray="4"/>
      <line id="Line_1362" data-name="Line 1362" y1="72.418" transform="translate(385.905 9010)" fill="none" stroke="red" stroke-width="0.3" stroke-dasharray="4"/>
      <text id="_280px" data-name="280px" transform="translate(526 9110)" fill="#d0011b" font-size="14" font-family="OpenSans-Regular, Open Sans" letter-spacing="0.089em"><tspan x="-22.459" y="0">280px</tspan></text>
      <g id="Group_3697" data-name="Group 3697" transform="translate(668.668 9079.907) rotate(90)">
        <line id="Line_1260" data-name="Line 1260" y1="6" x2="6" transform="translate(-0.489)" fill="none" stroke="#d0011b" stroke-width="0.5"/>
        <line id="Line_1261" data-name="Line 1261" y1="5.511" x2="5.511" transform="translate(0 280.157)" fill="none" stroke="#d0011b" stroke-width="0.5"/>
        <line id="Line_1262" data-name="Line 1262" y2="280.77" transform="translate(3.062 2.449)" fill="none" stroke="#d0011b" stroke-width="0.5"/>
      </g>
    </g>
  </g>
</svg>
