<svg xmlns="http://www.w3.org/2000/svg" xmlns:xlink="http://www.w3.org/1999/xlink" width="1148" height="253" viewBox="0 0 1148 253">
  <defs>
    <filter id="Shadow_04dp" x="17" y="93" width="998" height="78" filterUnits="userSpaceOnUse">
      <feOffset dy="6" input="SourceAlpha"/>
      <feGaussianBlur stdDeviation="5" result="blur"/>
      <feFlood flood-opacity="0.141"/>
      <feComposite operator="in" in2="blur"/>
      <feComposite in="SourceGraphic"/>
    </filter>
  </defs>
  <g id="Group_4134" data-name="Group 4134" transform="translate(-386 -8599)">
    <rect id="Rectangle_2240" data-name="Rectangle 2240" width="1148" height="253" transform="translate(386 8599)" fill="#fafafa" opacity="0.521"/>
    <g id="Group_3645" data-name="Group 3645" transform="translate(-305 4720)">
      <g id="Shadow_04dp-2" data-name="Shadow / 04dp" transform="translate(723 3981)">
        <g transform="matrix(1, 0, 0, 1, -32, -102)" filter="url(#Shadow_04dp)">
          <rect id="Shadow_04dp-3" data-name="Shadow / 04dp" width="968" height="48" rx="4" transform="translate(32 102)" fill="#fff"/>
        </g>
      </g>
      <text id="_Text_Body_1_Selected_On_Surface_Medium_Emphasis_Left_" data-name="✱ / Text / Body 1 / Selected / On Surface / Medium Emphasis / Left " transform="translate(779 4011)" fill="#666" font-size="16" font-family="OpenSans, Open Sans" letter-spacing="0.031em"><tspan x="0" y="0">Collapsed accordion</tspan></text>
      <g id="expand_more-24px" transform="translate(1651 3993)">
        <path id="Path_2872" data-name="Path 2872" d="M0,0H24V24H0Z" fill="none"/>
        <path id="Path_2873" data-name="Path 2873" d="M16.59,8.59,12,13.17,7.41,8.59,6,10l6,6,6-6Z" fill="#6f2c91"/>
      </g>
      <g id="mail-24px" transform="translate(738.955 3993)">
        <path id="Path_2860" data-name="Path 2860" d="M0,0H24V24H0Z" fill="none"/>
        <path id="Path_2861" data-name="Path 2861" d="M20,4H4A2,2,0,0,0,2.01,6L2,18a2.006,2.006,0,0,0,2,2H20a2.006,2.006,0,0,0,2-2V6A2.006,2.006,0,0,0,20,4Zm0,4-8,5L4,8V6l8,5,8-5Z" fill="#6f2c91"/>
      </g>
    </g>
    <text id="_Text_Body_1_Selected_On_Surface_Medium_Emphasis_Left_2" data-name="✱ / Text / Body 1 / Selected / On Surface / Medium Emphasis / Left " transform="translate(1158 8731)" fill="#666" font-size="16" font-family="OpenSans-LightItalic, Open Sans" font-weight="300" font-style="italic" letter-spacing="0.031em"><tspan x="0" y="0">Additional information</tspan></text>
    <line id="Line_1338" data-name="Line 1338" x1="1052" transform="translate(419.5 8701)" fill="none" stroke="red" stroke-width="0.3" stroke-dasharray="4"/>
    <line id="Line_1339" data-name="Line 1339" x1="1052" transform="translate(419.5 8749)" fill="none" stroke="red" stroke-width="0.3" stroke-dasharray="4"/>
    <line id="Line_1334" data-name="Line 1334" y1="97.303" transform="translate(434 8676.115)" fill="none" stroke="red" stroke-width="0.3" stroke-dasharray="4"/>
    <line id="Line_1342" data-name="Line 1342" y1="97.303" transform="translate(1346 8676.115)" fill="none" stroke="red" stroke-width="0.3" stroke-dasharray="4"/>
    <line id="Line_1336" data-name="Line 1336" y1="97.303" transform="translate(458 8676.115)" fill="none" stroke="red" stroke-width="0.3" stroke-dasharray="4"/>
    <line id="Line_1340" data-name="Line 1340" y1="97.303" transform="translate(1370 8676.115)" fill="none" stroke="red" stroke-width="0.3" stroke-dasharray="4"/>
    <line id="Line_1337" data-name="Line 1337" y1="72.418" transform="translate(474 8701)" fill="none" stroke="red" stroke-width="0.3" stroke-dasharray="4"/>
    <line id="Line_1341" data-name="Line 1341" y1="72.418" transform="translate(1386 8701)" fill="none" stroke="red" stroke-width="0.3" stroke-dasharray="4"/>
    <line id="Line_1335" data-name="Line 1335" y1="72.418" transform="translate(418 8701)" fill="none" stroke="red" stroke-width="0.3" stroke-dasharray="4"/>
    <line id="Line_1343" data-name="Line 1343" y1="72.418" transform="translate(1322 8701)" fill="none" stroke="red" stroke-width="0.3" stroke-dasharray="4"/>
    <text id="_48px" data-name="48px" transform="translate(1509 8728)" fill="#d0011b" font-size="14" font-family="OpenSans-Regular, Open Sans" letter-spacing="0.089em"><tspan x="-17.833" y="0">48px</tspan></text>
    <text id="_16px" data-name="16px" transform="translate(426 8801)" fill="#d0011b" font-size="14" font-family="OpenSans-Regular, Open Sans" letter-spacing="0.089em"><tspan x="-17.833" y="0">16px</tspan></text>
    <text id="_24px" data-name="24px" transform="translate(1336 8801)" fill="#d0011b" font-size="14" font-family="OpenSans-Regular, Open Sans" letter-spacing="0.089em"><tspan x="-17.833" y="0">24px</tspan></text>
    <text id="_24px-2" data-name="24px" transform="translate(446 8662)" fill="#d0011b" font-size="14" font-family="OpenSans-Regular, Open Sans" letter-spacing="0.089em"><tspan x="-17.833" y="0">24px</tspan></text>
    <text id="_24px-3" data-name="24px" transform="translate(1358 8662)" fill="#d0011b" font-size="14" font-family="OpenSans-Regular, Open Sans" letter-spacing="0.089em"><tspan x="-17.833" y="0">24px</tspan></text>
    <text id="_16px-2" data-name="16px" transform="translate(467 8801)" fill="#d0011b" font-size="14" font-family="OpenSans-Regular, Open Sans" letter-spacing="0.089em"><tspan x="-17.833" y="0">16px</tspan></text>
    <text id="_16px-3" data-name="16px" transform="translate(1379 8801)" fill="#d0011b" font-size="14" font-family="OpenSans-Regular, Open Sans" letter-spacing="0.089em"><tspan x="-17.833" y="0">16px</tspan></text>
    <g id="Group_3647" data-name="Group 3647" transform="translate(437.405 8770.907) rotate(90)">
      <line id="Line_1260" data-name="Line 1260" y1="6" x2="6" transform="translate(-0.489)" fill="none" stroke="#d0011b" stroke-width="0.5"/>
      <line id="Line_1261" data-name="Line 1261" y1="5.511" x2="5.511" transform="translate(0 16.858)" fill="none" stroke="#d0011b" stroke-width="0.5"/>
      <line id="Line_1262" data-name="Line 1262" y2="17.471" transform="translate(3.062 2.449)" fill="none" stroke="#d0011b" stroke-width="0.5"/>
    </g>
    <g id="Group_3651" data-name="Group 3651" transform="translate(1349.405 8770.907) rotate(90)">
      <line id="Line_1260-2" data-name="Line 1260" y1="6" x2="6" transform="translate(-0.489)" fill="none" stroke="#d0011b" stroke-width="0.5"/>
      <line id="Line_1261-2" data-name="Line 1261" y1="5.511" x2="5.511" transform="translate(0 21.895)" fill="none" stroke="#d0011b" stroke-width="0.5"/>
      <line id="Line_1262-2" data-name="Line 1262" y2="22.507" transform="translate(3.062 2.449)" fill="none" stroke="#d0011b" stroke-width="0.5"/>
    </g>
    <g id="Group_3648" data-name="Group 3648" transform="translate(477.405 8770.907) rotate(90)">
      <line id="Line_1260-3" data-name="Line 1260" y1="6" x2="6" transform="translate(-0.489)" fill="none" stroke="#d0011b" stroke-width="0.5"/>
      <line id="Line_1261-3" data-name="Line 1261" y1="5.511" x2="5.511" transform="translate(0 16.858)" fill="none" stroke="#d0011b" stroke-width="0.5"/>
      <line id="Line_1262-3" data-name="Line 1262" y2="17.471" transform="translate(3.062 2.449)" fill="none" stroke="#d0011b" stroke-width="0.5"/>
    </g>
    <g id="Group_3650" data-name="Group 3650" transform="translate(1389.405 8770.907) rotate(90)">
      <line id="Line_1260-4" data-name="Line 1260" y1="6" x2="6" transform="translate(-0.489)" fill="none" stroke="#d0011b" stroke-width="0.5"/>
      <line id="Line_1261-4" data-name="Line 1261" y1="5.511" x2="5.511" transform="translate(0 16.858)" fill="none" stroke="#d0011b" stroke-width="0.5"/>
      <line id="Line_1262-4" data-name="Line 1262" y2="17.471" transform="translate(3.062 2.449)" fill="none" stroke="#d0011b" stroke-width="0.5"/>
    </g>
    <g id="Group_3649" data-name="Group 3649" transform="translate(461 8674.071) rotate(90)">
      <line id="Line_1260-5" data-name="Line 1260" y1="6" x2="6" transform="translate(-0.489)" fill="none" stroke="#d0011b" stroke-width="0.5"/>
      <line id="Line_1261-5" data-name="Line 1261" y1="5.511" x2="5.511" transform="translate(0 25.453)" fill="none" stroke="#d0011b" stroke-width="0.5"/>
      <line id="Line_1262-5" data-name="Line 1262" y2="26.065" transform="translate(3.062 2.449)" fill="none" stroke="#d0011b" stroke-width="0.5"/>
    </g>
    <g id="Group_3652" data-name="Group 3652" transform="translate(1373 8674.071) rotate(90)">
      <line id="Line_1260-6" data-name="Line 1260" y1="6" x2="6" transform="translate(-0.489)" fill="none" stroke="#d0011b" stroke-width="0.5"/>
      <line id="Line_1261-6" data-name="Line 1261" y1="5.511" x2="5.511" transform="translate(0 25.453)" fill="none" stroke="#d0011b" stroke-width="0.5"/>
      <line id="Line_1262-6" data-name="Line 1262" y2="26.065" transform="translate(3.062 2.449)" fill="none" stroke="#d0011b" stroke-width="0.5"/>
    </g>
    <g id="Group_3646" data-name="Group 3646" transform="translate(1468.989 8696.307)">
      <line id="Line_1260-7" data-name="Line 1260" y1="6" x2="6" transform="translate(-0.489)" fill="none" stroke="#d0011b" stroke-width="0.5"/>
      <line id="Line_1261-7" data-name="Line 1261" y1="5.511" x2="5.511" transform="translate(0 47.183)" fill="none" stroke="#d0011b" stroke-width="0.5"/>
      <line id="Line_1262-7" data-name="Line 1262" y2="47.795" transform="translate(3.062 2.449)" fill="none" stroke="#d0011b" stroke-width="0.5"/>
    </g>
  </g>
</svg>
