<svg xmlns="http://www.w3.org/2000/svg" xmlns:xlink="http://www.w3.org/1999/xlink" width="1148" height="396" viewBox="0 0 1148 396">
  <defs>
    <filter id="Shadow_04dp" x="271" y="30.769" width="612" height="318" filterUnits="userSpaceOnUse">
      <feOffset dy="6" input="SourceAlpha"/>
      <feGaussianBlur stdDeviation="5" result="blur"/>
      <feFlood flood-opacity="0.141"/>
      <feComposite operator="in" in2="blur"/>
      <feComposite in="SourceGraphic"/>
    </filter>
    <filter id="Shadow_04dp-2" x="271" y="30.769" width="612" height="78" filterUnits="userSpaceOnUse">
      <feOffset dy="6" input="SourceAlpha"/>
      <feGaussianBlur stdDeviation="5" result="blur-2"/>
      <feFlood flood-opacity="0.141"/>
      <feComposite operator="in" in2="blur-2"/>
      <feComposite in="SourceGraphic"/>
    </filter>
    <filter id="Shadow_04dp-3" x="271" y="30.769" width="612" height="318" filterUnits="userSpaceOnUse">
      <feOffset dy="6" input="SourceAlpha"/>
      <feGaussianBlur stdDeviation="5" result="blur-3"/>
      <feFlood flood-opacity="0.141"/>
      <feComposite operator="in" in2="blur-3"/>
      <feComposite in="SourceGraphic"/>
    </filter>
    <filter id="Shadow_04dp-4" x="271" y="30.769" width="612" height="78" filterUnits="userSpaceOnUse">
      <feOffset dy="6" input="SourceAlpha"/>
      <feGaussianBlur stdDeviation="5" result="blur-4"/>
      <feFlood flood-opacity="0.141"/>
      <feComposite operator="in" in2="blur-4"/>
      <feComposite in="SourceGraphic"/>
    </filter>
  </defs>
  <g id="Group_4135" data-name="Group 4135" transform="translate(-383 -8921)">
    <rect id="Rectangle_2249" data-name="Rectangle 2249" width="1148" height="396" transform="translate(383 8921)" fill="#fafafa" opacity="0.521"/>
    <text id="_4px" data-name="4px" transform="translate(642.75 8951.231)" fill="#d0011b" font-size="12" font-family="OpenSans-Regular, Open Sans" letter-spacing="0.089em"><tspan x="-11.32" y="0">4px</tspan></text>
    <path id="Path_2934" data-name="Path 2934" d="M634.3,9416.531v3.5s-3.692,0-5.568,1.9-1.938,5.68-1.938,5.68h-3.757" transform="translate(34.699 -466.837)" fill="none" stroke="#d0011b" stroke-width="0.8"/>
    <path id="Path_2937" data-name="Path 2937" d="M634.3,9416.531v3.5s-3.692,0-5.568,1.9-1.938,5.68-1.938,5.68h-3.757" transform="translate(-8758.7 9883.726) rotate(-90)" fill="none" stroke="#d0011b" stroke-width="0.8"/>
    <path id="Path_2935" data-name="Path 2935" d="M11.263,0V3.5s-3.692,0-5.568,1.9-1.938,5.68-1.938,5.68H0" transform="translate(1262.074 8948.943) rotate(90)" fill="none" stroke="#d0011b" stroke-width="0.8"/>
    <path id="Path_2936" data-name="Path 2936" d="M11.263,0V3.5s-3.692,0-5.568,1.9-1.938,5.68-1.938,5.68H0" transform="translate(1262.169 9260.404) rotate(180)" fill="none" stroke="#d0011b" stroke-width="0.8"/>
    <g id="Accordion-group-48" transform="translate(669 8960.769)">
      <g id="Shadow_04dp-5" data-name="Shadow / 04dp">
        <g transform="matrix(1, 0, 0, 1, -286, -39.77)" filter="url(#Shadow_04dp)">
          <rect id="Shadow_04dp-6" data-name="Shadow / 04dp" width="582" height="288" rx="4" transform="translate(286 39.77)" fill="#fff"/>
        </g>
      </g>
      <g id="Shadow_04dp-7" data-name="Shadow / 04dp">
        <g transform="matrix(1, 0, 0, 1, -286, -39.77)" filter="url(#Shadow_04dp-2)">
          <g id="Shadow_04dp-8" data-name="Shadow / 04dp" transform="translate(286 39.77)" fill="none" stroke="#6f2c91" stroke-width="1">
            <path d="M4,0H578a4,4,0,0,1,4,4V48a0,0,0,0,1,0,0H0a0,0,0,0,1,0,0V4A4,4,0,0,1,4,0Z" stroke="none"/>
            <path d="M4,.5H578A3.5,3.5,0,0,1,581.5,4V47a.5.5,0,0,1-.5.5H1A.5.5,0,0,1,.5,47V4A3.5,3.5,0,0,1,4,.5Z" fill="none"/>
          </g>
        </g>
      </g>
      <text id="_Text_Body_1_Selected_On_Surface_Medium_Emphasis_Left_" data-name="✱ / Text / Body 1 / Selected / On Surface / Medium Emphasis / Left " transform="translate(32 30)" fill="#666" font-size="16" font-family="OpenSans-Semibold, Open Sans" font-weight="600" letter-spacing="0.032em"><tspan x="0" y="0">Expanded accordion</tspan></text>
      <g id="expand_more-24px" transform="translate(566 36) rotate(180)">
        <path id="Path_2872" data-name="Path 2872" d="M0,0H24V24H0Z" fill="none"/>
        <path id="Path_2873" data-name="Path 2873" d="M10.59,0,6,4.58,1.41,0,0,1.41l6,6,6-6Z" transform="translate(6 8.59)" fill="#6f2c91"/>
      </g>
      <text id="_Text_Body_1_Selected_On_Surface_Medium_Emphasis_Left_2" data-name="✱ / Text / Body 1 / Selected / On Surface / Medium Emphasis / Left " transform="translate(32 222)" fill="#666" font-size="16" font-family="OpenSans, Open Sans" letter-spacing="0.032em"><tspan x="0" y="0">Collapsed accordion</tspan></text>
      <text id="_Text_Body_1_Selected_On_Surface_Medium_Emphasis_Left_3" data-name="✱ / Text / Body 1 / Selected / On Surface / Medium Emphasis / Left " transform="translate(32 270)" fill="#666" font-size="16" font-family="OpenSans, Open Sans" letter-spacing="0.032em"><tspan x="0" y="0">Collapsed accordion</tspan></text>
      <g id="expand_more-24px-2" data-name="expand_more-24px" transform="translate(542 204)">
        <path id="Path_2872-2" data-name="Path 2872" d="M0,0H24V24H0Z" fill="none"/>
        <path id="Path_2873-2" data-name="Path 2873" d="M16.59,8.59,12,13.17,7.41,8.59,6,10l6,6,6-6Z" fill="#6f2c91"/>
      </g>
      <g id="expand_more-24px-3" data-name="expand_more-24px" transform="translate(542 252)">
        <path id="Path_2872-3" data-name="Path 2872" d="M0,0H24V24H0Z" fill="none"/>
        <path id="Path_2873-3" data-name="Path 2873" d="M16.59,8.59,12,13.17,7.41,8.59,6,10l6,6,6-6Z" fill="#6f2c91"/>
      </g>
      <text id="_Text_Body_1_Selected_On_Surface_Medium_Emphasis_Left_4" data-name="✱ / Text / Body 1 / Selected / On Surface / Medium Emphasis / Left " transform="translate(48 78)" fill="#666" font-size="16" font-family="OpenSans-Regular, Open Sans" letter-spacing="0.031em"><tspan x="0" y="0">Content or </tspan><tspan y="0" fill="#0095ff" text-decoration="underline">link</tspan></text>
      <text id="_Text_Body_1_Selected_On_Surface_Medium_Emphasis_Left_5" data-name="✱ / Text / Body 1 / Selected / On Surface / Medium Emphasis / Left " transform="translate(48 126)" fill="#666" font-size="16" font-family="OpenSans-Regular, Open Sans" letter-spacing="0.031em"><tspan x="0" y="0">Entry</tspan></text>
      <text id="_Text_Body_1_Selected_On_Surface_Medium_Emphasis_Left_6" data-name="✱ / Text / Body 1 / Selected / On Surface / Medium Emphasis / Left " transform="translate(48 174)" fill="#666" font-size="16" font-family="OpenSans-Regular, Open Sans" letter-spacing="0.031em"><tspan x="0" y="0">Entry</tspan></text>
      <line id="Line_1316" data-name="Line 1316" x2="582" transform="translate(0 96)" fill="none" stroke="#d0d0d0" stroke-width="0.5"/>
      <line id="Line_1317" data-name="Line 1317" x2="582" transform="translate(0 144)" fill="none" stroke="#d0d0d0" stroke-width="0.5"/>
      <line id="Line_1318" data-name="Line 1318" x2="582" transform="translate(0 192)" fill="none" stroke="#d0d0d0" stroke-width="0.5"/>
      <line id="Line_1319" data-name="Line 1319" x2="582" transform="translate(0 240)" fill="none" stroke="#d0d0d0" stroke-width="0.5"/>
      <line id="Line_1470" data-name="Line 1470" x2="582" transform="translate(0 288)" fill="none" stroke="#d0d0d0" stroke-width="0.5"/>
      <line id="Line_1471" data-name="Line 1471" x2="582" fill="none" stroke="#d0d0d0" stroke-width="0.5"/>
    </g>
    <line id="Line_1594" data-name="Line 1594" y1="315.5" transform="translate(701.422 8962.269)" fill="none" stroke="red" stroke-width="0.3" stroke-dasharray="4"/>
    <line id="Line_1596" data-name="Line 1596" y1="315.5" transform="translate(717.4 8962.269)" fill="none" stroke="red" stroke-width="0.3" stroke-dasharray="4"/>
    <line id="Line_1598" data-name="Line 1598" y1="315.5" transform="translate(1234.864 8962.269)" fill="none" stroke="red" stroke-width="0.3" stroke-dasharray="4"/>
    <line id="Line_1597" data-name="Line 1597" y1="315.5" transform="translate(1250.906 8962.269)" fill="none" stroke="red" stroke-width="0.3" stroke-dasharray="4"/>
    <line id="Line_1595" data-name="Line 1595" y1="315" transform="translate(669.422 8962.769)" fill="none" stroke="red" stroke-width="0.3" stroke-dasharray="4"/>
    <text id="_32px" data-name="32px" transform="translate(685.422 9295.769)" fill="#d0011b" font-size="14" font-family="OpenSans-Regular, Open Sans" letter-spacing="0.089em"><tspan x="-17.833" y="0">32px</tspan></text>
    <text id="_16px" data-name="16px" transform="translate(727.878 9295.769)" fill="#d0011b" font-size="14" font-family="OpenSans-Regular, Open Sans" letter-spacing="0.089em"><tspan x="-17.833" y="0">16px</tspan></text>
    <text id="_16px-2" data-name="16px" transform="translate(1243.908 9295.769)" fill="#d0011b" font-size="14" font-family="OpenSans-Regular, Open Sans" letter-spacing="0.089em"><tspan x="-17.833" y="0">16px</tspan></text>
    <g id="Group_4079" data-name="Group 4079" transform="translate(704.828 9275.258) rotate(90)">
      <line id="Line_1260" data-name="Line 1260" y1="6" x2="6" transform="translate(-0.489)" fill="none" stroke="#d0011b" stroke-width="0.5"/>
      <line id="Line_1261" data-name="Line 1261" y1="5.511" x2="5.511" transform="translate(0 32.8)" fill="none" stroke="#d0011b" stroke-width="0.5"/>
      <line id="Line_1262" data-name="Line 1262" y2="33.412" transform="translate(3.062 2.449)" fill="none" stroke="#d0011b" stroke-width="0.5"/>
    </g>
    <g id="Group_4080" data-name="Group 4080" transform="translate(720.62 9275.258) rotate(90)">
      <line id="Line_1260-2" data-name="Line 1260" y1="6" x2="6" transform="translate(-0.489)" fill="none" stroke="#d0011b" stroke-width="0.5"/>
      <line id="Line_1261-2" data-name="Line 1261" y1="5.511" x2="5.511" transform="translate(0 15.974)" fill="none" stroke="#d0011b" stroke-width="0.5"/>
      <line id="Line_1262-2" data-name="Line 1262" y2="16.586" transform="translate(3.062 2.449)" fill="none" stroke="#d0011b" stroke-width="0.5"/>
    </g>
    <g id="Group_4081" data-name="Group 4081" transform="translate(1254.65 9275.258) rotate(90)">
      <line id="Line_1260-3" data-name="Line 1260" y1="6" x2="6" transform="translate(-0.489)" fill="none" stroke="#d0011b" stroke-width="0.5"/>
      <line id="Line_1261-3" data-name="Line 1261" y1="5.511" x2="5.511" transform="translate(0 15.974)" fill="none" stroke="#d0011b" stroke-width="0.5"/>
      <line id="Line_1262-3" data-name="Line 1262" y2="16.586" transform="translate(3.062 2.449)" fill="none" stroke="#d0011b" stroke-width="0.5"/>
    </g>
    <g id="Accordion-group-48-2" data-name="Accordion-group-48" transform="translate(669 8960.769)">
      <g id="Shadow_04dp-9" data-name="Shadow / 04dp">
        <g transform="matrix(1, 0, 0, 1, -286, -39.77)" filter="url(#Shadow_04dp-3)">
          <rect id="Shadow_04dp-10" data-name="Shadow / 04dp" width="582" height="288" rx="4" transform="translate(286 39.77)" fill="#fff"/>
        </g>
      </g>
      <g id="Shadow_04dp-11" data-name="Shadow / 04dp">
        <g transform="matrix(1, 0, 0, 1, -286, -39.77)" filter="url(#Shadow_04dp-4)">
          <g id="Shadow_04dp-12" data-name="Shadow / 04dp" transform="translate(286 39.77)" fill="none" stroke="#6f2c91" stroke-width="1">
            <path d="M4,0H578a4,4,0,0,1,4,4V48a0,0,0,0,1,0,0H0a0,0,0,0,1,0,0V4A4,4,0,0,1,4,0Z" stroke="none"/>
            <path d="M4,.5H578A3.5,3.5,0,0,1,581.5,4V47a.5.5,0,0,1-.5.5H1A.5.5,0,0,1,.5,47V4A3.5,3.5,0,0,1,4,.5Z" fill="none"/>
          </g>
        </g>
      </g>
      <text id="_Text_Body_1_Selected_On_Surface_Medium_Emphasis_Left_7" data-name="✱ / Text / Body 1 / Selected / On Surface / Medium Emphasis / Left " transform="translate(32 30)" fill="#666" font-size="16" font-family="OpenSans-Semibold, Open Sans" font-weight="600" letter-spacing="0.032em"><tspan x="0" y="0">Expanded accordion</tspan></text>
      <g id="expand_more-24px-4" data-name="expand_more-24px" transform="translate(566 36) rotate(180)">
        <path id="Path_2872-4" data-name="Path 2872" d="M0,0H24V24H0Z" fill="none"/>
        <path id="Path_2873-4" data-name="Path 2873" d="M10.59,0,6,4.58,1.41,0,0,1.41l6,6,6-6Z" transform="translate(6 8.59)" fill="#6f2c91"/>
      </g>
      <text id="_Text_Body_1_Selected_On_Surface_Medium_Emphasis_Left_8" data-name="✱ / Text / Body 1 / Selected / On Surface / Medium Emphasis / Left " transform="translate(32 222)" fill="#666" font-size="16" font-family="OpenSans, Open Sans" letter-spacing="0.032em"><tspan x="0" y="0">Collapsed accordion</tspan></text>
      <text id="_Text_Body_1_Selected_On_Surface_Medium_Emphasis_Left_9" data-name="✱ / Text / Body 1 / Selected / On Surface / Medium Emphasis / Left " transform="translate(32 270)" fill="#666" font-size="16" font-family="OpenSans, Open Sans" letter-spacing="0.032em"><tspan x="0" y="0">Collapsed accordion</tspan></text>
      <g id="expand_more-24px-5" data-name="expand_more-24px" transform="translate(542 204)">
        <path id="Path_2872-5" data-name="Path 2872" d="M0,0H24V24H0Z" fill="none"/>
        <path id="Path_2873-5" data-name="Path 2873" d="M16.59,8.59,12,13.17,7.41,8.59,6,10l6,6,6-6Z" fill="#6f2c91"/>
      </g>
      <g id="expand_more-24px-6" data-name="expand_more-24px" transform="translate(542 252)">
        <path id="Path_2872-6" data-name="Path 2872" d="M0,0H24V24H0Z" fill="none"/>
        <path id="Path_2873-6" data-name="Path 2873" d="M16.59,8.59,12,13.17,7.41,8.59,6,10l6,6,6-6Z" fill="#6f2c91"/>
      </g>
      <text id="_Text_Body_1_Selected_On_Surface_Medium_Emphasis_Left_10" data-name="✱ / Text / Body 1 / Selected / On Surface / Medium Emphasis / Left " transform="translate(48 78)" fill="#666" font-size="16" font-family="OpenSans-Regular, Open Sans" letter-spacing="0.031em"><tspan x="0" y="0">Content or </tspan><tspan y="0" fill="#0095ff" text-decoration="underline">link</tspan></text>
      <text id="_Text_Body_1_Selected_On_Surface_Medium_Emphasis_Left_11" data-name="✱ / Text / Body 1 / Selected / On Surface / Medium Emphasis / Left " transform="translate(48 126)" fill="#666" font-size="16" font-family="OpenSans-Regular, Open Sans" letter-spacing="0.031em"><tspan x="0" y="0">Entry</tspan></text>
      <text id="_Text_Body_1_Selected_On_Surface_Medium_Emphasis_Left_12" data-name="✱ / Text / Body 1 / Selected / On Surface / Medium Emphasis / Left " transform="translate(48 174)" fill="#666" font-size="16" font-family="OpenSans-Regular, Open Sans" letter-spacing="0.031em"><tspan x="0" y="0">Entry</tspan></text>
      <line id="Line_1316-2" data-name="Line 1316" x2="582" transform="translate(0 96)" fill="none" stroke="#d0d0d0" stroke-width="0.5"/>
      <line id="Line_1317-2" data-name="Line 1317" x2="582" transform="translate(0 144)" fill="none" stroke="#d0d0d0" stroke-width="0.5"/>
      <line id="Line_1318-2" data-name="Line 1318" x2="582" transform="translate(0 192)" fill="none" stroke="#d0d0d0" stroke-width="0.5"/>
      <line id="Line_1319-2" data-name="Line 1319" x2="582" transform="translate(0 240)" fill="none" stroke="#d0d0d0" stroke-width="0.5"/>
      <line id="Line_1470-2" data-name="Line 1470" x2="582" transform="translate(0 288)" fill="none" stroke="#d0d0d0" stroke-width="0.5"/>
      <line id="Line_1471-2" data-name="Line 1471" x2="582" fill="none" stroke="#d0d0d0" stroke-width="0.5"/>
    </g>
  </g>
</svg>
