<svg xmlns="http://www.w3.org/2000/svg" xmlns:xlink="http://www.w3.org/1999/xlink" width="1148" height="308" viewBox="0 0 1148 308">
  <defs>
    <filter id="Shadow_04dp" x="344.248" y="56.14" width="367" height="160" filterUnits="userSpaceOnUse">
      <feOffset dy="6" input="SourceAlpha"/>
      <feGaussianBlur stdDeviation="5" result="blur"/>
      <feFlood flood-opacity="0.141"/>
      <feComposite operator="in" in2="blur"/>
      <feComposite in="SourceGraphic"/>
    </filter>
    <filter id="Shadow_04dp-2" x="344.248" y="56.14" width="367" height="78" filterUnits="userSpaceOnUse">
      <feOffset dy="6" input="SourceAlpha"/>
      <feGaussianBlur stdDeviation="5" result="blur-2"/>
      <feFlood flood-opacity="0.141"/>
      <feComposite operator="in" in2="blur-2"/>
      <feComposite in="SourceGraphic"/>
    </filter>
    <filter id="Shadow_04dp-3" x="360.248" y="120.14" width="335" height="78" filterUnits="userSpaceOnUse">
      <feOffset dy="6" input="SourceAlpha"/>
      <feGaussianBlur stdDeviation="5" result="blur-3"/>
      <feFlood flood-opacity="0.141"/>
      <feComposite operator="in" in2="blur-3"/>
      <feComposite in="SourceGraphic"/>
    </filter>
  </defs>
  <g id="Group_4136" data-name="Group 4136" transform="translate(-386 -9388)">
    <rect id="Rectangle_2242" data-name="Rectangle 2242" width="1148" height="308" transform="translate(386 9388)" fill="#fafafa" opacity="0.521"/>
    <g id="Group_3809" data-name="Group 3809" transform="translate(534.248 2247.14)">
      <g id="Shadow_04dp-4" data-name="Shadow / 04dp" transform="translate(211 7206)">
        <g transform="matrix(1, 0, 0, 1, -359.25, -65.14)" filter="url(#Shadow_04dp)">
          <rect id="Shadow_04dp-5" data-name="Shadow / 04dp" width="337" height="130" rx="4" transform="translate(359.25 65.14)" fill="#fff"/>
        </g>
      </g>
      <g id="Shadow_04dp-6" data-name="Shadow / 04dp" transform="translate(211 7206)">
        <g transform="matrix(1, 0, 0, 1, -359.25, -65.14)" filter="url(#Shadow_04dp-2)">
          <g id="Shadow_04dp-7" data-name="Shadow / 04dp" transform="translate(359.25 65.14)" fill="none" stroke="#6f2c91" stroke-width="1">
            <path d="M4,0H333a4,4,0,0,1,4,4V48a0,0,0,0,1,0,0H0a0,0,0,0,1,0,0V4A4,4,0,0,1,4,0Z" stroke="none"/>
            <path d="M4,.5H333A3.5,3.5,0,0,1,336.5,4V47a.5.5,0,0,1-.5.5H1A.5.5,0,0,1,.5,47V4A3.5,3.5,0,0,1,4,.5Z" fill="none"/>
          </g>
        </g>
      </g>
      <text id="_Text_Body_1_Selected_On_Surface_Medium_Emphasis_Left_" data-name="✱ / Text / Body 1 / Selected / On Surface / Medium Emphasis / Left " transform="translate(243 7236)" fill="#666" font-size="16" font-family="OpenSans-Semibold, Open Sans" font-weight="600" letter-spacing="0.032em"><tspan x="0" y="0">Expanded accordion</tspan></text>
      <g id="expand_more-24px" transform="translate(517.945 7242) rotate(180)">
        <path id="Path_2872" data-name="Path 2872" d="M0,0H24V24H0Z" fill="none"/>
        <path id="Path_2873" data-name="Path 2873" d="M10.59,0,6,4.58,1.41,0,0,1.41l6,6,6-6Z" transform="translate(6 8.59)" fill="#6f2c91"/>
      </g>
    </g>
    <g id="Group_3810" data-name="Group 3810" transform="translate(38.248 5376.14)">
      <g id="Shadow_04dp-8" data-name="Shadow / 04dp" transform="translate(723 4141)">
        <g transform="matrix(1, 0, 0, 1, -375.25, -129.14)" filter="url(#Shadow_04dp-3)">
          <rect id="Shadow_04dp-9" data-name="Shadow / 04dp" width="305" height="48" rx="4" transform="translate(375.25 129.14)" fill="#fff"/>
        </g>
      </g>
      <text id="_Text_Body_1_Selected_On_Surface_Medium_Emphasis_Left_2" data-name="✱ / Text / Body 1 / Selected / On Surface / Medium Emphasis / Left " transform="translate(747 4171)" fill="#666" font-size="16" font-family="OpenSans, Open Sans" letter-spacing="0.031em"><tspan x="0" y="0">Collapsed accordion</tspan></text>
      <g id="expand_more-24px-2" data-name="expand_more-24px" transform="translate(987.648 4153)">
        <path id="Path_2872-2" data-name="Path 2872" d="M0,0H24V24H0Z" fill="none"/>
        <path id="Path_2873-2" data-name="Path 2873" d="M16.59,8.59,12,13.17,7.41,8.59,6,10l6,6,6-6Z" fill="#6f2c91"/>
      </g>
    </g>
    <line id="Line_1458" data-name="Line 1458" y1="115.778" transform="translate(745.248 9500.64)" fill="none" stroke="red" stroke-width="0.3" stroke-dasharray="4"/>
    <line id="Line_1462" data-name="Line 1462" y1="383.503" transform="translate(745.248 9516.319) rotate(-90)" fill="none" stroke="red" stroke-width="0.3" stroke-dasharray="4"/>
    <line id="Line_1460" data-name="Line 1460" y1="115.778" transform="translate(1067.248 9500.64)" fill="none" stroke="red" stroke-width="0.3" stroke-dasharray="4"/>
    <line id="Line_1459" data-name="Line 1459" y1="115.778" transform="translate(761.248 9500.64)" fill="none" stroke="red" stroke-width="0.3" stroke-dasharray="4"/>
    <line id="Line_1463" data-name="Line 1463" y1="383.503" transform="translate(745.248 9500.319) rotate(-90)" fill="none" stroke="red" stroke-width="0.3" stroke-dasharray="4"/>
    <line id="Line_1461" data-name="Line 1461" y1="115.778" transform="translate(1083.248 9500.64)" fill="none" stroke="red" stroke-width="0.3" stroke-dasharray="4"/>
    <text id="_16px" data-name="16px" transform="translate(754.248 9644)" fill="#d0011b" font-size="14" font-family="OpenSans-Regular, Open Sans" letter-spacing="0.089em"><tspan x="-17.833" y="0">16px</tspan></text>
    <text id="_16px-2" data-name="16px" transform="translate(1165.752 9513.14)" fill="#d0011b" font-size="14" font-family="OpenSans-Regular, Open Sans" letter-spacing="0.089em"><tspan x="-17.833" y="0">16px</tspan></text>
    <text id="_16px-3" data-name="16px" transform="translate(1076.248 9644)" fill="#d0011b" font-size="14" font-family="OpenSans-Regular, Open Sans" letter-spacing="0.089em"><tspan x="-17.833" y="0">16px</tspan></text>
    <g id="Group_3816" data-name="Group 3816" transform="translate(764.654 9613.907) rotate(90)">
      <line id="Line_1260" data-name="Line 1260" y1="6" x2="6" transform="translate(-0.489)" fill="none" stroke="#d0011b" stroke-width="0.5"/>
      <line id="Line_1261" data-name="Line 1261" y1="5.511" x2="5.511" transform="translate(0 16.858)" fill="none" stroke="#d0011b" stroke-width="0.5"/>
      <line id="Line_1262" data-name="Line 1262" y2="17.471" transform="translate(3.062 2.449)" fill="none" stroke="#d0011b" stroke-width="0.5"/>
    </g>
    <g id="Group_3818" data-name="Group 3818" transform="translate(1126.241 9496.915)">
      <line id="Line_1260-2" data-name="Line 1260" y1="6" x2="6" transform="translate(-0.489)" fill="none" stroke="#d0011b" stroke-width="0.5"/>
      <line id="Line_1261-2" data-name="Line 1261" y1="5.511" x2="5.511" transform="translate(0 16.858)" fill="none" stroke="#d0011b" stroke-width="0.5"/>
      <line id="Line_1262-2" data-name="Line 1262" y2="17.471" transform="translate(3.062 2.449)" fill="none" stroke="#d0011b" stroke-width="0.5"/>
    </g>
    <g id="Group_3817" data-name="Group 3817" transform="translate(1086.654 9613.907) rotate(90)">
      <line id="Line_1260-3" data-name="Line 1260" y1="6" x2="6" transform="translate(-0.489)" fill="none" stroke="#d0011b" stroke-width="0.5"/>
      <line id="Line_1261-3" data-name="Line 1261" y1="5.511" x2="5.511" transform="translate(0 16.858)" fill="none" stroke="#d0011b" stroke-width="0.5"/>
      <line id="Line_1262-3" data-name="Line 1262" y2="17.471" transform="translate(3.062 2.449)" fill="none" stroke="#d0011b" stroke-width="0.5"/>
    </g>
    <g id="Group_3983" data-name="Group 3983" transform="translate(-215 294)">
      <rect id="Rectangle_2169" data-name="Rectangle 2169" width="33" height="21" rx="4" transform="translate(1214 9149)" fill="#d0011b"/>
      <text id="_1px" data-name="1px" transform="translate(1221 9164)" fill="#fff" font-size="12" font-family="OpenSans, Open Sans"><tspan x="0" y="0">1px</tspan></text>
    </g>
    <text id="_4px" data-name="4px" transform="translate(717.828 9443.963)" fill="#d0011b" font-size="12" font-family="OpenSans-Regular, Open Sans" letter-spacing="0.089em"><tspan x="-11.32" y="0">4px</tspan></text>
    <path id="Path_2925" data-name="Path 2925" d="M634.3,9416.531v3.5s-3.692,0-5.568,1.9-1.938,5.68-1.938,5.68h-3.757" transform="translate(109.777 25.894)" fill="none" stroke="#d0011b" stroke-width="0.8"/>
    <path id="Path_2928" data-name="Path 2928" d="M634.3,9416.531v3.5s-3.692,0-5.568,1.9-1.938,5.68-1.938,5.68h-3.757" transform="translate(10509.854 8818.638) rotate(90)" fill="none" stroke="#d0011b" stroke-width="0.8"/>
  </g>
</svg>
