<svg xmlns="http://www.w3.org/2000/svg" xmlns:xlink="http://www.w3.org/1999/xlink" width="1148" height="412" viewBox="0 0 1148 412">
  <defs>
    <filter id="Shadow_04dp" x="342.578" y="43.5" width="390" height="318" filterUnits="userSpaceOnUse">
      <feOffset dy="6" input="SourceAlpha"/>
      <feGaussianBlur stdDeviation="5" result="blur"/>
      <feFlood flood-opacity="0.141"/>
      <feComposite operator="in" in2="blur"/>
      <feComposite in="SourceGraphic"/>
    </filter>
    <filter id="Shadow_04dp-2" x="342.578" y="43.5" width="390" height="78" filterUnits="userSpaceOnUse">
      <feOffset dy="6" input="SourceAlpha"/>
      <feGaussianBlur stdDeviation="5" result="blur-2"/>
      <feFlood flood-opacity="0.141"/>
      <feComposite operator="in" in2="blur-2"/>
      <feComposite in="SourceGraphic"/>
    </filter>
  </defs>
  <g id="Group_4138" data-name="Group 4138" transform="translate(-386 -10170)">
    <rect id="Rectangle_2255" data-name="Rectangle 2255" width="1148" height="412" transform="translate(386 10170)" fill="#fafafa" opacity="0.521"/>
    <text id="_4px" data-name="4px" transform="translate(717.828 10212.463)" fill="#d0011b" font-size="12" font-family="OpenSans-Regular, Open Sans" letter-spacing="0.089em"><tspan x="-11.32" y="0">4px</tspan></text>
    <path id="Path_2940" data-name="Path 2940" d="M634.3,9416.531v3.5s-3.692,0-5.568,1.9-1.938,5.68-1.938,5.68h-3.757" transform="translate(109.777 794.394)" fill="none" stroke="#d0011b" stroke-width="0.8"/>
    <path id="Path_2941" data-name="Path 2941" d="M634.3,9416.531v3.5s-3.692,0-5.568,1.9-1.938,5.68-1.938,5.68h-3.757" transform="translate(10531.777 9587.138) rotate(90)" fill="none" stroke="#d0011b" stroke-width="0.8"/>
    <g id="Accordion-group-48" transform="translate(743.578 10222.5)">
      <g id="Shadow_04dp-3" data-name="Shadow / 04dp">
        <g transform="matrix(1, 0, 0, 1, -357.58, -52.5)" filter="url(#Shadow_04dp)">
          <rect id="Shadow_04dp-4" data-name="Shadow / 04dp" width="360" height="288" rx="4" transform="translate(357.58 52.5)" fill="#fff"/>
        </g>
      </g>
      <g id="Shadow_04dp-5" data-name="Shadow / 04dp">
        <g transform="matrix(1, 0, 0, 1, -357.58, -52.5)" filter="url(#Shadow_04dp-2)">
          <g id="Shadow_04dp-6" data-name="Shadow / 04dp" transform="translate(357.58 52.5)" fill="none" stroke="#6f2c91" stroke-width="1">
            <path d="M4,0H356a4,4,0,0,1,4,4V48a0,0,0,0,1,0,0H0a0,0,0,0,1,0,0V4A4,4,0,0,1,4,0Z" stroke="none"/>
            <path d="M4,.5H356A3.5,3.5,0,0,1,359.5,4V47a.5.5,0,0,1-.5.5H1A.5.5,0,0,1,.5,47V4A3.5,3.5,0,0,1,4,.5Z" fill="none"/>
          </g>
        </g>
      </g>
      <text id="_Text_Body_1_Selected_On_Surface_Medium_Emphasis_Left_" data-name="✱ / Text / Body 1 / Selected / On Surface / Medium Emphasis / Left " transform="translate(16 30)" fill="#666" font-size="16" font-family="OpenSans-Semibold, Open Sans" font-weight="600" letter-spacing="0.032em"><tspan x="0" y="0">Expanded accordion</tspan></text>
      <g id="expand_more-24px" transform="translate(344 36) rotate(180)">
        <path id="Path_2872" data-name="Path 2872" d="M0,0H24V24H0Z" transform="translate(0)" fill="none"/>
        <path id="Path_2873" data-name="Path 2873" d="M10.59,0,6,4.58,1.41,0,0,1.41l6,6,6-6Z" transform="translate(6 8.59)" fill="#6f2c91"/>
      </g>
      <text id="_Text_Body_1_Selected_On_Surface_Medium_Emphasis_Left_2" data-name="✱ / Text / Body 1 / Selected / On Surface / Medium Emphasis / Left " transform="translate(16 222)" fill="#666" font-size="16" font-family="OpenSans, Open Sans" letter-spacing="0.032em"><tspan x="0" y="0">Collapsed accordion</tspan></text>
      <text id="_Text_Body_1_Selected_On_Surface_Medium_Emphasis_Left_3" data-name="✱ / Text / Body 1 / Selected / On Surface / Medium Emphasis / Left " transform="translate(16 270)" fill="#666" font-size="16" font-family="OpenSans, Open Sans" letter-spacing="0.032em"><tspan x="0" y="0">Collapsed accordion</tspan></text>
      <g id="expand_more-24px-2" data-name="expand_more-24px" transform="translate(320 204)">
        <path id="Path_2872-2" data-name="Path 2872" d="M0,0H24V24H0Z" fill="none"/>
        <path id="Path_2873-2" data-name="Path 2873" d="M16.59,8.59,12,13.17,7.41,8.59,6,10l6,6,6-6Z" fill="#6f2c91"/>
      </g>
      <g id="expand_more-24px-3" data-name="expand_more-24px" transform="translate(320 252)">
        <path id="Path_2872-3" data-name="Path 2872" d="M0,0H24V24H0Z" fill="none"/>
        <path id="Path_2873-3" data-name="Path 2873" d="M16.59,8.59,12,13.17,7.41,8.59,6,10l6,6,6-6Z" fill="#6f2c91"/>
      </g>
      <text id="_Text_Body_1_Selected_On_Surface_Medium_Emphasis_Left_4" data-name="✱ / Text / Body 1 / Selected / On Surface / Medium Emphasis / Left " transform="translate(32 78)" fill="#666" font-size="16" font-family="OpenSans-Regular, Open Sans" letter-spacing="0.031em"><tspan x="0" y="0">Content or </tspan><tspan y="0" fill="#0095ff" text-decoration="underline">link</tspan></text>
      <text id="_Text_Body_1_Selected_On_Surface_Medium_Emphasis_Left_5" data-name="✱ / Text / Body 1 / Selected / On Surface / Medium Emphasis / Left " transform="translate(32 126)" fill="#666" font-size="16" font-family="OpenSans-Regular, Open Sans" letter-spacing="0.031em"><tspan x="0" y="0">Entry</tspan></text>
      <text id="_Text_Body_1_Selected_On_Surface_Medium_Emphasis_Left_6" data-name="✱ / Text / Body 1 / Selected / On Surface / Medium Emphasis / Left " transform="translate(32 174)" fill="#666" font-size="16" font-family="OpenSans-Regular, Open Sans" letter-spacing="0.031em"><tspan x="0" y="0">Entry</tspan></text>
      <line id="Line_1316" data-name="Line 1316" x2="360" transform="translate(0 96)" fill="none" stroke="#d0d0d0" stroke-width="0.5"/>
      <line id="Line_1317" data-name="Line 1317" x2="360" transform="translate(0 144)" fill="none" stroke="#d0d0d0" stroke-width="0.5"/>
      <line id="Line_1318" data-name="Line 1318" x2="360" transform="translate(0 192)" fill="none" stroke="#d0d0d0" stroke-width="0.5"/>
      <line id="Line_1319" data-name="Line 1319" x2="360" transform="translate(0 240)" fill="none" stroke="#d0d0d0" stroke-width="0.5"/>
      <line id="Line_1470" data-name="Line 1470" x2="360" transform="translate(0 288)" fill="none" stroke="#d0d0d0" stroke-width="0.5"/>
      <line id="Line_1471" data-name="Line 1471" x2="360" fill="none" stroke="#d0d0d0" stroke-width="0.5"/>
    </g>
    <line id="Line_1599" data-name="Line 1599" y1="312.339" transform="translate(759.83 10222.5)" fill="none" stroke="red" stroke-width="0.3" stroke-dasharray="4"/>
    <line id="Line_1603" data-name="Line 1603" y1="312.339" transform="translate(1103.578 10222.5)" fill="none" stroke="red" stroke-width="0.3" stroke-dasharray="4"/>
    <line id="Line_1601" data-name="Line 1601" y1="312.339" transform="translate(775.832 10222.5)" fill="none" stroke="red" stroke-width="0.3" stroke-dasharray="4"/>
    <line id="Line_1600" data-name="Line 1600" y1="311.839" transform="translate(743.828 10223.562)" fill="none" stroke="red" stroke-width="0.3" stroke-dasharray="4"/>
    <line id="Line_1602" data-name="Line 1602" y1="311.839" transform="translate(1087.575 10223.562)" fill="none" stroke="red" stroke-width="0.3" stroke-dasharray="4"/>
    <line id="Line_1604" data-name="Line 1604" y1="311.839" transform="translate(1063.6 10223.562)" fill="none" stroke="red" stroke-width="0.3" stroke-dasharray="4"/>
    <text id="_16px" data-name="16px" transform="translate(740.922 10562.582)" fill="#d0011b" font-size="14" font-family="OpenSans-Regular, Open Sans" letter-spacing="0.089em"><tspan x="-17.833" y="0">16px</tspan></text>
    <text id="_16px-2" data-name="16px" transform="translate(1104.078 10562.582)" fill="#d0011b" font-size="14" font-family="OpenSans-Regular, Open Sans" letter-spacing="0.089em"><tspan x="-17.833" y="0">16px</tspan></text>
    <text id="_24px" data-name="24px" transform="translate(1063.078 10562.582)" fill="#d0011b" font-size="14" font-family="OpenSans-Regular, Open Sans" letter-spacing="0.089em"><tspan x="-17.833" y="0">24px</tspan></text>
    <text id="_16px-3" data-name="16px" transform="translate(780.591 10562.582)" fill="#d0011b" font-size="14" font-family="OpenSans-Regular, Open Sans" letter-spacing="0.089em"><tspan x="-17.833" y="0">16px</tspan></text>
    <g id="Group_4086" data-name="Group 4086" transform="translate(762.591 10532.489) rotate(90)">
      <line id="Line_1260" data-name="Line 1260" y1="6" x2="6" transform="translate(-0.489)" fill="none" stroke="#d0011b" stroke-width="0.5"/>
      <line id="Line_1261" data-name="Line 1261" y1="5.511" x2="5.511" transform="translate(0 16.158)" fill="none" stroke="#d0011b" stroke-width="0.5"/>
      <line id="Line_1262" data-name="Line 1262" y2="16.77" transform="translate(3.062 2.449)" fill="none" stroke="#d0011b" stroke-width="0.5"/>
    </g>
    <g id="Group_4088" data-name="Group 4088" transform="translate(1106.591 10532.489) rotate(90)">
      <line id="Line_1260-2" data-name="Line 1260" y1="6" x2="6" transform="translate(-0.489)" fill="none" stroke="#d0011b" stroke-width="0.5"/>
      <line id="Line_1261-2" data-name="Line 1261" y1="5.511" x2="5.511" transform="translate(0 16.158)" fill="none" stroke="#d0011b" stroke-width="0.5"/>
      <line id="Line_1262-2" data-name="Line 1262" y2="16.77" transform="translate(3.062 2.449)" fill="none" stroke="#d0011b" stroke-width="0.5"/>
    </g>
    <g id="Group_4089" data-name="Group 4089" transform="translate(1090.564 10532.489) rotate(90)">
      <line id="Line_1260-3" data-name="Line 1260" y1="6" x2="6" transform="translate(-0.489)" fill="none" stroke="#d0011b" stroke-width="0.5"/>
      <line id="Line_1261-3" data-name="Line 1261" y1="5.511" x2="5.511" transform="translate(0 24.132)" fill="none" stroke="#d0011b" stroke-width="0.5"/>
      <line id="Line_1262-3" data-name="Line 1262" y2="24.744" transform="translate(3.062 2.449)" fill="none" stroke="#d0011b" stroke-width="0.5"/>
    </g>
    <g id="Group_4087" data-name="Group 4087" transform="translate(779.115 10532.489) rotate(90)">
      <line id="Line_1260-4" data-name="Line 1260" y1="6" x2="6" transform="translate(-0.489)" fill="none" stroke="#d0011b" stroke-width="0.5"/>
      <line id="Line_1261-4" data-name="Line 1261" y1="5.511" x2="5.511" transform="translate(0 16.158)" fill="none" stroke="#d0011b" stroke-width="0.5"/>
      <line id="Line_1262-4" data-name="Line 1262" y2="16.77" transform="translate(3.062 2.449)" fill="none" stroke="#d0011b" stroke-width="0.5"/>
    </g>
  </g>
</svg>
