<svg xmlns="http://www.w3.org/2000/svg" xmlns:xlink="http://www.w3.org/1999/xlink" width="274" height="150" viewBox="0 0 274 150">
  <defs>
    <clipPath id="clip-path">
      <rect id="Rectángulo_983" data-name="Rectángulo 983" width="274" height="150" transform="translate(1467 2490)" fill="#fff" stroke="#707070" stroke-width="1"/>
    </clipPath>
  </defs>
  <g id="Enmascarar_grupo_15" data-name="Enmascarar grupo 15" transform="translate(-1467 -2490)" clip-path="url(#clip-path)">
    <g id="Grupo_1902" data-name="Grupo 1902" transform="translate(1381.056 1299.348)">
      <rect id="Rectángulo_759" data-name="Rectángulo 759" width="1158.762" height="239.744" transform="translate(93 1089)"/>
      <text id="_Text_Overline_Selected_On_Surface_Medium_Emphasis_Left_" data-name="✱ / Text / Overline / Selected / On Surface / Medium Emphasis / Left " transform="translate(1171.096 1303.783)" fill="#fff" font-size="11" font-family="OpenSans-Regular, Open Sans" letter-spacing="0.018em"><tspan x="-232.269" y="0">© DXC Technology 2019. All rights reserved.</tspan></text>
      <text id="_Text_Overline_Selected_On_Surface_Medium_Emphasis_Left_2" data-name="✱ / Text / Overline / Selected / On Surface / Medium Emphasis / Left " transform="translate(132.957 1144.957)" fill="#fff" font-size="15" font-family="OpenSans-Bold, Open Sans" font-weight="700" letter-spacing="0.018em"><tspan x="0" y="0">Services</tspan></text>
      <text id="_Text_Overline_Selected_On_Surface_Medium_Emphasis_Left_3" data-name="✱ / Text / Overline / Selected / On Surface / Medium Emphasis / Left " transform="translate(132.957 1180.917)" fill="#fff" font-size="13" font-family="OpenSans-Regular, Open Sans" letter-spacing="0.018em"><tspan x="0" y="0">Analytics</tspan></text>
      <text id="_Text_Overline_Selected_On_Surface_Medium_Emphasis_Left_4" data-name="✱ / Text / Overline / Selected / On Surface / Medium Emphasis / Left " transform="translate(339.736 1179.917)" fill="#fff" font-size="12" font-family="OpenSans-Regular, Open Sans" letter-spacing="0.018em"><tspan x="0" y="0">Healthcare</tspan></text>
      <text id="_Text_Overline_Selected_On_Surface_Medium_Emphasis_Left_5" data-name="✱ / Text / Overline / Selected / On Surface / Medium Emphasis / Left " transform="translate(339.736 1202.892)" fill="#fff" font-size="12" font-family="OpenSans-Regular, Open Sans" letter-spacing="0.018em"><tspan x="0" y="0">Life Sciences</tspan></text>
      <text id="_Text_Overline_Selected_On_Surface_Medium_Emphasis_Left_6" data-name="✱ / Text / Overline / Selected / On Surface / Medium Emphasis / Left " transform="translate(132.957 1203.891)" fill="#fff" font-size="12" font-family="OpenSans-Regular, Open Sans" letter-spacing="0.018em"><tspan x="0" y="0">Application Services</tspan></text>
      <text id="_Text_Overline_Selected_On_Surface_Medium_Emphasis_Left_7" data-name="✱ / Text / Overline / Selected / On Surface / Medium Emphasis / Left " transform="translate(132.957 1227.866)" fill="#fff" font-size="12" font-family="OpenSans-Regular, Open Sans" letter-spacing="0.018em"><tspan x="0" y="0">Business Process Services</tspan></text>
      <text id="_Text_Overline_Selected_On_Surface_Medium_Emphasis_Left_8" data-name="✱ / Text / Overline / Selected / On Surface / Medium Emphasis / Left " transform="translate(339.736 1144.957)" fill="#fff" font-size="15" font-family="OpenSans-Bold, Open Sans" font-weight="700" letter-spacing="0.018em"><tspan x="0" y="0">Industries</tspan></text>
      <text id="_Text_Overline_Selected_On_Surface_Medium_Emphasis_Left_9" data-name="✱ / Text / Overline / Selected / On Surface / Medium Emphasis / Left " transform="translate(562.498 1179.917)" fill="#fff" font-size="12" font-family="OpenSans-Regular, Open Sans" letter-spacing="0.018em"><tspan x="0" y="0">Company Overview</tspan></text>
      <text id="_Text_Overline_Selected_On_Surface_Medium_Emphasis_Left_10" data-name="✱ / Text / Overline / Selected / On Surface / Medium Emphasis / Left " transform="translate(562.498 1202.892)" fill="#fff" font-size="12" font-family="OpenSans-Regular, Open Sans" letter-spacing="0.018em"><tspan x="0" y="0">Our Mission &amp; Values</tspan></text>
      <text id="_Text_Overline_Selected_On_Surface_Medium_Emphasis_Left_11" data-name="✱ / Text / Overline / Selected / On Surface / Medium Emphasis / Left " transform="translate(562.498 1227.866)" fill="#fff" font-size="12" font-family="OpenSans-Regular, Open Sans" letter-spacing="0.018em"><tspan x="0" y="0">Our History</tspan></text>
      <text id="_Text_Overline_Selected_On_Surface_Medium_Emphasis_Left_12" data-name="✱ / Text / Overline / Selected / On Surface / Medium Emphasis / Left " transform="translate(562.498 1144.957)" fill="#fff" font-size="15" font-family="OpenSans-Bold, Open Sans" font-weight="700" letter-spacing="0.018em"><tspan x="0" y="0">About Us</tspan></text>
      <text id="_Text_Overline_Selected_On_Surface_Medium_Emphasis_Left_13" data-name="✱ / Text / Overline / Selected / On Surface / Medium Emphasis / Left " transform="translate(777.269 1179.917)" fill="#fff" font-size="12" font-family="OpenSans-Regular, Open Sans" letter-spacing="0.018em"><tspan x="0" y="0">THRIVE: Thought Leadership</tspan></text>
      <text id="_Text_Overline_Selected_On_Surface_Medium_Emphasis_Left_14" data-name="✱ / Text / Overline / Selected / On Surface / Medium Emphasis / Left " transform="translate(777.269 1202.892)" fill="#fff" font-size="12" font-family="OpenSans-Regular, Open Sans" letter-spacing="0.018em"><tspan x="0" y="0">Case Studies</tspan></text>
      <text id="_Text_Overline_Selected_On_Surface_Medium_Emphasis_Left_15" data-name="✱ / Text / Overline / Selected / On Surface / Medium Emphasis / Left " transform="translate(777.269 1227.866)" fill="#fff" font-size="12" font-family="OpenSans-Regular, Open Sans" letter-spacing="0.018em"><tspan x="0" y="0">Blogs</tspan></text>
      <text id="_Text_Overline_Selected_On_Surface_Medium_Emphasis_Left_16" data-name="✱ / Text / Overline / Selected / On Surface / Medium Emphasis / Left " transform="translate(777.269 1144.957)" fill="#fff" font-size="15" font-family="OpenSans-Bold, Open Sans" font-weight="700" letter-spacing="0.018em"><tspan x="0" y="0">Insights</tspan></text>
      <g id="Grupo_1635" data-name="Grupo 1635" transform="translate(132.957 1286.789)">
        <text id="_Text_Overline_Selected_On_Surface_Medium_Emphasis_Left_17" data-name="✱ / Text / Overline / Selected / On Surface / Medium Emphasis / Left " transform="translate(0 16.995)" fill="#fff" font-size="11" font-family="OpenSans-Regular, Open Sans" letter-spacing="0.018em"><tspan x="0" y="0" xml:space="preserve">DXC Technology   ·   Privacy   ·   Terms</tspan></text>
        <line id="Línea_6" data-name="Línea 6" x2="216.768" transform="translate(0.499 0)" fill="none" stroke="#ffed00" stroke-width="1"/>
      </g>
      <g id="Grupo_1646" data-name="Grupo 1646" transform="translate(1084.532 1108.979)">
        <path id="facebook-square-brands" d="M24.86,34.664V54.2A2.664,2.664,0,0,1,22.2,56.86H17.463V47.027h3.363l.483-3.751H17.463v-2.4c0-1.088.3-1.826,1.859-1.826h1.987V35.7a26.709,26.709,0,0,0-2.9-.15c-2.863,0-4.828,1.748-4.828,4.961v2.769H10.21v3.751H13.59V56.86H2.664A2.664,2.664,0,0,1,0,54.2V34.664A2.664,2.664,0,0,1,2.664,32H22.2A2.664,2.664,0,0,1,24.86,34.664Z" transform="translate(82.434 -32)" fill="#fff"/>
        <path id="twitter-square-brands" d="M22.2,32H2.664A2.664,2.664,0,0,0,0,34.664V54.2A2.664,2.664,0,0,0,2.664,56.86H22.2A2.664,2.664,0,0,0,24.86,54.2V34.664A2.664,2.664,0,0,0,22.2,32Zm-2.714,8.812c.011.155.011.316.011.472A10.284,10.284,0,0,1,9.139,51.638a10.307,10.307,0,0,1-5.588-1.631,7.666,7.666,0,0,0,.877.044A7.3,7.3,0,0,0,8.945,48.5a3.644,3.644,0,0,1-3.4-2.525,3.922,3.922,0,0,0,1.643-.067,3.64,3.64,0,0,1-2.913-3.574v-.044a3.637,3.637,0,0,0,1.643.461,3.632,3.632,0,0,1-1.62-3.03,3.594,3.594,0,0,1,.494-1.837,10.334,10.334,0,0,0,7.5,3.807,3.647,3.647,0,0,1,6.21-3.324,7.131,7.131,0,0,0,2.308-.877,3.63,3.63,0,0,1-1.6,2,7.242,7.242,0,0,0,2.1-.566A7.661,7.661,0,0,1,19.483,40.812Z" transform="translate(41.217 -32)" fill="#fff"/>
        <path id="linkedin-brands" d="M23.084,32H1.77A1.783,1.783,0,0,0,0,33.792V55.068A1.783,1.783,0,0,0,1.77,56.86H23.084a1.788,1.788,0,0,0,1.776-1.792V33.792A1.788,1.788,0,0,0,23.084,32ZM7.514,53.309H3.829V41.445h3.69V53.309ZM5.671,39.824a2.136,2.136,0,1,1,2.136-2.136A2.137,2.137,0,0,1,5.671,39.824ZM21.325,53.309H17.641V47.538c0-1.376-.028-3.146-1.914-3.146-1.92,0-2.214,1.5-2.214,3.046v5.871H9.828V41.445h3.535v1.62h.05a3.881,3.881,0,0,1,3.49-1.914c3.729,0,4.423,2.458,4.423,5.655Z" transform="translate(0 -32)" fill="#fff"/>
      </g>
    </g>
  </g>
</svg>
