<svg xmlns="http://www.w3.org/2000/svg" xmlns:xlink="http://www.w3.org/1999/xlink" width="274" height="150" viewBox="0 0 274 150">
  <defs>
    <clipPath id="clip-path">
      <rect width="274" height="150" fill="none"/>
    </clipPath>
    <clipPath id="clip-path-2">
      <rect id="Rectángulo_980" data-name="Rectángulo 980" width="274" height="150" transform="translate(1293 1694)" fill="#fff" stroke="#707070" stroke-width="1"/>
    </clipPath>
    <filter id="Shadow_04dp" x="-3.281" y="4" width="316.422" height="74.914" filterUnits="userSpaceOnUse">
      <feOffset dy="6" input="SourceAlpha"/>
      <feGaussianBlur stdDeviation="5" result="blur"/>
      <feFlood flood-opacity="0.141"/>
      <feComposite operator="in" in2="blur"/>
      <feComposite in="SourceGraphic"/>
    </filter>
    <clipPath id="clip-path-3">
      <rect width="125.178" height="13.724" fill="none"/>
    </clipPath>
    <filter id="Shadow_04dp-2" x="-3.188" y="50.162" width="316.422" height="258.838" filterUnits="userSpaceOnUse">
      <feOffset dy="6" input="SourceAlpha"/>
      <feGaussianBlur stdDeviation="5" result="blur-2"/>
      <feFlood flood-opacity="0.141"/>
      <feComposite operator="in" in2="blur-2"/>
      <feComposite in="SourceGraphic"/>
    </filter>
    <clipPath id="clip-path-4">
      <rect width="90.453" height="13.724" fill="none"/>
    </clipPath>
    <clipPath id="clip-path-5">
      <rect width="145.348" height="21.521" fill="none"/>
    </clipPath>
    <clipPath id="clip-path-6">
      <rect width="54.708" height="13.724" fill="none"/>
    </clipPath>
    <clipPath id="clip-path-8">
      <rect width="58.055" height="13.724" fill="none"/>
    </clipPath>
    <clipPath id="clip-path-10">
      <rect width="64.772" height="13.724" fill="none"/>
    </clipPath>
    <clipPath id="clip-path-11">
      <rect width="76.105" height="26.824" fill="none"/>
    </clipPath>
  </defs>
  <g id="Grupo_1821" data-name="Grupo 1821" transform="translate(-1293 -1694)">
    <g id="Repetir_cuadrícula_15" data-name="Repetir cuadrícula 15" transform="translate(1293 1694)" opacity="0.65" clip-path="url(#clip-path)">
      <g transform="translate(-430 -903)">
        <circle id="Elipse_3" data-name="Elipse 3" cx="2" cy="2" r="2" transform="translate(430 903)" fill="#d9d9d9"/>
      </g>
      <g transform="translate(-406 -903)">
        <circle id="Elipse_3-2" data-name="Elipse 3" cx="2" cy="2" r="2" transform="translate(430 903)" fill="#d9d9d9"/>
      </g>
      <g transform="translate(-382 -903)">
        <circle id="Elipse_3-3" data-name="Elipse 3" cx="2" cy="2" r="2" transform="translate(430 903)" fill="#d9d9d9"/>
      </g>
      <g transform="translate(-358 -903)">
        <circle id="Elipse_3-4" data-name="Elipse 3" cx="2" cy="2" r="2" transform="translate(430 903)" fill="#d9d9d9"/>
      </g>
      <g transform="translate(-334 -903)">
        <circle id="Elipse_3-5" data-name="Elipse 3" cx="2" cy="2" r="2" transform="translate(430 903)" fill="#d9d9d9"/>
      </g>
      <g transform="translate(-310 -903)">
        <circle id="Elipse_3-6" data-name="Elipse 3" cx="2" cy="2" r="2" transform="translate(430 903)" fill="#d9d9d9"/>
      </g>
      <g transform="translate(-286 -903)">
        <circle id="Elipse_3-7" data-name="Elipse 3" cx="2" cy="2" r="2" transform="translate(430 903)" fill="#d9d9d9"/>
      </g>
      <g transform="translate(-262 -903)">
        <circle id="Elipse_3-8" data-name="Elipse 3" cx="2" cy="2" r="2" transform="translate(430 903)" fill="#d9d9d9"/>
      </g>
      <g transform="translate(-238 -903)">
        <circle id="Elipse_3-9" data-name="Elipse 3" cx="2" cy="2" r="2" transform="translate(430 903)" fill="#d9d9d9"/>
      </g>
      <g transform="translate(-214 -903)">
        <circle id="Elipse_3-10" data-name="Elipse 3" cx="2" cy="2" r="2" transform="translate(430 903)" fill="#d9d9d9"/>
      </g>
      <g transform="translate(-190 -903)">
        <circle id="Elipse_3-11" data-name="Elipse 3" cx="2" cy="2" r="2" transform="translate(430 903)" fill="#d9d9d9"/>
      </g>
      <g transform="translate(-166 -903)">
        <circle id="Elipse_3-12" data-name="Elipse 3" cx="2" cy="2" r="2" transform="translate(430 903)" fill="#d9d9d9"/>
      </g>
      <g transform="translate(-430 -879)">
        <circle id="Elipse_3-13" data-name="Elipse 3" cx="2" cy="2" r="2" transform="translate(430 903)" fill="#d9d9d9"/>
      </g>
      <g transform="translate(-406 -879)">
        <circle id="Elipse_3-14" data-name="Elipse 3" cx="2" cy="2" r="2" transform="translate(430 903)" fill="#d9d9d9"/>
      </g>
      <g transform="translate(-382 -879)">
        <circle id="Elipse_3-15" data-name="Elipse 3" cx="2" cy="2" r="2" transform="translate(430 903)" fill="#d9d9d9"/>
      </g>
      <g transform="translate(-358 -879)">
        <circle id="Elipse_3-16" data-name="Elipse 3" cx="2" cy="2" r="2" transform="translate(430 903)" fill="#d9d9d9"/>
      </g>
      <g transform="translate(-334 -879)">
        <circle id="Elipse_3-17" data-name="Elipse 3" cx="2" cy="2" r="2" transform="translate(430 903)" fill="#d9d9d9"/>
      </g>
      <g transform="translate(-310 -879)">
        <circle id="Elipse_3-18" data-name="Elipse 3" cx="2" cy="2" r="2" transform="translate(430 903)" fill="#d9d9d9"/>
      </g>
      <g transform="translate(-286 -879)">
        <circle id="Elipse_3-19" data-name="Elipse 3" cx="2" cy="2" r="2" transform="translate(430 903)" fill="#d9d9d9"/>
      </g>
      <g transform="translate(-262 -879)">
        <circle id="Elipse_3-20" data-name="Elipse 3" cx="2" cy="2" r="2" transform="translate(430 903)" fill="#d9d9d9"/>
      </g>
      <g transform="translate(-238 -879)">
        <circle id="Elipse_3-21" data-name="Elipse 3" cx="2" cy="2" r="2" transform="translate(430 903)" fill="#d9d9d9"/>
      </g>
      <g transform="translate(-214 -879)">
        <circle id="Elipse_3-22" data-name="Elipse 3" cx="2" cy="2" r="2" transform="translate(430 903)" fill="#d9d9d9"/>
      </g>
      <g transform="translate(-190 -879)">
        <circle id="Elipse_3-23" data-name="Elipse 3" cx="2" cy="2" r="2" transform="translate(430 903)" fill="#d9d9d9"/>
      </g>
      <g transform="translate(-166 -879)">
        <circle id="Elipse_3-24" data-name="Elipse 3" cx="2" cy="2" r="2" transform="translate(430 903)" fill="#d9d9d9"/>
      </g>
      <g transform="translate(-430 -855)">
        <circle id="Elipse_3-25" data-name="Elipse 3" cx="2" cy="2" r="2" transform="translate(430 903)" fill="#d9d9d9"/>
      </g>
      <g transform="translate(-406 -855)">
        <circle id="Elipse_3-26" data-name="Elipse 3" cx="2" cy="2" r="2" transform="translate(430 903)" fill="#d9d9d9"/>
      </g>
      <g transform="translate(-382 -855)">
        <circle id="Elipse_3-27" data-name="Elipse 3" cx="2" cy="2" r="2" transform="translate(430 903)" fill="#d9d9d9"/>
      </g>
      <g transform="translate(-358 -855)">
        <circle id="Elipse_3-28" data-name="Elipse 3" cx="2" cy="2" r="2" transform="translate(430 903)" fill="#d9d9d9"/>
      </g>
      <g transform="translate(-334 -855)">
        <circle id="Elipse_3-29" data-name="Elipse 3" cx="2" cy="2" r="2" transform="translate(430 903)" fill="#d9d9d9"/>
      </g>
      <g transform="translate(-310 -855)">
        <circle id="Elipse_3-30" data-name="Elipse 3" cx="2" cy="2" r="2" transform="translate(430 903)" fill="#d9d9d9"/>
      </g>
      <g transform="translate(-286 -855)">
        <circle id="Elipse_3-31" data-name="Elipse 3" cx="2" cy="2" r="2" transform="translate(430 903)" fill="#d9d9d9"/>
      </g>
      <g transform="translate(-262 -855)">
        <circle id="Elipse_3-32" data-name="Elipse 3" cx="2" cy="2" r="2" transform="translate(430 903)" fill="#d9d9d9"/>
      </g>
      <g transform="translate(-238 -855)">
        <circle id="Elipse_3-33" data-name="Elipse 3" cx="2" cy="2" r="2" transform="translate(430 903)" fill="#d9d9d9"/>
      </g>
      <g transform="translate(-214 -855)">
        <circle id="Elipse_3-34" data-name="Elipse 3" cx="2" cy="2" r="2" transform="translate(430 903)" fill="#d9d9d9"/>
      </g>
      <g transform="translate(-190 -855)">
        <circle id="Elipse_3-35" data-name="Elipse 3" cx="2" cy="2" r="2" transform="translate(430 903)" fill="#d9d9d9"/>
      </g>
      <g transform="translate(-166 -855)">
        <circle id="Elipse_3-36" data-name="Elipse 3" cx="2" cy="2" r="2" transform="translate(430 903)" fill="#d9d9d9"/>
      </g>
      <g transform="translate(-430 -831)">
        <circle id="Elipse_3-37" data-name="Elipse 3" cx="2" cy="2" r="2" transform="translate(430 903)" fill="#d9d9d9"/>
      </g>
      <g transform="translate(-406 -831)">
        <circle id="Elipse_3-38" data-name="Elipse 3" cx="2" cy="2" r="2" transform="translate(430 903)" fill="#d9d9d9"/>
      </g>
      <g transform="translate(-382 -831)">
        <circle id="Elipse_3-39" data-name="Elipse 3" cx="2" cy="2" r="2" transform="translate(430 903)" fill="#d9d9d9"/>
      </g>
      <g transform="translate(-358 -831)">
        <circle id="Elipse_3-40" data-name="Elipse 3" cx="2" cy="2" r="2" transform="translate(430 903)" fill="#d9d9d9"/>
      </g>
      <g transform="translate(-334 -831)">
        <circle id="Elipse_3-41" data-name="Elipse 3" cx="2" cy="2" r="2" transform="translate(430 903)" fill="#d9d9d9"/>
      </g>
      <g transform="translate(-310 -831)">
        <circle id="Elipse_3-42" data-name="Elipse 3" cx="2" cy="2" r="2" transform="translate(430 903)" fill="#d9d9d9"/>
      </g>
      <g transform="translate(-286 -831)">
        <circle id="Elipse_3-43" data-name="Elipse 3" cx="2" cy="2" r="2" transform="translate(430 903)" fill="#d9d9d9"/>
      </g>
      <g transform="translate(-262 -831)">
        <circle id="Elipse_3-44" data-name="Elipse 3" cx="2" cy="2" r="2" transform="translate(430 903)" fill="#d9d9d9"/>
      </g>
      <g transform="translate(-238 -831)">
        <circle id="Elipse_3-45" data-name="Elipse 3" cx="2" cy="2" r="2" transform="translate(430 903)" fill="#d9d9d9"/>
      </g>
      <g transform="translate(-214 -831)">
        <circle id="Elipse_3-46" data-name="Elipse 3" cx="2" cy="2" r="2" transform="translate(430 903)" fill="#d9d9d9"/>
      </g>
      <g transform="translate(-190 -831)">
        <circle id="Elipse_3-47" data-name="Elipse 3" cx="2" cy="2" r="2" transform="translate(430 903)" fill="#d9d9d9"/>
      </g>
      <g transform="translate(-166 -831)">
        <circle id="Elipse_3-48" data-name="Elipse 3" cx="2" cy="2" r="2" transform="translate(430 903)" fill="#d9d9d9"/>
      </g>
      <g transform="translate(-430 -807)">
        <circle id="Elipse_3-49" data-name="Elipse 3" cx="2" cy="2" r="2" transform="translate(430 903)" fill="#d9d9d9"/>
      </g>
      <g transform="translate(-406 -807)">
        <circle id="Elipse_3-50" data-name="Elipse 3" cx="2" cy="2" r="2" transform="translate(430 903)" fill="#d9d9d9"/>
      </g>
      <g transform="translate(-382 -807)">
        <circle id="Elipse_3-51" data-name="Elipse 3" cx="2" cy="2" r="2" transform="translate(430 903)" fill="#d9d9d9"/>
      </g>
      <g transform="translate(-358 -807)">
        <circle id="Elipse_3-52" data-name="Elipse 3" cx="2" cy="2" r="2" transform="translate(430 903)" fill="#d9d9d9"/>
      </g>
      <g transform="translate(-334 -807)">
        <circle id="Elipse_3-53" data-name="Elipse 3" cx="2" cy="2" r="2" transform="translate(430 903)" fill="#d9d9d9"/>
      </g>
      <g transform="translate(-310 -807)">
        <circle id="Elipse_3-54" data-name="Elipse 3" cx="2" cy="2" r="2" transform="translate(430 903)" fill="#d9d9d9"/>
      </g>
      <g transform="translate(-286 -807)">
        <circle id="Elipse_3-55" data-name="Elipse 3" cx="2" cy="2" r="2" transform="translate(430 903)" fill="#d9d9d9"/>
      </g>
      <g transform="translate(-262 -807)">
        <circle id="Elipse_3-56" data-name="Elipse 3" cx="2" cy="2" r="2" transform="translate(430 903)" fill="#d9d9d9"/>
      </g>
      <g transform="translate(-238 -807)">
        <circle id="Elipse_3-57" data-name="Elipse 3" cx="2" cy="2" r="2" transform="translate(430 903)" fill="#d9d9d9"/>
      </g>
      <g transform="translate(-214 -807)">
        <circle id="Elipse_3-58" data-name="Elipse 3" cx="2" cy="2" r="2" transform="translate(430 903)" fill="#d9d9d9"/>
      </g>
      <g transform="translate(-190 -807)">
        <circle id="Elipse_3-59" data-name="Elipse 3" cx="2" cy="2" r="2" transform="translate(430 903)" fill="#d9d9d9"/>
      </g>
      <g transform="translate(-166 -807)">
        <circle id="Elipse_3-60" data-name="Elipse 3" cx="2" cy="2" r="2" transform="translate(430 903)" fill="#d9d9d9"/>
      </g>
      <g transform="translate(-430 -783)">
        <circle id="Elipse_3-61" data-name="Elipse 3" cx="2" cy="2" r="2" transform="translate(430 903)" fill="#d9d9d9"/>
      </g>
      <g transform="translate(-406 -783)">
        <circle id="Elipse_3-62" data-name="Elipse 3" cx="2" cy="2" r="2" transform="translate(430 903)" fill="#d9d9d9"/>
      </g>
      <g transform="translate(-382 -783)">
        <circle id="Elipse_3-63" data-name="Elipse 3" cx="2" cy="2" r="2" transform="translate(430 903)" fill="#d9d9d9"/>
      </g>
      <g transform="translate(-358 -783)">
        <circle id="Elipse_3-64" data-name="Elipse 3" cx="2" cy="2" r="2" transform="translate(430 903)" fill="#d9d9d9"/>
      </g>
      <g transform="translate(-334 -783)">
        <circle id="Elipse_3-65" data-name="Elipse 3" cx="2" cy="2" r="2" transform="translate(430 903)" fill="#d9d9d9"/>
      </g>
      <g transform="translate(-310 -783)">
        <circle id="Elipse_3-66" data-name="Elipse 3" cx="2" cy="2" r="2" transform="translate(430 903)" fill="#d9d9d9"/>
      </g>
      <g transform="translate(-286 -783)">
        <circle id="Elipse_3-67" data-name="Elipse 3" cx="2" cy="2" r="2" transform="translate(430 903)" fill="#d9d9d9"/>
      </g>
      <g transform="translate(-262 -783)">
        <circle id="Elipse_3-68" data-name="Elipse 3" cx="2" cy="2" r="2" transform="translate(430 903)" fill="#d9d9d9"/>
      </g>
      <g transform="translate(-238 -783)">
        <circle id="Elipse_3-69" data-name="Elipse 3" cx="2" cy="2" r="2" transform="translate(430 903)" fill="#d9d9d9"/>
      </g>
      <g transform="translate(-214 -783)">
        <circle id="Elipse_3-70" data-name="Elipse 3" cx="2" cy="2" r="2" transform="translate(430 903)" fill="#d9d9d9"/>
      </g>
      <g transform="translate(-190 -783)">
        <circle id="Elipse_3-71" data-name="Elipse 3" cx="2" cy="2" r="2" transform="translate(430 903)" fill="#d9d9d9"/>
      </g>
      <g transform="translate(-166 -783)">
        <circle id="Elipse_3-72" data-name="Elipse 3" cx="2" cy="2" r="2" transform="translate(430 903)" fill="#d9d9d9"/>
      </g>
      <g transform="translate(-430 -759)">
        <circle id="Elipse_3-73" data-name="Elipse 3" cx="2" cy="2" r="2" transform="translate(430 903)" fill="#d9d9d9"/>
      </g>
      <g transform="translate(-406 -759)">
        <circle id="Elipse_3-74" data-name="Elipse 3" cx="2" cy="2" r="2" transform="translate(430 903)" fill="#d9d9d9"/>
      </g>
      <g transform="translate(-382 -759)">
        <circle id="Elipse_3-75" data-name="Elipse 3" cx="2" cy="2" r="2" transform="translate(430 903)" fill="#d9d9d9"/>
      </g>
      <g transform="translate(-358 -759)">
        <circle id="Elipse_3-76" data-name="Elipse 3" cx="2" cy="2" r="2" transform="translate(430 903)" fill="#d9d9d9"/>
      </g>
      <g transform="translate(-334 -759)">
        <circle id="Elipse_3-77" data-name="Elipse 3" cx="2" cy="2" r="2" transform="translate(430 903)" fill="#d9d9d9"/>
      </g>
      <g transform="translate(-310 -759)">
        <circle id="Elipse_3-78" data-name="Elipse 3" cx="2" cy="2" r="2" transform="translate(430 903)" fill="#d9d9d9"/>
      </g>
      <g transform="translate(-286 -759)">
        <circle id="Elipse_3-79" data-name="Elipse 3" cx="2" cy="2" r="2" transform="translate(430 903)" fill="#d9d9d9"/>
      </g>
      <g transform="translate(-262 -759)">
        <circle id="Elipse_3-80" data-name="Elipse 3" cx="2" cy="2" r="2" transform="translate(430 903)" fill="#d9d9d9"/>
      </g>
      <g transform="translate(-238 -759)">
        <circle id="Elipse_3-81" data-name="Elipse 3" cx="2" cy="2" r="2" transform="translate(430 903)" fill="#d9d9d9"/>
      </g>
      <g transform="translate(-214 -759)">
        <circle id="Elipse_3-82" data-name="Elipse 3" cx="2" cy="2" r="2" transform="translate(430 903)" fill="#d9d9d9"/>
      </g>
      <g transform="translate(-190 -759)">
        <circle id="Elipse_3-83" data-name="Elipse 3" cx="2" cy="2" r="2" transform="translate(430 903)" fill="#d9d9d9"/>
      </g>
      <g transform="translate(-166 -759)">
        <circle id="Elipse_3-84" data-name="Elipse 3" cx="2" cy="2" r="2" transform="translate(430 903)" fill="#d9d9d9"/>
      </g>
    </g>
    <g id="Enmascarar_grupo_12" data-name="Enmascarar grupo 12" clip-path="url(#clip-path-2)">
      <g id="Grupo_1820" data-name="Grupo 1820">
        <g id="Grupo_1819" data-name="Grupo 1819">
          <g id="Grupo_1817" data-name="Grupo 1817" transform="translate(1304.719 1707)">
            <g id="Shadow_04dp-3" data-name="Shadow / 04dp" transform="translate(0 0)">
              <g transform="matrix(1, 0, 0, 1, -11.72, -13)" filter="url(#Shadow_04dp)">
                <rect id="Shadow_04dp-4" data-name="Shadow / 04dp" width="286.422" height="44.914" rx="4" transform="translate(11.72 13)" fill="#fff"/>
              </g>
            </g>
            <g id="Icon_Keyboard_Arrow_-_Down_Filled" data-name="Icon / Keyboard Arrow - Down / Filled" transform="translate(243.872 12.24)">
              <rect id="Box" width="20.643" height="20.643" transform="translate(0)" fill="none"/>
              <path id="Icon_Keyboard_Arrow_-_Up_Dark" data-name="Icon / Keyboard Arrow - Up / Dark" d="M9.117,6.365,5.161,2.408,1.2,6.365,0,5.161,5.161,0l5.161,5.161Z" transform="translate(15.482 13.245) rotate(180)" fill="#666"/>
            </g>
            <g id="Body1_Open_Sans_Regular" data-name="Body1 / Open Sans / Regular" transform="translate(18.903 16.219)" clip-path="url(#clip-path-3)">
              <text id="_Text_Body_1_Selected_On_Surface_Medium_Emphasis_Left_" data-name="✱ / Text / Body 1 / Selected / On Surface / Medium Emphasis / Left " transform="translate(0 10)" fill="#666" font-size="9" font-family="OpenSans-Regular, Open Sans" letter-spacing="0.031em"><tspan x="0" y="0">This is the first accordion</tspan></text>
            </g>
          </g>
          <g id="Grupo_1818" data-name="Grupo 1818" transform="translate(1304.812 1753.162)">
            <g id="Shadow_04dp-5" data-name="Shadow / 04dp" transform="translate(0 0)">
              <g transform="matrix(1, 0, 0, 1, -11.81, -59.16)" filter="url(#Shadow_04dp-2)">
                <g id="Shadow_04dp-6" data-name="Shadow / 04dp" transform="translate(11.81 59.16)" fill="#ffed00" stroke="#eee" stroke-width="1">
                  <rect width="286.422" height="228.838" rx="4" stroke="none"/>
                  <rect x="0.5" y="0.5" width="285.422" height="227.838" rx="3.5" fill="none"/>
                </g>
              </g>
            </g>
            <g id="Icon_Keyboard_Arrow_-_Down_Filled-2" data-name="Icon / Keyboard Arrow - Down / Filled" transform="translate(264.514 32.503) rotate(180)">
              <rect id="Box-2" data-name="Box" width="20.643" height="20.643" fill="none"/>
              <path id="Icon_Keyboard_Arrow_-_Up_Dark-2" data-name="Icon / Keyboard Arrow - Up / Dark" d="M9.117,6.365,5.161,2.408,1.2,6.365,0,5.161,5.161,0l5.161,5.161Z" transform="translate(15.482 13.245) rotate(180)"/>
            </g>
            <g id="Body1_Open_Sans_Regular-2" data-name="Body1 / Open Sans / Regular" transform="translate(18.903 15.552)" clip-path="url(#clip-path-4)">
              <text id="_Text_Body_1_Selected_On_Surface_Medium_Emphasis_Left_2" data-name="✱ / Text / Body 1 / Selected / On Surface / Medium Emphasis / Left " transform="translate(0 10)" font-size="9" font-family="OpenSans-Regular, Open Sans" letter-spacing="0.031em"><tspan x="0" y="0">Second accordion</tspan></text>
            </g>
            <g id="Componente_31_1" data-name="Componente 31 – 1" transform="translate(18.807 63.254)" clip-path="url(#clip-path-5)">
              <g id="Body1_Open_Sans_Regular-3" data-name="Body1 / Open Sans / Regular" transform="translate(0.312 3.119)" clip-path="url(#clip-path-6)">
                <text id="_Text_Body_1_Selected_On_Surface_Medium_Emphasis_Left_3" data-name="✱ / Text / Body 1 / Selected / On Surface / Medium Emphasis / Left " transform="translate(0 10)" fill="#666" font-size="9" font-family="OpenSans-Regular, Open Sans" letter-spacing="0.031em"><tspan x="0" y="0">Your name</tspan></text>
              </g>
              <line id="Línea_100" data-name="Línea 100" x2="145.348" transform="translate(0 21.21)" fill="none" stroke="#666" stroke-width="1"/>
            </g>
            <g id="Componente_31_2" data-name="Componente 31 – 2" transform="translate(18.807 103.802)" clip-path="url(#clip-path-5)">
              <g id="Body1_Open_Sans_Regular-4" data-name="Body1 / Open Sans / Regular" transform="translate(0.312 3.119)" clip-path="url(#clip-path-8)">
                <text id="_Text_Body_1_Selected_On_Surface_Medium_Emphasis_Left_4" data-name="✱ / Text / Body 1 / Selected / On Surface / Medium Emphasis / Left " transform="translate(0 10)" fill="#666" font-size="9" font-family="OpenSans-Regular, Open Sans" letter-spacing="0.031em"><tspan x="0" y="0">Your phone</tspan></text>
              </g>
              <line id="Línea_100-2" data-name="Línea 100" x2="145.348" transform="translate(0 21.21)" fill="none" stroke="#666" stroke-width="1"/>
            </g>
            <g id="Componente_31_3" data-name="Componente 31 – 3" transform="translate(18.807 144.35)" clip-path="url(#clip-path-5)">
              <g id="Body1_Open_Sans_Regular-5" data-name="Body1 / Open Sans / Regular" transform="translate(0.312 3.119)" clip-path="url(#clip-path-10)">
                <text id="_Text_Body_1_Selected_On_Surface_Medium_Emphasis_Left_5" data-name="✱ / Text / Body 1 / Selected / On Surface / Medium Emphasis / Left " transform="translate(0 10)" fill="#666" font-size="9" font-family="OpenSans-Regular, Open Sans" letter-spacing="0.031em"><tspan x="0" y="0">Your address</tspan></text>
              </g>
              <line id="Línea_100-3" data-name="Línea 100" x2="145.348" transform="translate(0 21.21)" fill="none" stroke="#666" stroke-width="1"/>
            </g>
            <g id="Button_Outlined" data-name="Button Outlined" transform="translate(104.8 183.401)" clip-path="url(#clip-path-11)">
              <g id="Buttons_Text_Enabled" data-name="Buttons / Text / Enabled">
                <g id="Box-3" data-name="Box" fill="none" stroke="#000" stroke-width="2">
                  <rect width="76.105" height="26.824" rx="4" stroke="none"/>
                  <rect x="1" y="1" width="74.105" height="24.824" rx="3" fill="none"/>
                </g>
              </g>
              <text id="_Text_Button_Selected_On_Surface_High_Emphasis_Left" data-name="✱ / Text / Button / Selected / On Surface / High Emphasis / Left" transform="translate(25.576 16.486)" font-size="8" font-family="OpenSans-Regular, Open Sans" letter-spacing="0.089em"><tspan x="0" y="0">SEND</tspan></text>
            </g>
          </g>
        </g>
        <path id="Trazado_2063" data-name="Trazado 2063" d="M1,0H286.953" transform="translate(1304.5 1798.077)" fill="none" stroke="#000" stroke-width="1"/>
      </g>
    </g>
  </g>
</svg>
