<?xml version="1.0" encoding="UTF-8" standalone="no"?>
<svg
   xmlns:dc="http://purl.org/dc/elements/1.1/"
   xmlns:cc="http://creativecommons.org/ns#"
   xmlns:rdf="http://www.w3.org/1999/02/22-rdf-syntax-ns#"
   xmlns:svg="http://www.w3.org/2000/svg"
   xmlns="http://www.w3.org/2000/svg"
   xmlns:sodipodi="http://sodipodi.sourceforge.net/DTD/sodipodi-0.dtd"
   xmlns:inkscape="http://www.inkscape.org/namespaces/inkscape"
   version="1.1"
   id="svg2"
   xml:space="preserve"
   width="165"
   height="110"
   viewBox="0 0 165 110"
   sodipodi:docname="DXC Logo_Black RGB.eps"><metadata
     id="metadata8"><rdf:RDF><cc:Work
         rdf:about=""><dc:format>image/svg+xml</dc:format><dc:type
           rdf:resource="http://purl.org/dc/dcmitype/StillImage" /></cc:Work></rdf:RDF></metadata><defs
     id="defs6" /><sodipodi:namedview
     pagecolor="#ffffff"
     bordercolor="#666666"
     borderopacity="1"
     objecttolerance="10"
     gridtolerance="10"
     guidetolerance="10"
     inkscape:pageopacity="0"
     inkscape:pageshadow="2"
     inkscape:window-width="640"
     inkscape:window-height="480"
     id="namedview4" /><g
     id="g10"
     inkscape:groupmode="layer"
     inkscape:label="ink_ext_XXXXXX"
     transform="matrix(1.3333333,0,0,-1.3333333,0,110)"><g
       id="g12"
       transform="scale(0.1)"><path
         d="m 1056.9,191.07 v -31.91 h -17.61 v 31.563 l -30.76,48.488 h 20.58 l 19.1,-32.137 19.44,32.137 h 20.01 z m -98.22,-33.281 c -24.926,0 -42.078,17.5 -42.078,41.172 v 0.223 c 0,22.757 17.722,41.402 41.961,41.402 14.414,0 23.101,-3.891 31.449,-10.981 l -11.086,-13.382 c -6.18,5.148 -11.668,8.125 -20.934,8.125 -12.808,0 -22.984,-11.325 -22.984,-24.934 v -0.23 c 0,-14.637 10.062,-25.383 24.242,-25.383 6.406,0 12.121,1.597 16.582,4.804 v 11.43 h -17.723 v 15.207 h 34.766 v -34.758 c -8.234,-6.976 -19.555,-12.695 -34.195,-12.695 z m -81.739,41.395 c 0,13.726 -10.062,25.164 -24.242,25.164 -14.179,0 -24.015,-11.211 -24.015,-24.934 v -0.23 c 0,-13.719 10.058,-25.157 24.238,-25.157 14.187,0 24.019,11.207 24.019,24.934 z m -24.242,-41.395 c -24.703,0 -42.426,18.41 -42.426,41.172 v 0.223 c 0,22.757 17.954,41.402 42.649,41.402 24.707,0 42.433,-18.414 42.433,-41.172 v -0.23 c 0,-22.754 -17.96,-41.395 -42.656,-41.395 z m -116.855,1.371 v 80.051 h 17.605 v -64.039 h 39.914 V 159.16 Z m -43.727,40.024 c 0,13.726 -10.066,25.164 -24.242,25.164 -14.184,0 -24.02,-11.211 -24.02,-24.934 v -0.23 c 0,-13.719 10.063,-25.157 24.243,-25.157 14.179,0 24.019,11.207 24.019,24.934 z m -24.242,-41.395 c -24.703,0 -42.426,18.41 -42.426,41.172 v 0.223 c 0,22.757 17.953,41.402 42.649,41.402 24.703,0 42.429,-18.414 42.429,-41.172 v -0.23 c 0,-22.754 -17.957,-41.395 -42.652,-41.395 z m -82.91,1.371 -38.766,50.895 V 159.16 h -17.386 v 80.051 h 16.246 l 37.504,-49.285 v 49.285 h 17.382 V 159.16 Z m -105.043,0 v 32.133 H 447.441 V 159.16 h -17.609 v 80.051 h 17.609 v -31.676 h 32.481 v 31.676 h 17.605 V 159.16 Z m -107.414,-1.371 c -23.559,0 -41.055,18.184 -41.055,41.172 v 0.223 c 0,22.757 17.152,41.402 41.738,41.402 15.094,0 24.125,-5.035 31.563,-12.356 l -11.211,-12.917 c -6.172,5.601 -12.461,9.035 -20.465,9.035 -13.496,0 -23.215,-11.211 -23.215,-24.934 v -0.23 c 0,-13.719 9.492,-25.157 23.215,-25.157 9.149,0 14.75,3.664 21.035,9.375 l 11.211,-11.316 c -8.234,-8.809 -17.383,-14.297 -32.816,-14.297 z m -124.91,1.371 v 80.051 h 60.375 v -15.672 h -42.875 v -16.234 h 37.73 v -15.664 h -37.73 v -16.813 h 43.449 V 159.16 Z m -47.922,63.809 V 159.16 h -17.613 v 63.809 h -24.356 v 16.242 h 66.324 v -16.242 h -24.355"
         style="fill:#100f0d;fill-opacity:1;fill-rule:nonzero;stroke:none"
         id="path14" /><path
         d="m 855.637,512.871 c 4.972,18.184 14.73,35.367 28.609,49.516 19.195,19.992 47.578,31.187 77.168,31.187 h 125.146 v 71.973 H 961.414 c -49.578,0 -97.953,-20.789 -130.348,-53.578 -17.195,-16.793 -29.984,-36.789 -39.183,-57.578 -6.332,-13.633 -10.27,-27.414 -12.391,-41.52 z m 0,-54.906 c 4.972,-18.184 14.73,-35.367 28.609,-49.52 19.195,-19.988 47.578,-31.183 77.168,-31.183 H 1086.56 V 305.289 H 961.414 c -49.578,0 -97.953,20.789 -130.348,53.578 -17.195,16.793 -29.984,36.785 -39.183,57.578 -6.332,13.633 -10.27,27.41 -12.391,41.52 z M 622.332,425.535 526.77,305.289 H 432.004 L 575.148,485.422 432.004,665.547 h 94.766 l 95.562,-120.234 95.559,120.234 H 812.66 L 669.516,485.422 812.66,305.289 h -94.769 z m -157.156,87.336 c -2.129,14.106 -6.063,27.887 -12.395,41.52 -9.199,20.789 -21.992,40.785 -39.183,57.578 -32.395,32.789 -80.774,53.578 -130.348,53.578 H 158.105 V 593.574 H 283.25 c 29.586,0 57.973,-11.195 77.168,-31.187 13.879,-14.149 23.633,-31.332 28.609,-49.516 z m 0,-54.906 c -2.129,-14.11 -6.063,-27.887 -12.395,-41.52 C 443.582,395.652 430.789,375.66 413.598,358.867 381.203,326.078 332.824,305.289 283.25,305.289 H 158.105 v 71.973 H 283.25 c 29.586,0 57.973,11.195 77.168,31.183 13.879,14.153 23.633,31.336 28.609,49.52 h 76.149"
         style="fill:#100f0d;fill-opacity:1;fill-rule:nonzero;stroke:none"
         id="path16" /></g></g></svg>
