<svg xmlns="http://www.w3.org/2000/svg" xmlns:xlink="http://www.w3.org/1999/xlink" width="1149" height="466" viewBox="0 0 1149 466">
  <defs>
    <filter id="Shadow_04dp" x="188" y="46" width="612" height="78" filterUnits="userSpaceOnUse">
      <feOffset dy="6" input="SourceAlpha"/>
      <feGaussianBlur stdDeviation="5" result="blur"/>
      <feFlood flood-opacity="0.141"/>
      <feComposite operator="in" in2="blur"/>
      <feComposite in="SourceGraphic"/>
    </filter>
    <filter id="Shadow_04dp-2" x="188" y="126" width="612" height="78" filterUnits="userSpaceOnUse">
      <feOffset dy="6" input="SourceAlpha"/>
      <feGaussianBlur stdDeviation="5" result="blur-2"/>
      <feFlood flood-opacity="0.141"/>
      <feComposite operator="in" in2="blur-2"/>
      <feComposite in="SourceGraphic"/>
    </filter>
    <filter id="Shadow_04dp-3" x="188" y="206" width="612" height="78" filterUnits="userSpaceOnUse">
      <feOffset dy="6" input="SourceAlpha"/>
      <feGaussianBlur stdDeviation="5" result="blur-3"/>
      <feFlood flood-opacity="0.141"/>
      <feComposite operator="in" in2="blur-3"/>
      <feComposite in="SourceGraphic"/>
    </filter>
    <filter id="Shadow_04dp-4" x="188" y="286" width="612" height="78" filterUnits="userSpaceOnUse">
      <feOffset dy="6" input="SourceAlpha"/>
      <feGaussianBlur stdDeviation="5" result="blur-4"/>
      <feFlood flood-opacity="0.141"/>
      <feComposite operator="in" in2="blur-4"/>
      <feComposite in="SourceGraphic"/>
    </filter>
    <filter id="Shadow_04dp-5" x="188" y="366" width="612" height="78" filterUnits="userSpaceOnUse">
      <feOffset dy="6" input="SourceAlpha"/>
      <feGaussianBlur stdDeviation="5" result="blur-5"/>
      <feFlood flood-opacity="0.141"/>
      <feComposite operator="in" in2="blur-5"/>
      <feComposite in="SourceGraphic"/>
    </filter>
  </defs>
  <g id="Group_4114" data-name="Group 4114" transform="translate(-386 -1353)">
    <rect id="Rectangle_1949" data-name="Rectangle 1949" width="1149" height="466" rx="4" transform="translate(386 1353)" fill="#fafafa"/>
    <text id="_Text_Body_1_Selected_On_Surface_Medium_Emphasis_Left_" data-name="✱ / Text / Body 1 / Selected / On Surface / Medium Emphasis / Left " transform="translate(1231 1438)" fill="#666" font-size="16" font-family="OpenSans, Open Sans" letter-spacing="0.031em"><tspan x="0" y="0">Enabled</tspan></text>
    <text id="_Text_Body_1_Selected_On_Surface_Medium_Emphasis_Left_2" data-name="✱ / Text / Body 1 / Selected / On Surface / Medium Emphasis / Left " transform="translate(1231 1758)" fill="#666" font-size="16" font-family="OpenSans, Open Sans" letter-spacing="0.031em"><tspan x="0" y="0">Disabled</tspan></text>
    <text id="_Text_Body_1_Selected_On_Surface_Medium_Emphasis_Left_3" data-name="✱ / Text / Body 1 / Selected / On Surface / Medium Emphasis / Left " transform="translate(1231 1518)" fill="#666" font-size="16" font-family="OpenSans, Open Sans" letter-spacing="0.031em"><tspan x="0" y="0">Hover</tspan></text>
    <text id="_Text_Body_1_Selected_On_Surface_Medium_Emphasis_Left_4" data-name="✱ / Text / Body 1 / Selected / On Surface / Medium Emphasis / Left " transform="translate(1231 1678)" fill="#666" font-size="16" font-family="OpenSans, Open Sans" letter-spacing="0.031em"><tspan x="0" y="0">Hover + Focus</tspan></text>
    <text id="_Text_Body_1_Selected_On_Surface_Medium_Emphasis_Left_5" data-name="✱ / Text / Body 1 / Selected / On Surface / Medium Emphasis / Left " transform="translate(1231 1598)" fill="#666" font-size="16" font-family="OpenSans, Open Sans" letter-spacing="0.031em"><tspan x="0" y="0">Focus</tspan></text>
    <g id="Accordion-collapsed-noIcon-48" transform="translate(589 1408)">
      <g id="Shadow_04dp-6" data-name="Shadow / 04dp" transform="translate(-0.5)">
        <g transform="matrix(1, 0, 0, 1, -202.5, -55)" filter="url(#Shadow_04dp)">
          <rect id="Shadow_04dp-7" data-name="Shadow / 04dp" width="582" height="48" rx="4" transform="translate(203 55)" fill="#fff"/>
        </g>
      </g>
      <text id="_Text_Body_1_Selected_On_Surface_Medium_Emphasis_Left_6" data-name="✱ / Text / Body 1 / Selected / On Surface / Medium Emphasis / Left " transform="translate(24 30)" fill="#666" font-size="16" font-family="OpenSans, Open Sans" letter-spacing="0.031em"><tspan x="0" y="0">Collapsed accordion</tspan></text>
      <g id="expand_more-24px" transform="translate(542 12)">
        <path id="Path_2872" data-name="Path 2872" d="M0,0H24V24H0Z" fill="none"/>
        <path id="Path_2873" data-name="Path 2873" d="M16.59,8.59,12,13.17,7.41,8.59,6,10l6,6,6-6Z" fill="#6f2c91"/>
      </g>
    </g>
    <g id="Accordion-collapsed-noIcon-48-2" data-name="Accordion-collapsed-noIcon-48" transform="translate(589 1488)">
      <g id="Shadow_04dp-8" data-name="Shadow / 04dp" transform="translate(-0.5)">
        <g transform="matrix(1, 0, 0, 1, -202.5, -135)" filter="url(#Shadow_04dp-2)">
          <rect id="Shadow_04dp-9" data-name="Shadow / 04dp" width="582" height="48" rx="4" transform="translate(203 135)" fill="#f5ebf9"/>
        </g>
      </g>
      <text id="_Text_Body_1_Selected_On_Surface_Medium_Emphasis_Left_7" data-name="✱ / Text / Body 1 / Selected / On Surface / Medium Emphasis / Left " transform="translate(24 30)" fill="#666" font-size="16" font-family="OpenSans, Open Sans" letter-spacing="0.031em"><tspan x="0" y="0">Collapsed accordion</tspan></text>
      <g id="expand_more-24px-2" data-name="expand_more-24px" transform="translate(542 12)">
        <path id="Path_2872-2" data-name="Path 2872" d="M0,0H24V24H0Z" fill="none"/>
        <path id="Path_2873-2" data-name="Path 2873" d="M16.59,8.59,12,13.17,7.41,8.59,6,10l6,6,6-6Z" fill="#6f2c91"/>
      </g>
    </g>
    <g id="Accordion-collapsed-noIcon-48-3" data-name="Accordion-collapsed-noIcon-48" transform="translate(589 1568)">
      <g id="Shadow_04dp-10" data-name="Shadow / 04dp" transform="translate(-0.5)">
        <g transform="matrix(1, 0, 0, 1, -202.5, -215)" filter="url(#Shadow_04dp-3)">
          <g id="Shadow_04dp-11" data-name="Shadow / 04dp" transform="translate(203 215)" fill="#fff" stroke="#6f2c91" stroke-width="1">
            <rect width="582" height="48" rx="4" stroke="none"/>
            <rect x="0.5" y="0.5" width="581" height="47" rx="3.5" fill="none"/>
          </g>
        </g>
      </g>
      <text id="_Text_Body_1_Selected_On_Surface_Medium_Emphasis_Left_8" data-name="✱ / Text / Body 1 / Selected / On Surface / Medium Emphasis / Left " transform="translate(24 30)" fill="#666" font-size="16" font-family="OpenSans, Open Sans" letter-spacing="0.031em"><tspan x="0" y="0">Collapsed accordion</tspan></text>
      <g id="expand_more-24px-3" data-name="expand_more-24px" transform="translate(542 12)">
        <path id="Path_2872-3" data-name="Path 2872" d="M0,0H24V24H0Z" fill="none"/>
        <path id="Path_2873-3" data-name="Path 2873" d="M16.59,8.59,12,13.17,7.41,8.59,6,10l6,6,6-6Z" fill="#6f2c91"/>
      </g>
    </g>
    <g id="Accordion-collapsed-noIcon-48-4" data-name="Accordion-collapsed-noIcon-48" transform="translate(589 1648)">
      <g id="Shadow_04dp-12" data-name="Shadow / 04dp" transform="translate(-0.5)">
        <g transform="matrix(1, 0, 0, 1, -202.5, -295)" filter="url(#Shadow_04dp-4)">
          <g id="Shadow_04dp-13" data-name="Shadow / 04dp" transform="translate(203 295)" fill="#f5ebf9" stroke="#6f2c91" stroke-width="1">
            <rect width="582" height="48" rx="4" stroke="none"/>
            <rect x="0.5" y="0.5" width="581" height="47" rx="3.5" fill="none"/>
          </g>
        </g>
      </g>
      <text id="_Text_Body_1_Selected_On_Surface_Medium_Emphasis_Left_9" data-name="✱ / Text / Body 1 / Selected / On Surface / Medium Emphasis / Left " transform="translate(24 30)" fill="#666" font-size="16" font-family="OpenSans, Open Sans" letter-spacing="0.031em"><tspan x="0" y="0">Collapsed accordion</tspan></text>
      <g id="expand_more-24px-4" data-name="expand_more-24px" transform="translate(542 12)">
        <path id="Path_2872-4" data-name="Path 2872" d="M0,0H24V24H0Z" fill="none"/>
        <path id="Path_2873-4" data-name="Path 2873" d="M16.59,8.59,12,13.17,7.41,8.59,6,10l6,6,6-6Z" fill="#6f2c91"/>
      </g>
    </g>
    <g id="Accordion-collapsed-noIcon-48-5" data-name="Accordion-collapsed-noIcon-48" transform="translate(589 1728)">
      <g id="Shadow_04dp-14" data-name="Shadow / 04dp" transform="translate(-0.5)">
        <g transform="matrix(1, 0, 0, 1, -202.5, -375)" filter="url(#Shadow_04dp-5)">
          <rect id="Shadow_04dp-15" data-name="Shadow / 04dp" width="582" height="48" rx="4" transform="translate(203 375)" fill="#fff"/>
        </g>
      </g>
      <text id="_Text_Body_1_Selected_On_Surface_Medium_Emphasis_Left_10" data-name="✱ / Text / Body 1 / Selected / On Surface / Medium Emphasis / Left " transform="translate(24 30)" fill="#bfbfbf" font-size="16" font-family="OpenSans, Open Sans" letter-spacing="0.031em"><tspan x="0" y="0">Collapsed accordion</tspan></text>
      <g id="expand_more-24px-5" data-name="expand_more-24px" transform="translate(542 12)">
        <path id="Path_2872-5" data-name="Path 2872" d="M0,0H24V24H0Z" fill="none"/>
        <path id="Path_2873-5" data-name="Path 2873" d="M16.59,8.59,12,13.17,7.41,8.59,6,10l6,6,6-6Z" fill="#bfbfbf"/>
      </g>
    </g>
  </g>
</svg>
