<svg xmlns="http://www.w3.org/2000/svg" xmlns:xlink="http://www.w3.org/1999/xlink" width="361" height="302" viewBox="0 0 361 302">
  <defs>
    <filter id="Rectangle_1953" x="7" y="53" width="347" height="190" filterUnits="userSpaceOnUse">
      <feOffset dy="3" input="SourceAlpha"/>
      <feGaussianBlur stdDeviation="3" result="blur"/>
      <feFlood flood-opacity="0.161"/>
      <feComposite operator="in" in2="blur"/>
      <feComposite in="SourceGraphic"/>
    </filter>
  </defs>
  <g id="Group_4117" data-name="Group 4117" transform="translate(-781 -2874)">
    <g id="Group_3684" data-name="Group 3684" transform="translate(781 2874)">
      <rect id="Rectangle_1842" data-name="Rectangle 1842" width="361" height="302" fill="#fafafa" opacity="0.521"/>
    </g>
    <g transform="matrix(1, 0, 0, 1, 781, 2874)" filter="url(#Rectangle_1953)">
      <rect id="Rectangle_1953-2" data-name="Rectangle 1953" width="329" height="172" transform="translate(16 59)" fill="#fff"/>
    </g>
    <rect id="Rectangle_1962" data-name="Rectangle 1962" width="227" height="172" transform="translate(797 2933)" fill="#d9d9d9"/>
    <rect id="Rectangle_1968" data-name="Rectangle 1968" width="84" height="7" transform="translate(1032 2989)" fill="#d9d9d9"/>
    <rect id="Rectangle_1967" data-name="Rectangle 1967" width="57" height="16" transform="translate(1032 2963)" fill="#d9d9d9"/>
    <rect id="Rectangle_1965" data-name="Rectangle 1965" width="329" height="12" transform="translate(797 2933)" fill="#6f2c91"/>
    <g id="Group_4076" data-name="Group 4076" transform="translate(927 2880)">
      <line id="Line_1359" data-name="Line 1359" x2="86" transform="translate(105 177.5)" fill="none" stroke="#707070" stroke-width="0.2"/>
      <rect id="Rectangle_1960" data-name="Rectangle 1960" width="55" height="7" transform="translate(111 166)" fill="#d9d9d9"/>
      <rect id="Rectangle_1961" data-name="Rectangle 1961" width="55" height="7" transform="translate(111 182)" fill="#d9d9d9"/>
      <line id="Line_1358" data-name="Line 1358" x2="86" transform="translate(105 161.5)" fill="none" stroke="#707070" stroke-width="0.2"/>
      <rect id="Rectangle_1959" data-name="Rectangle 1959" width="55" height="7" transform="translate(111 150)" fill="#d9d9d9"/>
      <g id="expand_more-24px" transform="translate(177 147.5)">
        <path id="Path_2872" data-name="Path 2872" d="M0,0H12V12H0Z" fill="none"/>
        <path id="Path_2873" data-name="Path 2873" d="M10.854,8.59l-2.1,2.1-2.1-2.1L6,9.236l2.75,2.75,2.75-2.75Z" transform="translate(-2.75 -4.135)" fill="#666"/>
      </g>
      <g id="expand_more-24px-2" data-name="expand_more-24px" transform="translate(177 163.5)">
        <path id="Path_2872-2" data-name="Path 2872" d="M0,0H12V12H0Z" fill="none"/>
        <path id="Path_2873-2" data-name="Path 2873" d="M10.854,8.59l-2.1,2.1-2.1-2.1L6,9.236l2.75,2.75,2.75-2.75Z" transform="translate(-2.75 -4.135)" fill="#666"/>
      </g>
      <g id="expand_more-24px-3" data-name="expand_more-24px" transform="translate(177 179.5)">
        <path id="Path_2872-3" data-name="Path 2872" d="M0,0H12V12H0Z" fill="none"/>
        <path id="Path_2873-3" data-name="Path 2873" d="M10.854,8.59l-2.1,2.1-2.1-2.1L6,9.236l2.75,2.75,2.75-2.75Z" transform="translate(-2.75 -4.135)" fill="#666"/>
      </g>
      <g id="Rectangle_1963" data-name="Rectangle 1963" transform="translate(105 145.5)" fill="none" stroke="#707070" stroke-width="0.2">
        <rect width="86" height="48" rx="1" stroke="none"/>
        <rect x="0.1" y="0.1" width="85.8" height="47.8" rx="0.9" fill="none"/>
      </g>
    </g>
  </g>
</svg>
