<svg xmlns="http://www.w3.org/2000/svg" xmlns:xlink="http://www.w3.org/1999/xlink" width="1149" height="379" viewBox="0 0 1149 379">
  <defs>
    <filter id="Rectangle_1934" x="599" y="41" width="378" height="304" filterUnits="userSpaceOnUse">
      <feOffset dy="3" input="SourceAlpha"/>
      <feGaussianBlur stdDeviation="3" result="blur"/>
      <feFlood flood-opacity="0.161"/>
      <feComposite operator="in" in2="blur"/>
      <feComposite in="SourceGraphic"/>
    </filter>
    <filter id="Shadow_04dp" x="123" y="157" width="390" height="78" filterUnits="userSpaceOnUse">
      <feOffset dy="6" input="SourceAlpha"/>
      <feGaussianBlur stdDeviation="5" result="blur-2"/>
      <feFlood flood-opacity="0.141"/>
      <feComposite operator="in" in2="blur-2"/>
      <feComposite in="SourceGraphic"/>
    </filter>
  </defs>
  <g id="Group_4121" data-name="Group 4121" transform="translate(-386 -4069)">
    <g id="Group_3698" data-name="Group 3698" transform="translate(271 -3364)">
      <g id="Group_1277" data-name="Group 1277" transform="translate(-455 5014.453)">
        <rect id="Rectangle_1842" data-name="Rectangle 1842" width="1149" height="379" transform="translate(570 2418.547)" fill="#fafafa" opacity="0.521"/>
      </g>
      <g id="Group_3604" data-name="Group 3604" transform="translate(608 3075)">
        <g transform="matrix(1, 0, 0, 1, -493, 4358)" filter="url(#Rectangle_1934)">
          <rect id="Rectangle_1934-2" data-name="Rectangle 1934" width="360" height="286" rx="4" transform="translate(608 47)" fill="#fff"/>
        </g>
        <text id="_Text_Body_1_Selected_On_Surface_Medium_Emphasis_Left_" data-name="✱ / Text / Body 1 / Selected / On Surface / Medium Emphasis / Left " transform="translate(139 4435)" fill="#666" font-size="16" font-family="OpenSans, Open Sans" letter-spacing="0.031em"><tspan x="0" y="0">Expanded accordion</tspan></text>
        <g id="expand_more-24px" transform="translate(458.828 4441) rotate(180)">
          <path id="Path_2872" data-name="Path 2872" d="M0,0H24V24H0Z" fill="none"/>
          <path id="Path_2873" data-name="Path 2873" d="M10.59,0,6,4.58,1.41,0,0,1.41l6,6,6-6Z" transform="translate(6 8.59)" fill="#6f2c91"/>
        </g>
        <g id="Rectangle_1937" data-name="Rectangle 1937" transform="translate(115 4405)" fill="none" stroke="#6f2c91" stroke-width="1">
          <path d="M4,0H356a4,4,0,0,1,4,4V48a0,0,0,0,1,0,0H0a0,0,0,0,1,0,0V4A4,4,0,0,1,4,0Z" stroke="none"/>
          <path d="M4,.5H356A3.5,3.5,0,0,1,359.5,4V47a.5.5,0,0,1-.5.5H1A.5.5,0,0,1,.5,47V4A3.5,3.5,0,0,1,4,.5Z" fill="none"/>
        </g>
        <rect id="Rectangle_2243" data-name="Rectangle 2243" width="296" height="16" transform="translate(139 4525)" fill="#f2f2f2"/>
        <rect id="Rectangle_2244" data-name="Rectangle 2244" width="258" height="16" transform="translate(139 4550)" fill="#f2f2f2"/>
        <rect id="Rectangle_2245" data-name="Rectangle 2245" width="145" height="24" transform="translate(139 4477)" fill="#d9d9d9"/>
      </g>
      <g id="Group_3634" data-name="Group 3634" transform="translate(253.042 7599)">
        <g id="Shadow_04dp-2" data-name="Shadow / 04dp" transform="translate(-0.042)">
          <g transform="matrix(1, 0, 0, 1, -138, -166)" filter="url(#Shadow_04dp)">
            <rect id="Shadow_04dp-3" data-name="Shadow / 04dp" width="360" height="48" rx="4" transform="translate(138 166)" fill="#fff"/>
          </g>
        </g>
        <text id="_Text_Body_1_Selected_On_Surface_Medium_Emphasis_Left_2" data-name="✱ / Text / Body 1 / Selected / On Surface / Medium Emphasis / Left " transform="translate(23.958 30)" fill="#666" font-size="16" font-family="OpenSans, Open Sans" letter-spacing="0.031em"><tspan x="0" y="0">Collapsed accordion</tspan></text>
        <g id="expand_more-24px-2" data-name="expand_more-24px" transform="translate(320.051 12)">
          <path id="Path_2872-2" data-name="Path 2872" d="M0,0H24V24H0Z" fill="none"/>
          <path id="Path_2873-2" data-name="Path 2873" d="M16.59,8.59,12,13.17,7.41,8.59,6,10l6,6,6-6Z" fill="#6f2c91"/>
        </g>
      </g>
    </g>
  </g>
</svg>
