<svg xmlns="http://www.w3.org/2000/svg" xmlns:xlink="http://www.w3.org/1999/xlink" width="1148" height="253" viewBox="0 0 1148 253">
  <defs>
    <filter id="Shadow_04dp" x="343.078" y="82.582" width="390" height="78" filterUnits="userSpaceOnUse">
      <feOffset dy="6" input="SourceAlpha"/>
      <feGaussianBlur stdDeviation="5" result="blur"/>
      <feFlood flood-opacity="0.141"/>
      <feComposite operator="in" in2="blur"/>
      <feComposite in="SourceGraphic"/>
    </filter>
  </defs>
  <g id="Group_4137" data-name="Group 4137" transform="translate(-386 -9839)">
    <rect id="Rectangle_2241" data-name="Rectangle 2241" width="1148" height="253" transform="translate(386 9839)" fill="#fafafa" opacity="0.521"/>
    <g id="Group_3643" data-name="Group 3643" transform="translate(629.078 6404.582)">
      <g id="Shadow_04dp-2" data-name="Shadow / 04dp" transform="translate(115 3526)">
        <g transform="matrix(1, 0, 0, 1, -358.08, -91.58)" filter="url(#Shadow_04dp)">
          <rect id="Shadow_04dp-3" data-name="Shadow / 04dp" width="360" height="48" rx="4" transform="translate(358.08 91.58)" fill="#fff"/>
        </g>
      </g>
      <text id="_Text_Body_1_Selected_On_Surface_Medium_Emphasis_Left_" data-name="✱ / Text / Body 1 / Selected / On Surface / Medium Emphasis / Left " transform="translate(131 3556)" fill="#666" font-size="16" font-family="OpenSans, Open Sans" letter-spacing="0.031em"><tspan x="0" y="0">This is the first accordion</tspan></text>
      <g id="expand_more-24px" transform="translate(435 3538)">
        <path id="Path_2872" data-name="Path 2872" d="M0,0H24V24H0Z" fill="none"/>
        <path id="Path_2873" data-name="Path 2873" d="M16.59,8.59,12,13.17,7.41,8.59,6,10l6,6,6-6Z" fill="#6f2c91"/>
      </g>
    </g>
    <line id="Line_1350" data-name="Line 1350" x1="443.617" transform="translate(743.578 9930.582)" fill="none" stroke="red" stroke-width="0.3" stroke-dasharray="4"/>
    <line id="Line_1351" data-name="Line 1351" x1="443.617" transform="translate(743.578 9978.582)" fill="none" stroke="red" stroke-width="0.3" stroke-dasharray="4"/>
    <line id="Line_1344" data-name="Line 1344" y1="72.918" transform="translate(759.83 9930.521)" fill="none" stroke="red" stroke-width="0.3" stroke-dasharray="4"/>
    <line id="Line_1346" data-name="Line 1346" y1="97.303" transform="translate(1088.078 9906.697)" fill="none" stroke="red" stroke-width="0.3" stroke-dasharray="4"/>
    <line id="Line_1478" data-name="Line 1478" y1="72.918" transform="translate(1104.078 9931.082)" fill="none" stroke="red" stroke-width="0.3" stroke-dasharray="4"/>
    <line id="Line_1477" data-name="Line 1477" y1="72.385" transform="translate(1064.195 9906.697)" fill="none" stroke="red" stroke-width="0.3" stroke-dasharray="4"/>
    <line id="Line_1345" data-name="Line 1345" y1="72.418" transform="translate(743.828 9931.582)" fill="none" stroke="red" stroke-width="0.3" stroke-dasharray="4"/>
    <text id="_48px" data-name="48px" transform="translate(1235.078 9958.582)" fill="#d0011b" font-size="14" font-family="OpenSans-Regular, Open Sans" letter-spacing="0.089em"><tspan x="-17.833" y="0">48px</tspan></text>
    <text id="_16px" data-name="16px" transform="translate(756.446 10031.582)" fill="#d0011b" font-size="14" font-family="OpenSans-Regular, Open Sans" letter-spacing="0.089em"><tspan x="-17.833" y="0">16px</tspan></text>
    <text id="_16px-2" data-name="16px" transform="translate(1097.078 10031.582)" fill="#d0011b" font-size="14" font-family="OpenSans-Regular, Open Sans" letter-spacing="0.089em"><tspan x="-17.833" y="0">16px</tspan></text>
    <text id="_24px" data-name="24px" transform="translate(1076.078 9895.582)" fill="#d0011b" font-size="14" font-family="OpenSans-Regular, Open Sans" letter-spacing="0.089em"><tspan x="-17.833" y="0">24px</tspan></text>
    <g id="Group_3654" data-name="Group 3654" transform="translate(762.591 10001.489) rotate(90)">
      <line id="Line_1260" data-name="Line 1260" y1="6" x2="6" transform="translate(-0.489)" fill="none" stroke="#d0011b" stroke-width="0.5"/>
      <line id="Line_1261" data-name="Line 1261" y1="5.511" x2="5.511" transform="translate(0 16.158)" fill="none" stroke="#d0011b" stroke-width="0.5"/>
      <line id="Line_1262" data-name="Line 1262" y2="16.77" transform="translate(3.062 2.449)" fill="none" stroke="#d0011b" stroke-width="0.5"/>
    </g>
    <g id="Group_3657" data-name="Group 3657" transform="translate(1186.195 9926.889)">
      <line id="Line_1260-2" data-name="Line 1260" y1="6" x2="6" fill="none" stroke="#d0011b" stroke-width="0.5"/>
      <line id="Line_1261-2" data-name="Line 1261" y1="5.511" x2="5.511" transform="translate(0.489 47.183)" fill="none" stroke="#d0011b" stroke-width="0.5"/>
      <line id="Line_1262-2" data-name="Line 1262" y2="47.795" transform="translate(3.551 2.449)" fill="none" stroke="#d0011b" stroke-width="0.5"/>
    </g>
    <g id="Group_3837" data-name="Group 3837" transform="translate(1107.262 10001.489) rotate(90)">
      <line id="Line_1260-3" data-name="Line 1260" y1="6" x2="6" transform="translate(-0.489)" fill="none" stroke="#d0011b" stroke-width="0.5"/>
      <line id="Line_1261-3" data-name="Line 1261" y1="5.511" x2="5.511" transform="translate(0 16.858)" fill="none" stroke="#d0011b" stroke-width="0.5"/>
      <line id="Line_1262-3" data-name="Line 1262" y2="17.471" transform="translate(3.062 2.449)" fill="none" stroke="#d0011b" stroke-width="0.5"/>
    </g>
    <g id="Group_3838" data-name="Group 3838" transform="translate(1090.928 9904.187) rotate(90)">
      <line id="Line_1260-4" data-name="Line 1260" y1="6" x2="6" transform="translate(-0.489)" fill="none" stroke="#d0011b" stroke-width="0.5"/>
      <line id="Line_1261-4" data-name="Line 1261" y1="5.511" x2="5.511" transform="translate(0 24.524)" fill="none" stroke="#d0011b" stroke-width="0.5"/>
      <line id="Line_1262-4" data-name="Line 1262" y2="25.136" transform="translate(3.062 2.449)" fill="none" stroke="#d0011b" stroke-width="0.5"/>
    </g>
    <path id="Path_2926" data-name="Path 2926" d="M634.3,9416.531v3.5s-3.692,0-5.568,1.9-1.938,5.68-1.938,5.68h-3.757" transform="translate(-8683.622 10612.883) rotate(-90)" fill="none" stroke="#d0011b" stroke-width="0.8"/>
    <path id="Path_2927" data-name="Path 2927" d="M634.3,9416.531v3.5s-3.692,0-5.568,1.9-1.938,5.68-1.938,5.68h-3.757" transform="translate(1738.378 19406.281) rotate(180)" fill="none" stroke="#d0011b" stroke-width="0.8"/>
    <text id="_4px" data-name="4px" transform="translate(717.828 9921.545)" fill="#d0011b" font-size="12" font-family="OpenSans-Regular, Open Sans" letter-spacing="0.089em"><tspan x="-11.32" y="0">4px</tspan></text>
    <path id="Path_2925" data-name="Path 2925" d="M634.3,9416.531v3.5s-3.692,0-5.568,1.9-1.938,5.68-1.938,5.68h-3.757" transform="translate(109.777 503.476)" fill="none" stroke="#d0011b" stroke-width="0.8"/>
    <path id="Path_2928" data-name="Path 2928" d="M634.3,9416.531v3.5s-3.692,0-5.568,1.9-1.938,5.68-1.938,5.68h-3.757" transform="translate(10531.777 9296.22) rotate(90)" fill="none" stroke="#d0011b" stroke-width="0.8"/>
  </g>
</svg>
