<svg xmlns="http://www.w3.org/2000/svg" xmlns:xlink="http://www.w3.org/1999/xlink" width="274" height="150" viewBox="0 0 274 150">
  <defs>
    <clipPath id="clip-path">
      <rect id="Rectángulo_1567" data-name="Rectángulo 1567" width="274" height="150" transform="translate(-8026 12131)" fill="#fff"/>
    </clipPath>
    <filter id="Rectángulo_49" x="-9" y="-6" width="609.053" height="66" filterUnits="userSpaceOnUse">
      <feOffset dy="3" input="SourceAlpha"/>
      <feGaussianBlur stdDeviation="3" result="blur"/>
      <feFlood flood-opacity="0.071"/>
      <feComposite operator="in" in2="blur"/>
      <feComposite in="SourceGraphic"/>
    </filter>
    <filter id="Rectángulo_49-2" x="-9" y="54" width="609.053" height="66" filterUnits="userSpaceOnUse">
      <feOffset dy="3" input="SourceAlpha"/>
      <feGaussianBlur stdDeviation="3" result="blur-2"/>
      <feFlood flood-opacity="0.071"/>
      <feComposite operator="in" in2="blur-2"/>
      <feComposite in="SourceGraphic"/>
    </filter>
    <filter id="Rectángulo_51" x="-9" y="114" width="609.053" height="66" filterUnits="userSpaceOnUse">
      <feOffset dy="3" input="SourceAlpha"/>
      <feGaussianBlur stdDeviation="3" result="blur-3"/>
      <feFlood flood-opacity="0.071"/>
      <feComposite operator="in" in2="blur-3"/>
      <feComposite in="SourceGraphic"/>
    </filter>
  </defs>
  <g id="Enmascarar_grupo_62" data-name="Enmascarar grupo 62" transform="translate(8026 -12131)" clip-path="url(#clip-path)">
    <g id="Grupo_2165" data-name="Grupo 2165" transform="translate(-10163.947 11542)">
      <g transform="matrix(1, 0, 0, 1, 2137.95, 589)" filter="url(#Rectángulo_49)">
        <rect id="Rectángulo_49-3" data-name="Rectángulo 49" width="591.053" height="48" rx="4" transform="translate(0)" fill="#cee0f5"/>
      </g>
      <text id="INFORMATION" transform="translate(2188.947 618)" font-size="12" font-family="OpenSans-Bold, Open Sans" font-weight="700"><tspan x="0" y="0">INFORMATION</tspan></text>
      <text id="_-" data-name="-" transform="translate(2286.947 618)" font-size="12" font-family="OpenSans-Bold, Open Sans" font-weight="700"><tspan x="0" y="0">-</tspan></text>
      <text id="Lorem_ipsum_dolor_sit_amet_consectetur_adipiscing_elit._Proin_quis_nisi_ut_erat_sollicitudin_vehicula._Ut_mollis_viverra_sapien_eget_gravida._Maecenas_blandit_arcu_nisl_vitae_placerat_erat_tempus_ultricies._Fusce_vel_ultrices_metus._In_faucibus_ipsum_tri" data-name="Lorem ipsum dolor sit amet, consectetur adipiscing elit. Proin quis nisi ut erat sollicitudin vehicula. Ut mollis viverra sapien eget gravida. Maecenas blandit arcu nisl, vitae placerat erat tempus ultricies. Fusce vel ultrices metus. In faucibus ipsum tri" transform="translate(2300.947 605)" font-size="12" font-family="OpenSans-Regular, Open Sans"><tspan x="0" y="13">Lorem ipsum dolor sit amet, consectetur adipiscing elit. Proin </tspan></text>
      <g id="baseline-close-24px" transform="translate(2697 603)">
        <path id="Trazado_9" data-name="Trazado 9" d="M16.667,6.175,15.492,5,10.833,9.658,6.175,5,5,6.175l4.658,4.658L5,15.492l1.175,1.175,4.658-4.658,4.658,4.658,1.175-1.175-4.658-4.658Z" transform="translate(-0.833 -0.833)"/>
        <path id="Trazado_10" data-name="Trazado 10" d="M0,0H20V20H0Z" fill="none"/>
      </g>
      <path id="Rectángulo_50" data-name="Rectángulo 50" d="M4,0H41a0,0,0,0,1,0,0V48a0,0,0,0,1,0,0H4a4,4,0,0,1-4-4V4A4,4,0,0,1,4,0Z" transform="translate(2138 589)" fill="#cee0f5"/>
      <rect id="Rectángulo_38" data-name="Rectángulo 38" width="12" height="13" transform="translate(2153.947 606)" fill="#fff"/>
      <g id="baseline-error-24px" transform="translate(2171.947 625) rotate(180)">
        <path id="Trazado_7" data-name="Trazado 7" d="M0,0H24V24H0Z" fill="none"/>
        <path id="Trazado_8" data-name="Trazado 8" d="M10,0A10,10,0,1,0,20,10,10,10,0,0,0,10,0Zm1,15H9V13h2Zm0-4H9V5h2Z" transform="translate(2 2)" fill="#4a90e2"/>
      </g>
    </g>
    <g id="Grupo_2166" data-name="Grupo 2166" transform="translate(-8164.947 11790)">
      <g transform="matrix(1, 0, 0, 1, 138.95, 341)" filter="url(#Rectángulo_49-2)">
        <rect id="Rectángulo_49-4" data-name="Rectángulo 49" width="591.053" height="48" rx="4" transform="translate(0 60)" fill="#fcf2bd"/>
      </g>
      <text id="WARNING" transform="translate(189.947 430)" font-size="12" font-family="OpenSans-Bold, Open Sans" font-weight="700"><tspan x="0" y="0">WARNING</tspan></text>
      <text id="_--2" data-name="-" transform="translate(259.947 430)" font-size="12" font-family="OpenSans-Bold, Open Sans" font-weight="700"><tspan x="0" y="0">-</tspan></text>
      <text id="Lorem_ipsum_dolor_sit_amet_consectetur_adipiscing_elit._Proin_quis_nisi_ut_erat_sollicitudin_vehicula._Ut_mollis_viverra_sapien_eget_gravida._Maecenas_blandit_arcu_nisl_vitae_placerat_erat_tempus_ultricies._Fusce_vel_ultrices_metus._In_faucibus_ipsum_tri-2" data-name="Lorem ipsum dolor sit amet, consectetur adipiscing elit. Proin quis nisi ut erat sollicitudin vehicula. Ut mollis viverra sapien eget gravida. Maecenas blandit arcu nisl, vitae placerat erat tempus ultricies. Fusce vel ultrices metus. In faucibus ipsum tri" transform="translate(273.947 417)" font-size="12" font-family="OpenSans-Regular, Open Sans"><tspan x="0" y="13">Lorem ipsum dolor sit amet, consectetur adipiscing elit. Proin </tspan></text>
      <g id="baseline-close-24px-2" data-name="baseline-close-24px" transform="translate(698 415)">
        <path id="Trazado_9-2" data-name="Trazado 9" d="M16.667,6.175,15.492,5,10.833,9.658,6.175,5,5,6.175l4.658,4.658L5,15.492l1.175,1.175,4.658-4.658,4.658,4.658,1.175-1.175-4.658-4.658Z" transform="translate(-0.833 -0.833)"/>
        <path id="Trazado_10-2" data-name="Trazado 10" d="M0,0H20V20H0Z" fill="none"/>
      </g>
      <path id="Rectángulo_50-2" data-name="Rectángulo 50" d="M4,0H41a0,0,0,0,1,0,0V48a0,0,0,0,1,0,0H4a4,4,0,0,1-4-4V4A4,4,0,0,1,4,0Z" transform="translate(139 401)" fill="#fcf2bd"/>
      <g id="Grupo_22" data-name="Grupo 22">
        <rect id="Rectángulo_55" data-name="Rectángulo 55" width="6" height="12" transform="translate(157.947 421)" fill="#fff"/>
        <g id="baseline-warning-24px" transform="translate(149 413)">
          <path id="Trazado_5" data-name="Trazado 5" d="M0,0H24V24H0Z" fill="none"/>
          <path id="Trazado_6" data-name="Trazado 6" d="M1,21H23L12,2Zm12-3H11V16h2Zm0-4H11V10h2Z" fill="#ffd806"/>
        </g>
      </g>
    </g>
    <g id="Grupo_2167" data-name="Grupo 2167" transform="translate(-8164.947 11790)">
      <g transform="matrix(1, 0, 0, 1, 138.95, 341)" filter="url(#Rectángulo_51)">
        <rect id="Rectángulo_51-2" data-name="Rectángulo 51" width="591.053" height="48" rx="4" transform="translate(0 120)" fill="#f9cfcf"/>
      </g>
      <text id="ERROR" transform="translate(189.947 490)" font-size="12" font-family="OpenSans-Bold, Open Sans" font-weight="700"><tspan x="0" y="0">ERROR</tspan></text>
      <text id="_--3" data-name="-" transform="translate(239.947 490)" font-size="12" font-family="OpenSans-Bold, Open Sans" font-weight="700"><tspan x="0" y="0">-</tspan></text>
      <text id="Lorem_ipsum_dolor_sit_amet_consectetur_adipiscing_elit._Proin_quis_nisi_ut_erat_sollicitudin_vehicula._Ut_mollis_viverra_sapien_eget_gravida._Maecenas_blandit_arcu_nisl_vitae_placerat_erat_tempus_ultricies._Fusce_vel_ultrices_metus._In_faucibus_ipsum_tri-3" data-name="Lorem ipsum dolor sit amet, consectetur adipiscing elit. Proin quis nisi ut erat sollicitudin vehicula. Ut mollis viverra sapien eget gravida. Maecenas blandit arcu nisl, vitae placerat erat tempus ultricies. Fusce vel ultrices metus. In faucibus ipsum tri" transform="translate(253.947 477)" font-size="12" font-family="OpenSans-Regular, Open Sans"><tspan x="0" y="13">Lorem ipsum dolor sit amet, consectetur adipiscing elit. Proin </tspan></text>
      <g id="baseline-close-24px-3" data-name="baseline-close-24px" transform="translate(698 475)">
        <path id="Trazado_9-3" data-name="Trazado 9" d="M16.667,6.175,15.492,5,10.833,9.658,6.175,5,5,6.175l4.658,4.658L5,15.492l1.175,1.175,4.658-4.658,4.658,4.658,1.175-1.175-4.658-4.658Z" transform="translate(-0.833 -0.833)"/>
        <path id="Trazado_10-3" data-name="Trazado 10" d="M0,0H20V20H0Z" fill="none"/>
      </g>
      <path id="Rectángulo_52" data-name="Rectángulo 52" d="M4,0H41a0,0,0,0,1,0,0V48a0,0,0,0,1,0,0H4a4,4,0,0,1-4-4V4A4,4,0,0,1,4,0Z" transform="translate(139 461)" fill="#f9cfcf"/>
      <g id="Grupo_23" data-name="Grupo 23">
        <rect id="Rectángulo_56" data-name="Rectángulo 56" width="12" height="13" transform="translate(154.947 479)" fill="#fff"/>
        <g id="baseline-cancel-24px" transform="translate(149 473)">
          <path id="Trazado_1" data-name="Trazado 1" d="M12,2A10,10,0,1,0,22,12,9.991,9.991,0,0,0,12,2Zm5,13.59L15.59,17,12,13.41,8.41,17,7,15.59,10.59,12,7,8.41,8.41,7,12,10.59,15.59,7,17,8.41,13.41,12Z" fill="#e22"/>
          <path id="Trazado_2" data-name="Trazado 2" d="M0,0H24V24H0Z" fill="none"/>
        </g>
      </g>
    </g>
  </g>
</svg>
